<?xml version="1.0" encoding="utf-8"?>
<!-- Generator: Adobe Illustrator 27.2.0, SVG Export Plug-In . SVG Version: 6.00 Build 0)  -->
<svg version="1.1" id="Ebene_2_00000013895881022866992110000003832505179086403996_"
	 xmlns="http://www.w3.org/2000/svg" xmlns:xlink="http://www.w3.org/1999/xlink" x="0px" y="0px" viewBox="0 0 119.1 84.4"
	 style="enable-background:new 0 0 119.1 84.4;" xml:space="preserve">
<style type="text/css">
	.st0{fill:url(#SVGID_1_);}
	.st1{fill:url(#SVGID_00000016070745322566001440000007465044500670700218_);}
	.st2{fill:url(#SVGID_00000103968130457153513460000007403838703317434025_);}
	.st3{fill:url(#SVGID_00000101082799992456209100000001165404043149923232_);}
</style>
<g id="Ebene_1-2">
	<g>
		
			<linearGradient id="SVGID_1_" gradientUnits="userSpaceOnUse" x1="24.04" y1="64.1656" x2="71.33" y2="64.1656" gradientTransform="matrix(1 0 0 -1 0 85.2756)">
			<stop  offset="0" style="stop-color:#FFFFFF"/>
			<stop  offset="1" style="stop-color:#570DF8"/>
		</linearGradient>
		<polygon class="st0" points="35.8,0 24,20.7 46,20.7 59.5,42.2 71.3,20.7 59.3,0 		"/>
		
			<linearGradient id="SVGID_00000181073687652587052760000009931448254663872938_" gradientUnits="userSpaceOnUse" x1="71.33" y1="64.3656" x2="119.11" y2="64.3656" gradientTransform="matrix(1 0 0 -1 0 85.2756)">
			<stop  offset="0" style="stop-color:#FFFFFF"/>
			<stop  offset="1" style="stop-color:#641AE6"/>
		</linearGradient>
		<polygon style="fill:url(#SVGID_00000181073687652587052760000009931448254663872938_);" points="107.3,0 82.5,0 71.3,20.7 
			94.8,20.7 107,41.8 119.1,20.7 		"/>
		
			<linearGradient id="SVGID_00000008127470199355651120000007909246838915938714_" gradientUnits="userSpaceOnUse" x1="0" y1="21.7256" x2="47.66" y2="21.7256" gradientTransform="matrix(1 0 0 -1 0 85.2756)">
			<stop  offset="0" style="stop-color:#FFFFFF"/>
			<stop  offset="1" style="stop-color:#641AE6"/>
		</linearGradient>
		<polygon style="fill:url(#SVGID_00000008127470199355651120000007909246838915938714_);" points="22.9,62.9 0,62.9 11.3,84.4 
			34.7,84.4 47.7,62.9 35.2,42.7 		"/>
		
			<linearGradient id="SVGID_00000103981285496956450890000012694511164283957946_" gradientUnits="userSpaceOnUse" x1="47.66" y1="21.7256" x2="94.85" y2="21.7256" gradientTransform="matrix(1 0 0 -1 0 85.2756)">
			<stop  offset="0" style="stop-color:#FFFFFF"/>
			<stop  offset="1" style="stop-color:#641AE6"/>
		</linearGradient>
		<polygon style="fill:url(#SVGID_00000103981285496956450890000012694511164283957946_);" points="71.3,62.9 47.7,62.9 59.5,84.4 
			82.5,84.4 94.8,62.9 83.1,42.7 		"/>
	</g>
</g>
</svg>
