<?xml version="1.0" encoding="utf-8"?>
<!-- Generator: Adobe Illustrator 27.2.0, SVG Export Plug-In . SVG Version: 6.00 Build 0)  -->
<svg version="1.1" id="Ebene_1" xmlns="http://www.w3.org/2000/svg" xmlns:xlink="http://www.w3.org/1999/xlink" x="0px" y="0px"
	 viewBox="0 0 327 248" style="enable-background:new 0 0 327 248;" xml:space="preserve">
<style type="text/css">
	.st0{fill:#271A61;}
	.st1{fill:#FACC15;}
	.st2{fill:#641AE6;}
</style>
<path class="st0" d="M261.4,63.6c-21.1-0.9-42,5.4-59.1,17.8L82.9,167.9c-3.3,2.4-4.3,6.8-2.4,10.4l-6,3.2c-3.6,1.9-4.9,6.3-3,9.9
	l10,18.6c1.9,3.6,6.3,4.9,9.9,3l6-3.2c1.9,3.6,6.2,5.2,10,3.8l138-51.9c19.8-7.5,36.6-21.4,47.5-39.5l33.9-56L261.4,63.6z
	 M237.1,135.1c-11.5,0-20.7-9.3-20.7-20.7c0-11.4,9.3-20.7,20.7-20.7c11.4,0,20.7,9.3,20.7,20.7
	C257.8,125.8,248.5,135.1,237.1,135.1z"/>
<path class="st1" d="M76.7,191.2c0,0-25.5-1.2-44.7,15.1c2-0.5,9.6,1.5,9.6,1.5L20,219.9l15.4-2.6L0.2,240.7l43.9-12.5l-11,10.7
	l21.5-11.3l-4.2,11.2c0,0,29-19.1,37.2-32.4"/>
<path class="st2" d="M186.2,174.7l-7.5,15c-10.4,23.8-32.1,42.1-58,48.8c-23.3,6-51.1,11.2-72.6,4.6C77,230.5,125,201.8,125,201.8"
	/>
<path class="st2" d="M158.7,123.5l-16.7-2C116.5,117,89.3,125,69.4,143c-17.9,16.1-37.5,36.4-43.9,57.9
	c26.4-17.1,76.8-41.3,76.8-41.3"/>
<path class="st2" d="M149.4,150.8l-113,70.3l121.9-53.6c5.1-2.2,7.2-8.3,4.5-13.2C160.2,149.5,154,147.9,149.4,150.8z"/>
<path d="M114.7,22.2c-0.1,0.6-0.1,1.2,0.2,1.7c0.3,0.4,0.8,0.7,1.3,0.9c1,0.4,2,0.3,3.1,0.5c0.3,0.1,0.9,0.2,1.1,0.5
	c0.1,0.3-0.3,0.5-0.5,0.7c-0.8,0.6-1.7,0.9-2.7,1c-0.3,0-0.6,0.3-0.6,0.6c0,0.3,0.3,0.6,0.6,0.6c0.9-0.1,1.8-0.3,2.6-0.7
	c0.4-0.2,0.7-0.4,1.1-0.7c0.4-0.3,0.7-0.6,0.8-1.1c0.2-1-0.6-1.8-1.5-2c-0.8-0.3-1.7-0.2-2.6-0.3c-0.4-0.1-0.9-0.2-1.2-0.4
	c-0.4-0.2-0.4-0.5-0.3-0.9C116.1,21.8,114.9,21.5,114.7,22.2z"/>
<path d="M207.4,16.1c3.1-3.1,6.2-6.1,9.3-9.3c1-1.1,1.5-2.5,1.2-3.9c-0.5-2-2.7-3.3-4.8-2.8c-1.6,0.4-2.8,2-3.9,3.1
	c-3.9,3.9-7.8,7.8-11.7,11.8c-1.3,1.3-2.4,2.5-3.5,3.9c-2.9,3.8-5.1,8-7.9,11.9c-8.5,11.6-21.5,18.9-35.4,21.7
	c-6,1.2-12.1,1.7-18.2,1.3c-4.7-0.3-9.6-1.1-14-2.9c-1.5-0.6-3-1.4-4.2-2.4c-1-0.8-1.7-1.6-1.9-2.7c-0.3-1.3,0-3.7,1.3-4.9
	c1.3-1.1,3.1-1.4,4.6-2c1.8-0.6,3.6-1.5,4.7-3.2c1.6-2.4,1.4-5.6,1-8.3c-1.1-7.8-6.8-17.6-16-15.6c-4.4,1-8.4,4.1-11.2,7.6
	c-3.2,4-4.5,9-5.2,14s-1.5,10.3-0.8,15.3c0.2,1.6,0.6,5.1,2.9,5.1c2,0,2.6-2.6,1.6-4c-1.3-1.6-3.8-1.8-5.7-2
	c-2.2-0.2-4.4-0.1-6.6,0.2c-4.7,0.6-9.1,2.2-13.3,4.3c-8.4,4.1-16,10.2-22.1,17.2c-6.7,7.8-11.5,17.1-14.2,27
	c-1.3,4.9-2.1,10-2.2,15.1c-0.1,2.4-0.2,4.8-0.2,7.2c-0.1,3.7-0.3,7.3-0.4,11c-0.2,4.3-0.6,8.6-0.5,12.9c0,1.9,1.3,3.6,3.2,4
	c2,0.4,3.8-0.9,4.4-2.7h-1.8c0.8,3.1,4.8,4.2,6.9,1.6c1-1.3,0.8-2.8,0.8-4.3c0-3.4,0-6.8,0-10.2c-0.6,0.1-1.2,0.2-1.8,0.2
	c0.6,4.2,1,8.5,1.8,12.7c0.3,1.8,2,3.2,3.8,3.2c2.1,0,3.8-1.7,3.9-3.8c0-0.8-0.2-1.6-0.3-2.3c-0.2-1.3-0.4-2.7-0.6-4
	c-0.4-2.4-0.8-4.8-1.2-7.2c-0.6,0.2-1.2,0.3-1.8,0.5c1.1,2.8,2.2,5.5,3.4,8.3c0.5,1.3,1,2.5,1.5,3.8c0.8,1.9,2.7,3.2,4.8,2.6
	c2.2-0.6,3.3-3.1,2.6-5.2c-0.3-0.8-0.7-1.6-1-2.4c-1.4-3.5-2.8-7-4.2-10.4c-1-2.6-2.1-5.2-3.1-7.7c-0.4,0.4-0.8,0.8-1.1,1.1
	c1.8,0.5,3.7,1.1,5.5,1.6c0.9,0.3,1.8,0.5,2.8,0.4c1.7-0.2,3.1-1.3,3.8-2.8c0.7-1.6,0.4-3.4-0.6-4.7c-0.6-0.8-1.4-1.2-2.3-1.7
	c-1-0.6-2.1-1.2-3.1-1.7c-0.4-0.2-0.9-0.5-1.3-0.7c-0.4-0.3-0.4-0.4-0.2,0.1c0.1,0.2,0,0.3,0.1-0.1c0.1-0.3,0.2-0.6,0.3-0.9
	c0.4-0.9,0.9-1.8,1.4-2.7c1.2-2.2,2.6-4.4,4-6.5c1.1-1.8,2.3-3.5,3.5-5.2c0.2-0.2,0.3-0.5,0.5-0.7c0.1-0.1,0.1-0.2,0.2-0.2
	c0-0.1,0.1-0.1-0.1,0.1c0.2-0.3,0.4-0.5,0.6-0.7c1.4-1.7,2.9-3.3,4.5-4.7c3.7-3.4,8.1-6.3,12.9-8c2.3-0.8,4.6-1.1,7-0.8
	c2.2,0.2,4.1,0,5.9-1.4c0.4-0.3,0.3-1,0-1.3c-0.9-1-2.3-1-3.4-0.3c-1.3,0.8-1.7,2.3-1.7,3.8c0.1,1.9,0.5,3.7,0.9,5.6
	c0.4,1.8,0.8,3.6,1.3,5.4c2,7.2,5,14.1,8.9,20.5c3.8,6.2,8.2,12.2,13.3,17.3c5.2,5.2,11.2,9,18.2,11.4c7,2.4,14.4,3.7,21.7,4.9
	c6.3,1,12.9,1.4,19,3.4c6.7,2.2,11.4,7.1,14.8,13.1c3.8,6.6,6,14.2,6.2,21.8c0.2,7.7-1.6,15.5-3.9,22.8c-0.9,2.9-1.8,6.1-1.1,9.2
	c0.6,2.8,2.8,4.5,5.2,5.8c2.6,1.4,5.5,2.3,8.3,3.3c2.7,1,5.4,2,8.1,2.7c6,1.6,12.9,3,19.1,1.2c2.9-0.8,5.5-2.7,6.7-5.6
	c1.3-3.3-0.4-6.2-2.4-8.8c-2.3-2.9-4-5.8-4.6-9.5c-0.6-3.5-0.2-7.1,0.4-10.5c1.3-6.9,3.7-13.6,3.9-20.6c0.2-7.3-0.5-14.7-2.4-21.8
	s-5.1-13.8-9.5-19.6c-4.2-5.5-9.6-10.1-15.6-13.6c-6.2-3.7-13-6.2-19.9-7.8c-7.8-1.7-15.7-2.2-23.5-3.9c-3.9-0.9-7.7-2.1-11.3-3.8
	c-1.1-0.5-2,1.1-0.9,1.6c13.7,6.7,29.6,5.3,43.8,10.4c13,4.7,24.3,13.4,30.8,25.8c3.3,6.3,5.3,13.3,6.2,20.4
	c0.9,6.9,0.9,13.9-0.6,20.8c-1.4,6.5-3.7,13.1-3.4,19.8c0.1,3.2,0.9,6.4,2.4,9.2c0.8,1.5,1.8,2.8,2.9,4.2c1,1.3,2,2.6,2.4,4.2
	c0.8,3.4-2.2,6.1-5.1,7.1c-2.8,0.9-5.9,1-8.8,0.8c-6-0.5-11.8-2.2-17.4-4.3c-2.7-1-5.5-1.8-8.1-3.2c-2.5-1.3-4.6-3-4.8-6
	c-0.2-3.1,1-6.1,1.9-9c1.1-3.4,1.7-7,2.4-10.6c1.3-7.5,1.2-14.9-0.8-22.3c-1.9-6.7-5.2-13.2-9.9-18.4c-4.1-4.4-9.5-6.8-15.3-8
	c-6.4-1.3-12.9-1.9-19.3-3c-7-1.2-14.2-2.7-20.7-5.6c-6.5-2.9-11.8-7.4-16.5-12.7c-9.5-10.9-16.6-23.9-19.7-38
	c-0.4-1.7-0.7-3.4-1-5.2c-0.1-0.8-0.3-1.8,0.1-2.6c0.3-0.6,1.1-1.1,1.7-0.6v-1.3c-1.7,1.3-3.5,1-5.5,0.8c-2.1-0.2-4.2,0.2-6.2,0.9
	c-4,1.3-7.7,3.5-11,6c-4.4,3.4-7.9,7.4-10.9,12c-2.5,3.8-5.3,7.7-7.1,12c-0.5,1.1-0.9,2.3,0.3,3.1c1.7,1,3.5,2,5.3,3
	c1.4,0.8,2.3,2.5,1.3,4.1c-0.8,1.4-2.3,1.6-3.7,1.2c-2-0.6-4-1.2-6-1.8c-0.6-0.2-1.4,0.5-1.1,1.1c2.1,5.2,4.2,10.4,6.3,15.5L57,139
	c0.2,0.6,0.6,1.3,0.7,1.9c0.3,2.5-3,3.1-4,0.9c-0.5-1.1-0.9-2.3-1.4-3.5c-1.2-2.9-2.3-5.7-3.5-8.6c-0.5-1.1-2-0.7-1.8,0.5
	c0.6,4,1.3,8,1.9,12.1c0.2,1,0.1,2.1-0.9,2.7c-1.5,0.9-2.9-0.3-3.1-1.8c-0.3-2.1-0.6-4.2-0.9-6.4c-0.3-2.1-0.6-4.1-0.9-6.2
	c-0.1-1.1-1.8-0.8-1.8,0.2c0,2.7,0,5.4,0,8.1c0,1.3,0,2.6,0,3.9c-0.1,2.5-3.4,3-4.1,0.5c-0.2-0.9-1.5-0.8-1.8,0
	c-0.8,2.3-4,1.6-4-0.7c0-0.4,0-0.8,0-1.2c0.1-2.2,0.2-4.5,0.3-6.7c0.2-4.7,0.4-9.3,0.6-14c0.2-4.1,0.2-8.3,0.5-12.4
	c0.8-9.8,3.9-19.3,8.8-27.8c4.6-8,10.9-14.8,18.3-20.3c7.1-5.3,15.6-9.9,24.6-10.6c2.1-0.2,4.3-0.1,6.4,0.3c0.7,0.1,2.6,0.3,2.7,1.3
	c0,0.1,0,0.4-0.1,0.5c-0.3,0.3-0.3,0-0.4-0.3c-0.3-0.6-0.4-1.4-0.6-2.1c-0.9-4.8-0.1-9.9,0.6-14.7c0.6-4.9,1.8-9.9,4.8-13.8
	c2.6-3.4,6.6-6.5,10.9-7.2c8.6-1.5,13.2,9.6,13.4,16.6c0.1,2.1-0.3,4.4-2.1,5.8c-1.3,1-2.9,1.4-4.4,1.9c-1.7,0.6-3.3,1.3-4.3,2.7
	c-1.1,1.6-1.4,3.9-1,5.7c0.6,2.7,3.3,4.5,5.6,5.6c3.8,1.9,8,2.8,12.2,3.4c5.4,0.7,10.9,0.7,16.4,0.1c12.7-1.4,25.1-6.2,34.8-14.7
	c2.7-2.3,5.1-5,7.3-7.8c2.6-3.4,4.6-7.2,7.1-10.7c2.7-3.8,5.9-6.9,9.2-10.1c3.2-3.2,6.2-6.4,9.5-9.5c1.1-1,2.9-1,3.5,0.6
	c0.4,1.1-0.3,1.9-1,2.7c-1.8,1.8-3.5,3.5-5.3,5.3c-1.2,1.2-2.4,2.4-3.6,3.6C205.2,15.7,206.5,17,207.4,16.1z"/>
<path d="M118.3,38c0,0-9.5,2.5-13.6-0.3c0.8,2.8,6.8,5.4,6.8,5.4s0.5-2.8,2.5-3.4C116,39.1,118.3,38,118.3,38z"/>
<path d="M118.1,37.1c-1.1,0.3-2.2,0.5-3.3,0.6c-0.5,0.1-0.8,0.1-1.4,0.2c-0.6,0.1-1.1,0.1-1.7,0.1s-1.2,0-1.7,0c-0.3,0-0.6,0-0.8,0
	c-0.1,0-0.3,0-0.4,0s-0.3,0-0.3,0c-0.6-0.1-1.2-0.2-1.8-0.4c-0.5-0.2-0.9-0.3-1.4-0.7c-0.7-0.4-1.6,0.3-1.4,1.1
	c0.6,1.9,2.4,3.2,4,4.2c1,0.6,2.1,1.2,3.2,1.7c0.5,0.2,1.3,0.1,1.4-0.6c0.1-0.4,0.2-0.8,0.3-1.1c-0.1,0.2,0,0,0-0.1s0.1-0.2,0.1-0.3
	c0.1-0.2,0.2-0.3,0.3-0.5c0.1-0.2,0,0,0.1-0.1s0.1-0.2,0.2-0.2c0.2-0.2,0.1-0.1,0.4-0.3c0.2-0.1,0.2-0.1,0.4-0.2
	c0.3-0.1,0.6-0.2,1-0.3c0.6-0.2,1.1-0.4,1.7-0.6c0.6-0.3,1.3-0.5,1.9-0.8c0.5-0.2,0.6-0.9,0.3-1.3c-0.3-0.5-0.8-0.5-1.3-0.3
	c-0.7,0.3-1.2,0.5-2,0.8c-0.6,0.2-1.2,0.4-1.8,0.6c-0.5,0.2-1,0.3-1.5,0.6c-1.1,0.8-1.8,2.2-2.1,3.5c0.5-0.2,0.9-0.4,1.4-0.6
	c-1-0.4-2-1-3-1.6c-0.8-0.5-1.5-1-2.1-1.6c-0.2-0.1-0.3-0.3-0.5-0.5c-0.1-0.1-0.1-0.1-0.2-0.2l-0.1-0.1c0.1,0.1,0,0.1,0,0
	c-0.1-0.1-0.2-0.3-0.3-0.5c0-0.1-0.1-0.2-0.1-0.3c0.1,0.2,0-0.1,0-0.1l-1.4,1.1c2,1.3,4.5,1.5,6.8,1.4c2.1,0,4.2-0.3,6.2-0.7
	c0.4-0.1,0.9-0.2,1.3-0.3C119.7,38.6,119.2,36.8,118.1,37.1z"/>
<path d="M212,15.5c-1.2,1.2-2.4,2.4-3.5,3.6c-0.5,0.5-1.1,1.1-1.6,1.6c-1,1.1-1.5,2.6-1.1,4c0.7,2.1,3.1,3.3,5.2,2.5l-1.1-1.4
	c-0.7,1.6-0.4,3.4,0.9,4.6c1.3,1.1,3.1,1.3,4.6,0.5c-0.4-0.4-0.8-0.8-1.3-1.3c-0.8,1.4-0.7,3.2,0.3,4.5c1,1.2,2.7,1.7,4.2,1.3
	c1.3-0.4,2.2-1.6,3.2-2.5c1.3-1.3,2.6-2.6,3.9-3.9c0.5-0.5,1-1,1.5-1.5c0.3-0.3,0.7-0.7,1-1.1c1-1.5,0.8-3.5-0.3-4.8
	c-1.2-1.4-3.3-1.6-4.9-0.7c0.4,0.4,0.8,0.8,1.3,1.3c0.9-1.5,0.7-3.3-0.4-4.6c-1.1-1.2-2.9-1.7-4.4-1l1.1,1.4
	c0.6-1.3,0.5-2.8-0.3-3.9c-0.4-0.6-1-1.1-1.5-1.6c-1.5-1.4-3.2-2.4-5.3-2.5c-1.3-0.1-2.6,0.3-3.6,1.2c-0.8,0.9,0.5,2.2,1.3,1.3
	c0.3-0.3,0.5-0.5,0.8-0.6c0.4-0.1,0.7-0.2,1.1-0.1c0.8,0,1.7,0.3,2.4,0.7c1.1,0.6,1.9,1.4,2.9,2.4c0.6,0.6,0.8,1.5,0.5,2.3
	c-0.2,0.4-0.2,0.7,0.1,1c0.2,0.3,0.6,0.5,1,0.3c0.9-0.4,1.8-0.3,2.5,0.5c0.6,0.7,0.7,1.7,0.2,2.4c-0.5,0.8,0.5,1.7,1.3,1.3
	c0.9-0.5,2-0.3,2.7,0.5c0.6,0.8,0.6,1.9-0.1,2.7c-0.6,0.6-1.2,1.2-1.8,1.9c-1.9,1.9-3.7,3.8-5.6,5.7c-0.6,0.6-1.5,0.8-2.3,0.5
	c-1.2-0.5-1.5-1.9-0.9-3c0.5-0.8-0.5-1.7-1.3-1.3c-0.7,0.4-1.7,0.4-2.3-0.2c-0.7-0.6-0.9-1.5-0.6-2.3c0.2-0.4,0.2-0.7-0.1-1
	c-0.2-0.3-0.6-0.5-1-0.3c-1.3,0.5-2.7-0.1-3-1.5c-0.1-0.8,0.2-1.4,0.8-2c1.2-1.3,2.5-2.6,3.7-3.8c0.4-0.4,0.8-0.9,1.2-1.3
	C214.2,16,212.9,14.7,212,15.5z"/>
<path d="M215.7,20c-1.7,1.6-3.3,3.3-5,4.9c-0.2,0.2-0.5,0.5-0.7,0.7c-0.3,0.3-0.4,1,0,1.3s0.9,0.4,1.3,0c1.7-1.6,3.3-3.3,5-4.9
	l0.7-0.7c0.3-0.3,0.4-1,0-1.3C216.7,19.7,216.1,19.7,215.7,20z"/>
<path d="M219.6,24.1c-1.7,1.6-3.3,3.3-5,4.9c-0.2,0.2-0.5,0.5-0.7,0.7c-0.3,0.3-0.4,1,0,1.3s0.9,0.4,1.3,0c1.7-1.6,3.3-3.3,5-4.9
	c0.2-0.2,0.5-0.5,0.7-0.7c0.3-0.3,0.4-1,0-1.3C220.5,23.7,219.9,23.7,219.6,24.1z"/>
<path d="M35.6,130.4c0,4.1-0.1,8.2-0.1,12.3c0,0.6,0,1.2,0,1.7c0,1.2,1.8,1.2,1.9,0c0-4.1,0.1-8.2,0.1-12.3c0-0.6,0-1.2,0-1.7
	C37.4,129.2,35.6,129.2,35.6,130.4z"/>
<path d="M214.5,33.9c0,0.1,0-0.1,0-0.2C214.5,33.8,214.5,33.9,214.5,33.9c-0.1,0.3-0.2,0.4-0.2,0.6c-0.1,0.3,0-0.1-0.1,0.2
	c-0.1,0.2-0.1,0.3-0.2,0.5c-1.3,2.7-2.9,5.2-4.5,7.7c-3.2,5-6.5,10-10.6,14.3c-4.2,4.4-9,8.2-14.2,11.3
	c-10.1,6.2-21.5,10.1-33.5,10.5c-2.1,0.1-4.2,0-6.3-0.3c-1.8-0.3-3.8-0.9-5.1-2.2c-0.7-0.6-1.2-1.4-1.4-2.2
	c-0.3-1.1,0.2-2.5,1.6-1.8c1.3,0.7,1.5,2.5,1.8,3.8c0.3,1.2,0.6,2.5,1.1,3.7c1.6,4.1,4.6,7.6,8.6,9.5c5.1,2.4,10.7,1.8,16.2,1.9
	c7,0.1,13.9,0.6,20.8,1.8c6.2,1.1,12.2,2.8,18,5.2c11,4.6,21,11.3,30,19c4.6,3.9,8.9,8.1,13,12.4c4.2,4.4,8,9,12.2,13.3
	c2.1,2.2,4.3,4.2,6.7,6.1c2.3,1.8,4.8,3.3,7.4,4.8c2.6,1.4,5.4,2.9,8.4,2.7c3.2-0.2,6.1-1.9,9.3-1.8c1.2,0,2.4,0.3,3.4,1
	c1.2,0.8,1.7,2.2,1.7,3.6c0.1,3.1-0.8,6.4-1.9,9.3c-1,2.9-2.5,5.7-4.1,8.3c-1.6,2.5-2.9,5.2-4.3,7.8s-2.9,5.1-5,7.3
	c0.3-0.1,0.6-0.2,0.9-0.2c-12.4-3.8-25.5-4.9-37.4-10.2c-3.3-1.4-6.4-3.2-9.3-5.4c-0.9-0.7-1.9,0.9-0.9,1.6
	c10.5,8.1,24.2,10.3,36.7,13.1c3.5,0.8,7,1.6,10.4,2.7c0.3,0.1,0.7,0,0.9-0.2c2.2-2.2,3.9-4.9,5.3-7.6c1.5-2.8,2.8-5.5,4.5-8.2
	s3.1-5.6,4.2-8.7c1-3,1.9-6.3,1.8-9.5c-0.1-3-1.7-5.3-4.6-6.1c-3.1-0.9-6.1,0.1-9.1,0.9c-1.7,0.4-3.3,0.7-5,0.3
	c-1.5-0.3-2.8-1-4.2-1.7c-2.7-1.5-5.4-3-7.9-4.9c-5-3.9-9.2-8.6-13.4-13.3c-4.1-4.6-8.4-9.1-12.9-13.4c-9-8.5-19-16.1-30.1-21.7
	c-5.5-2.8-11.2-5-17.2-6.6c-6.9-1.9-14.1-2.8-21.2-3.2c-3.6-0.2-7.2-0.3-10.9-0.3c-2.9,0-5.7,0.1-8.6-0.5c-4.5-1-8.1-3.7-10.3-7.8
	c-0.6-1.1-1-2.3-1.4-3.4c-0.4-1.4-0.6-2.9-1.1-4.2c-0.5-1.3-1.4-2.5-2.8-2.9c-1.3-0.4-2.7,0.1-3.3,1.3c-1.1,2,0.1,4.7,1.7,6.1
	c1.5,1.4,3.5,2.1,5.5,2.5c4.3,0.9,8.9,0.5,13.3,0c6.8-0.8,13.4-2.9,19.7-5.7c11.4-5.2,21.8-13,29-23.2c2.9-4.1,5.8-8.3,8.3-12.6
	c0.8-1.3,1.7-2.8,2.1-4.3c0-0.2,0.1-0.4,0.1-0.5C216.3,32.7,214.4,32.7,214.5,33.9z"/>
<path d="M196.9,21.3c2.4,1.4,4.8,2.9,7.2,4.3c0.7,0.4,1.2,1,1.3,1.8c0.2,1.1-0.6,2.2-1.6,2.5c-0.6,0.2-1.2,0.1-1.8-0.1
	c-0.7-0.2-1.5-0.4-2.2-0.6c-1.5-0.4-3-0.9-4.5-1.3c-1.2-0.3-1.6,1.5-0.5,1.8c1.4,0.4,2.8,0.8,4.2,1.2c0.8,0.2,1.6,0.5,2.4,0.7
	c0.8,0.2,1.6,0.4,2.4,0.2c1.6-0.3,2.9-1.5,3.3-3c0.4-1.6-0.1-3.3-1.4-4.3c-0.4-0.3-0.9-0.6-1.4-0.9c-0.8-0.5-1.5-0.9-2.3-1.4
	c-1.4-0.8-2.8-1.7-4.2-2.5C196.8,19.1,195.9,20.7,196.9,21.3z"/>
<path d="M85.2,27.6c-0.7,2.2,0,4.6,0.9,6.7c0.7,1.5,1.5,2.9,2.5,4.2c0.5,0.7,1.1,1.4,2,1.5c1.4,0.1,4.3-4,4.7-5.3
	c0.4-1.5-0.8-3.5-0.7-5.2c0.1-1.3,0.9-2.8,2.2-3.3c2.4-1,3.9,2.2,4.5,4c-0.8-2.6-0.8-5.4,0.1-8c0.6-1.9,1.7-3.8,3.4-4.9
	c3.5-2.4,10.6,0.1,12.4-4.1c2.2-5.2-2.1-9.9-6.8-11.2c-2.5-0.7-5.2-0.6-7.8-0.6c-0.8,0-1.6,0.1-2.3,0.5c-0.7,0.4-1.2,1.2-1,2
	c0.2,0.5,0.6,0.9,1.1,1.2c1.2,0.7,2.6,0.8,4,0.5c0.2-0.1,0.4-0.2,0.4-0.4c0-0.2-0.3-0.3-0.5-0.3c-2.7-0.3-5.4-0.8-8.1-0.3
	c-3.1,0.5-6,0-8.7,1.9C86.7,7,86,7.8,85.7,8.7c-0.2,1,0.2,2,1.1,2.6c0.8,0.5,2,0.5,2.8-0.1c-0.6-1-2.2-0.8-3.3-0.5
	c-1.1,0.3-2.2,0.7-3.3,1c-2.7,0.8-5.9,2-6.5,4.8C75.8,18.1,76.6,20,78,21s3.3,1.3,5.1,0.9c1.1-0.3,2.4-1.1,2.2-2.3
	c-1.9,0.4-3.9,0.9-5.5,2.1c-1.5,1.2-2.5,3.4-1.7,5.2c0.6,1.3,2,2.1,3.5,2.2c0.8,0,3.3,0.2,4-0.3c0.5-0.3,0.7-0.8,1-1.4
	c0.1-0.1,0.1-0.3,0.1-0.4c0-0.4-0.5-0.5-0.9-0.4C85.5,26.9,85.3,27.3,85.2,27.6z"/>
<path d="M84.3,27.4c-1,3.4,0.5,6.9,2.2,9.8c0.4,0.7,0.9,1.4,1.4,2.1c0.5,0.6,1,1.2,1.7,1.5c1.1,0.5,2.1,0.1,3-0.7
	c0.8-0.7,1.6-1.6,2.2-2.5c0.5-0.7,1.1-1.6,1.3-2.4c0.7-2.5-1.9-5.3,0.3-7.5c0.2-0.2,0.5-0.4,0.7-0.5c0.1-0.1,0.3-0.1,0.4-0.1
	c0.2,0-0.1,0,0,0s0.2,0,0.2,0c-0.2,0,0.2,0,0.2,0.1c0,0,0.2,0.1,0.1,0c-0.1,0,0.1,0.1,0.1,0.1c0.2,0.1,0.3,0.2,0.5,0.4
	c0.7,0.8,1.2,1.9,1.5,3s2.1,0.7,1.8-0.5c-1-3.3-0.7-7.1,1.2-10c0.4-0.6,0.9-1.2,1.5-1.7c0.2-0.2,0.4-0.3,0.6-0.4
	c0.1-0.1,0.2-0.1,0.3-0.2c0,0,0.2-0.1,0.1,0c0.1,0,0.1-0.1,0.2-0.1c1.1-0.4,2.1-0.5,3.2-0.6c2.2-0.2,4.9-0.1,6.9-1.4
	c2.4-1.6,2.9-5,2-7.6c-0.9-2.8-3.3-5.1-5.9-6.3c-1.6-0.7-3.3-1-5.1-1.2c-1-0.1-2-0.1-2.9-0.1s-1.9,0-2.8,0.1s-1.8,0.4-2.5,1.1
	c-0.6,0.7-0.9,1.6-0.7,2.5c0.5,1.8,2.9,2.5,4.5,2.5c0.8,0,2-0.1,2.5-0.7c0.3-0.4,0.3-0.9,0.1-1.4c-0.3-0.4-0.8-0.6-1.3-0.6
	c-1.9-0.2-3.9-0.5-5.9-0.5c-1,0-1.9,0.1-2.9,0.3C94.2,4,93.3,4,92.5,4.1c-1.7,0.1-3.5,0.4-5,1.1C86,6,84.4,7.2,84.3,9
	c-0.2,1.7,1.1,3.3,2.9,3.6c0.8,0.1,1.7-0.1,2.4-0.6c0.4-0.3,0.6-0.8,0.3-1.3c-1.4-2.2-4.4-0.9-6.4-0.3c-2.1,0.6-4.3,1.2-6.1,2.5
	c-1.8,1.3-2.9,3.3-2.4,5.6s2.5,4.1,4.8,4.5c1.3,0.3,2.8,0.2,4.1-0.3c1.1-0.5,2.2-1.5,2.1-2.9c-0.1-0.6-0.5-1-1.2-0.9
	c-2.2,0.5-4.5,1-6.2,2.6c-1.5,1.3-2.4,3.6-1.8,5.5c0.7,2,2.6,3.1,4.7,3.2c0.7,0,1.5,0.1,2.2,0c0.8,0,1.6-0.1,2.3-0.6
	c0.9-0.7,1.9-2.4,1-3.3c-0.5-0.5-1.2-0.6-1.8-0.3C84.8,26.2,84.5,26.8,84.3,27.4c-0.4,1.1,1.4,1.6,1.8,0.5l0.2-0.4
	c0,0-0.2,0.1-0.3,0c-0.2-0.1-0.2-0.2-0.2-0.3c-0.1-0.3,0-0.1-0.1,0c-0.1,0.2-0.2,0.4-0.3,0.6c-0.1,0.1-0.2,0.2-0.3,0.3
	c-0.1,0.1,0.1,0,0,0s-0.2,0.1-0.3,0.1c-0.1,0-0.1,0-0.2,0c0.1,0,0,0-0.1,0c-1,0.1-2.1,0.1-3.2,0c-1.2-0.2-2.4-1.1-2.6-2.3
	c-0.1-1.3,0.7-2.6,1.7-3.4c1.4-1.1,3.3-1.5,5.1-1.9c-0.4-0.3-0.8-0.6-1.2-0.9c0,0.3,0,0.4-0.2,0.7c-0.2,0.2-0.5,0.4-0.8,0.6
	c-0.8,0.3-1.7,0.4-2.5,0.2c-1.7-0.2-3.2-1.3-3.6-3c-0.9-3.5,3.5-4.9,6-5.7c1.2-0.3,2.3-0.7,3.5-1c0.4-0.1,0.8-0.2,1.2-0.1
	c0.3,0,0.5,0.1,0.6,0.3l0.3-1.3c-0.9,0.7-2.3,0.3-2.5-0.9C86.2,8,87.9,7,88.9,6.6c1.4-0.6,2.9-0.7,4.3-0.8c1.7-0.1,3.3-0.4,5-0.5
	c1,0,2,0.1,3,0.2c0.5,0.1,1,0.1,1.5,0.2c0.3,0,0.6,0.1,0.8,0.1c0.1,0,0.2,0,0.3,0c0.3,0-0.1,0.4-0.2-0.3V5c0.1-0.3,0.4-0.3,0.1-0.3
	c-0.1,0-0.3,0.1-0.4,0.1c-0.2,0-0.5,0-0.7,0c-0.5,0-1.1-0.1-1.6-0.3c-0.7-0.3-1.5-0.8-0.8-1.5s2.1-0.6,3-0.6c1.2,0,2.5,0,3.7,0.1
	c2.1,0.2,4.1,0.6,5.8,1.8c1.4,0.9,2.7,2.2,3.4,3.8c0.7,1.6,0.7,3.5-0.1,5c-0.2,0.4-0.3,0.5-0.5,0.7c-0.3,0.3-0.3,0.3-0.7,0.5
	c-0.5,0.3-1.1,0.5-1.8,0.6c-0.4,0.1-0.6,0.1-0.9,0.1c-0.4,0-0.8,0.1-1.2,0.1c-0.8,0.1-1.6,0.1-2.3,0.2c-1.5,0.1-3.1,0.4-4.4,1.2
	c-2.1,1.3-3.4,3.6-4,5.9c-0.8,2.7-0.8,5.5,0,8.2l1.8-0.5c-0.6-2-1.9-4.7-4.2-4.9c-1.4-0.1-2.7,0.8-3.4,1.9c-0.8,1.3-0.9,2.7-0.6,4.2
	c0.2,1.1,0.8,2.4,0.5,3.5c0,0.1-0.1,0.3,0,0.1c0,0.1-0.1,0.2-0.1,0.2c-0.1,0.2-0.2,0.4-0.3,0.6c-0.3,0.4-0.6,0.9-0.9,1.3
	c-0.3,0.4-0.6,0.8-1,1.1c-0.2,0.2-0.3,0.3-0.5,0.5c-0.1,0.1-0.2,0.2-0.3,0.2c-0.1,0.1,0.1-0.1,0,0c-0.1,0-0.1,0.1-0.2,0.1
	c-0.1,0.1-0.2,0.1-0.2,0.2h-0.1c-0.1,0.1,0.2,0,0,0c0,0-0.3,0.1-0.1,0c0.2,0,0,0-0.1,0c-0.6-0.2-0.9-0.7-1.3-1.1
	c-1.1-1.5-2-3.1-2.7-4.9c-0.6-1.7-1-3.4-0.5-5.2C86.4,26.7,84.6,26.2,84.3,27.4z"/>
<path d="M117.5,17c-0.7,0-1.4,0.2-2,0.6c-0.3,0.2-0.4,0.6-0.2,0.8c0.2,0.3,0.6,0.4,0.8,0.2c0.1-0.1,0.3-0.2,0.4-0.2l-0.1,0.1
	c0.3-0.1,0.6-0.2,0.9-0.2h-0.2c0.1,0,0.3,0,0.4,0c0.3,0,0.6-0.3,0.6-0.6C118.1,17.2,117.9,17,117.5,17z"/>
<path d="M111,18.4c-0.6-0.3-1.3-0.3-1.9-0.2c-0.6,0.1-1.2,0.4-1.6,0.9c-0.2,0.2-0.2,0.7,0,0.9c0.2,0.2,0.6,0.2,0.9,0l0.1-0.1
	c0,0,0,0,0.1-0.1s-0.1,0.1,0,0s0.2-0.1,0.3-0.2c0.1,0,0.1-0.1,0.2-0.1s-0.1,0,0,0h0.1c0.1,0,0.2-0.1,0.4-0.1h0.1c0,0,0.1,0,0,0
	s0,0,0,0h0.1c0.1,0,0.2,0,0.3,0h0.1c0.1,0-0.1,0,0,0s0.1,0,0.2,0s0.1,0,0.2,0c0,0,0.2,0.1,0.1,0c0.2,0.1,0.3,0.1,0.5,0.1
	c0.1,0,0.3-0.2,0.4-0.3C111.3,19,111.3,18.5,111,18.4z"/>
<path d="M115.5,30.1c-0.2,0-0.5,0-0.7,0c-0.1,0-0.1,0-0.2,0h-0.1c0.1,0,0.1,0,0,0s-0.2,0-0.3-0.1c-0.2-0.1-0.5-0.1-0.7-0.2
	c0.1,0.1,0,0,0,0c-0.1,0-0.1-0.1-0.2-0.1c-0.1-0.1-0.2-0.1-0.3-0.2c-0.3-0.2-0.7-0.1-0.8,0.2c-0.2,0.3-0.1,0.7,0.2,0.8
	c0.9,0.6,2.1,0.9,3.2,0.7c0.3,0,0.6-0.3,0.6-0.6C116.1,30.4,115.8,30.1,115.5,30.1z"/>
<path d="M110,22.5C110.1,22.5,110.1,22.5,110,22.5L110,22.5c0,0,0.1-0.1,0.2-0.1L110,22.5c0.2-0.1,0.3-0.1,0.5-0.2h-0.2
	c0.1,0,0.2,0,0.4,0h-0.2c0.1,0,0.2,0,0.3,0.1c0.1,0.1,0.3,0,0.5-0.1c0.1-0.1,0.3-0.2,0.3-0.4c0-0.2,0-0.3-0.1-0.5
	c-0.1-0.1-0.2-0.2-0.4-0.3c-0.3-0.1-0.7-0.1-1.1-0.1c-0.3,0.1-0.7,0.2-0.9,0.5c-0.1,0.1-0.2,0.3-0.2,0.4c0,0.2,0.1,0.3,0.2,0.4
	s0.3,0.2,0.4,0.2C109.8,22.7,109.9,22.6,110,22.5z"/>
<path d="M117.1,21.3c0.1-0.1,0.3-0.1,0.4-0.2l-0.1,0.1c0.2-0.1,0.5-0.2,0.7-0.2c0.1,0,0.3-0.2,0.4-0.3c0.1-0.1,0.1-0.3,0.1-0.5
	s-0.1-0.3-0.3-0.4l-0.1-0.1c-0.1,0-0.2,0-0.3,0c-0.4,0.1-0.9,0.3-1.3,0.5c-0.1,0.1-0.2,0.2-0.3,0.4c0,0.1,0,0.3,0.1,0.5
	c0.1,0.1,0.2,0.2,0.4,0.3C116.8,21.4,116.9,21.4,117.1,21.3z"/>
<path d="M222.3,201.5c-0.7,1.5-1.4,3.3-0.6,4.9c0.3,0.7,1,1.3,1.8,1.3c0.9,0,1.6-0.7,1.4-1.6c-0.1-0.5-0.6-0.7-1.1-0.6
	c-2.2,0.4-3.8,2.6-3.7,4.7c0,2.3,1.9,4,4.1,4.3c1.2,0.2,2.4-0.2,3.4-1c0.4-0.3,0.3-1,0-1.3c-0.4-0.4-0.9-0.3-1.3,0
	c-0.6,0.5-1.5,0.6-2.3,0.4c-0.8-0.2-1.6-0.7-1.9-1.5c-0.3-0.7-0.2-1.6,0.2-2.4c0.4-0.8,1.1-1.3,2-1.5c-0.4-0.2-0.8-0.4-1.1-0.7
	c0-0.3,0.1-0.6,0.3-0.7c0.1-0.1,0.2-0.1,0-0.1c0,0,0.2-0.1,0,0c0.1,0,0.1,0,0,0s-0.1,0,0,0c0,0,0.1,0.2,0,0
	c-0.1-0.3-0.3-0.6-0.3-0.9c0-0.8,0.3-1.7,0.7-2.4c0.2-0.5,0.1-1-0.3-1.3C223.1,200.9,222.5,201,222.3,201.5z"/>
<path d="M269.9,159.4c2,1.6,4.9,1.8,7,0.2c-0.4-0.5-0.8-1-1.1-1.5c-0.7,0.8-0.8,1.8-0.5,2.8c0.4,1.1,1.2,1.8,2.2,2.2
	c2.3,0.9,4.7-0.5,7.1-0.3c0.5,0,0.9-0.5,0.9-0.9c0-0.5-0.4-0.9-0.9-0.9c-1.9-0.2-3.8,0.8-5.7,0.6c-0.6-0.1-1.3-0.3-1.6-0.8
	c-0.1-0.2-0.3-0.5-0.3-0.7s0-0.3,0-0.4c0-0.1,0.1-0.2,0.1-0.2c0.3-0.4,0.4-0.8,0.1-1.2c-0.3-0.3-0.8-0.5-1.2-0.2
	c-1.3,1-3.3,1.2-4.7,0.1c-0.4-0.3-0.9-0.4-1.3,0C269.6,158.4,269.5,159.1,269.9,159.4z"/>
</svg>
