<?xml version="1.0" encoding="utf-8"?>
<!-- Generator: Adobe Illustrator 27.2.0, SVG Export Plug-In . SVG Version: 6.00 Build 0)  -->
<svg version="1.1" id="Ebene_1" xmlns="http://www.w3.org/2000/svg" xmlns:xlink="http://www.w3.org/1999/xlink" x="0px" y="0px"
	 viewBox="0 0 327 247" style="enable-background:new 0 0 327 247;" xml:space="preserve">
<style type="text/css">
	.st0{clip-path:url(#SVGID_00000176023884687337244230000006442108895543719615_);}
	.st1{fill:#641AE6;}
	.st2{fill:#FACC15;}
	.st3{fill:#1D232A;}
</style>
<g>
	<defs>
		<rect id="SVGID_1_" y="0" width="327" height="246.1"/>
	</defs>
	<clipPath id="SVGID_00000155122548332755707090000009913241078328859266_">
		<use xlink:href="#SVGID_1_"  style="overflow:visible;"/>
	</clipPath>
	<g style="clip-path:url(#SVGID_00000155122548332755707090000009913241078328859266_);">
		<path class="st1" d="M209.5,223.7c-0.1-1.8-0.7-3.7-2.1-5c-1.5-1.3-3-1.9-5-2.1c-1.7-0.2-3.4-0.3-5.1-0.5
			c-4.6-0.4-9.3-0.8-13.9-1.2c-6.9-0.6-13.7-1.2-20.6-1.8c-8.4-0.7-16.7-1.5-25.1-2.2c-9.2-0.8-18.3-1.6-27.5-2.4
			c-9.3-0.8-18.5-1.6-27.8-2.5c-8.6-0.8-17.3-1.5-25.9-2.3c-6-0.5-12-1.1-18-1.6c3.7-1.7,7.4-3.3,11-5c9.9-4.5,19.7-8.9,29.6-13.4
			c8.6-3.9,17.2-7.8,25.7-11.6c4.1-1.9,8.4-3.6,12.5-5.6c0.1,0,0.1-0.1,0.2-0.1c0.5-0.4,1-0.7,1.4-1.1c0.7-0.6,1.2-1.4,1.5-2.3
			c0.6-1.4,0.8-3.1,0.4-4.6c-1-3-3.6-5.1-6.8-5.2c-2.8-0.1-5.6-0.2-8.4-0.3c-6.8-0.2-13.6-0.4-20.4-0.6c-8.2-0.3-16.4-0.5-24.5-0.8
			c-7.1-0.2-14.2-0.4-21.3-0.7c-3.4-0.1-6.9-0.3-10.3-0.3c0,0-0.1,0-0.1,0c-3.7-0.1-7.3,3.3-7.1,7.1c0.2,3.9,3.1,7,7.1,7.1
			c2.8,0.1,5.6,0.2,8.4,0.3c6.8,0.2,13.6,0.4,20.4,0.6c8.2,0.3,16.4,0.5,24.5,0.8c0.4,0,0.7,0,1.1,0c-2.6,1.2-5.2,2.3-7.8,3.5
			c-9.9,4.5-19.7,8.9-29.6,13.4c-8.6,3.9-17.2,7.8-25.7,11.6c-4.1,1.9-8.4,3.6-12.5,5.6c-0.1,0-0.1,0.1-0.2,0.1
			c-0.5,0.4-1,0.7-1.4,1.1c-0.7,0.6-1.2,1.4-1.5,2.3c-0.6,1.4-0.8,3.1-0.4,4.6c0.4,1.2,1,2.2,1.8,3.1c1.3,1.4,3.2,1.9,5,2.1
			c1.7,0.2,3.4,0.3,5.1,0.5c4.6,0.4,9.3,0.8,13.9,1.2c6.9,0.6,13.7,1.2,20.6,1.8c8.4,0.7,16.7,1.5,25.1,2.2
			c9.2,0.8,18.3,1.6,27.5,2.4c9.3,0.8,18.5,1.6,27.8,2.5c8.6,0.8,17.3,1.5,25.9,2.3c7.3,0.6,14.6,1.3,21.9,1.9
			c5.2,0.5,10.5,0.9,15.8,1.4c2.5,0.2,5,0.5,7.5,0.7c0.1,0,0.2,0,0.3,0c1.7,0.2,3.8-0.9,5-2.1C208.7,227.5,209.6,225.5,209.5,223.7z
			"/>
		<path class="st2" d="M245.3,14.4l81.7,34l-82.6,20L245.3,14.4z"/>
		<path class="st1" d="M241.6,246.1c24.3,0,44-8.5,44-19c0-10.5-19.7-19-44-19s-44,8.5-44,19C197.7,237.6,217.3,246.1,241.6,246.1z"
			/>
		<path class="st1" d="M30.1,221.6c16.6,0,30.1-5.8,30.1-13c0-7.2-13.5-13-30.1-13S0,201.3,0,208.5C0,215.7,13.5,221.6,30.1,221.6z"
			/>
		<path class="st3" d="M30.1,214.8c8,0,14.4-2.8,14.4-6.2c0-3.4-6.4-6.2-14.4-6.2s-14.4,2.8-14.4,6.2
			C15.7,212,22.2,214.8,30.1,214.8z"/>
		<path class="st1" d="M101.8,172c13.7,0,24.9-4.8,24.9-10.8c0-5.9-11.1-10.8-24.9-10.8c-13.7,0-24.9,4.8-24.9,10.8
			C76.9,167.2,88.1,172,101.8,172z"/>
		<path class="st3" d="M101.8,165.4c5.3,0,9.6-1.9,9.6-4.2c0-2.3-4.3-4.2-9.6-4.2c-5.3,0-9.6,1.9-9.6,4.2
			C92.2,163.6,96.5,165.4,101.8,165.4z"/>
		<path class="st3" d="M269.7,227c0,0.1,0,0.2,0,0.4c0-0.3,0,0.1,0,0.2c0,0.1-0.1,0.2-0.1,0.3c-0.1,0.1,0.1-0.1,0,0
			c0,0.1-0.1,0.1-0.1,0.2c-0.1,0.1-0.1,0.2-0.2,0.3c0,0-0.1,0.1-0.1,0.1c0,0,0,0.1-0.1,0.1c0,0,0.1-0.1,0,0
			c-0.2,0.2-0.4,0.4-0.6,0.7c-0.1,0.1-0.2,0.2-0.4,0.3c-0.1,0-0.1,0.1-0.2,0.1c0.1-0.1-0.1,0.1-0.1,0.1c-0.3,0.2-0.6,0.4-0.9,0.6
			c-0.7,0.4-1.5,0.8-2.2,1.1c-4.1,1.7-8.8,2.6-13.3,3.1c-5.8,0.6-11.7,0.7-17.5,0.2c-4.8-0.4-9.6-1.2-14.1-2.8
			c-1.5-0.6-3-1.2-4.4-2.2c0,0-0.2-0.1-0.1-0.1c0.1,0.1-0.1-0.1-0.1-0.1c-0.1-0.1-0.3-0.2-0.4-0.3c-0.2-0.2-0.4-0.4-0.6-0.6
			c0,0,0.1,0.1,0,0c0-0.1-0.1-0.1-0.1-0.2c-0.1-0.1-0.1-0.2-0.2-0.4c0,0,0-0.1-0.1-0.1c-0.1-0.2,0,0.1,0,0c0-0.1-0.1-0.2-0.1-0.4
			c0-0.1-0.1-0.4,0-0.1c0-0.1,0-0.3,0-0.4c0-0.1,0-0.2,0-0.3c0,0.2,0,0.1,0,0c0-0.1,0-0.1,0-0.2c0-0.1,0.1-0.2,0.1-0.3
			c0-0.1-0.1,0.1,0,0c0-0.1,0.1-0.1,0.1-0.2c0.1-0.1,0.1-0.2,0.2-0.3c0-0.1,0.1-0.1,0.1-0.2c0.1-0.2-0.1,0.1,0.1-0.1
			c0.2-0.2,0.4-0.4,0.6-0.6c0.1-0.1,0.2-0.2,0.3-0.3c0,0,0.2-0.2,0.1-0.1c-0.1,0,0.1-0.1,0.2-0.1c0.6-0.4,1.3-0.8,2-1.2
			c3.8-1.9,8.3-2.8,12.6-3.4c5.7-0.8,11.6-0.9,17.3-0.6c5,0.3,10,1,14.8,2.5c1.7,0.5,3.3,1.2,4.9,2.1c0.3,0.2,0.6,0.4,0.9,0.6
			c0,0,0.2,0.2,0.1,0.1c0.1,0.1,0.1,0.1,0.2,0.2c0.1,0.1,0.2,0.2,0.4,0.3c0.2,0.2,0.4,0.4,0.6,0.6c0.1,0.1-0.1-0.1,0,0
			c0,0,0,0,0.1,0.1c0,0.1,0.1,0.1,0.1,0.2c0.1,0.1,0.1,0.2,0.2,0.3c0,0.1,0.1,0.1,0.1,0.2c0.1,0.1-0.1-0.2,0,0
			c0,0.1,0.1,0.2,0.1,0.3c0,0.1,0.1,0.5,0,0.2C269.7,226.8,269.7,226.9,269.7,227c0,1.1,1.7,1.1,1.7,0c0-3-3.3-4.8-5.6-5.9
			c-4.4-2-9.3-2.8-14-3.4c-6.1-0.7-12.2-0.8-18.3-0.2c-5,0.4-10,1.2-14.7,3c-1.7,0.6-3.3,1.4-4.7,2.5c-1,0.8-1.9,1.8-2.2,3.1
			c-0.7,2.9,2.1,5,4.3,6.2c4,2.1,8.6,3.1,13.1,3.7c6,0.9,12.2,1.1,18.2,0.7c5.2-0.3,10.5-1,15.5-2.7c1.8-0.6,3.5-1.3,5.1-2.3
			c1.1-0.7,2.3-1.7,2.9-2.9c0.3-0.6,0.4-1.1,0.4-1.8C271.4,225.9,269.7,225.9,269.7,227z"/>
		<path class="st3" d="M241.6,230.6c6.3,0,11.3-1.6,11.3-3.5c0-1.9-5.1-3.5-11.3-3.5s-11.3,1.6-11.3,3.5
			C230.2,229,235.3,230.6,241.6,230.6z"/>
		<path d="M238.6,10.2h6.7v208c0,1.9-1.5,3.4-3.4,3.4c-1.9,0-3.4-1.5-3.4-3.4V10.2z"/>
		<path d="M238.1,100.9c-5,2.7-8.1,7.6-12.4,11.2c-2.3,1.9-4.9,3.3-7.9,3.7c-3.5,0.5-7.1-0.3-10.2-1.8c-6.8-3.3-11.4-9.7-15.7-15.7
			c-2-2.8-4-5.8-6.1-8.6c-1.8-2.5-3.7-4.9-5.5-7.4c-1.7-2.5-3.3-5.2-4-8.1c-0.3-1.3-0.7-3.1,0-4.4c0.1-0.2,0.7-1.2,1.1-1.1
			c-0.1,0,0.2,0.5,0.3,0.7c0.2,0.8,0.3,1.7,0.3,2.6c0.1,1.9,0.2,3.7,0.4,5.5c0.4,3.9,0.8,7.9,1.5,11.8c2.7,15.9,8.7,30.9,13.7,46.1
			c5.2,15.7,9.3,31.8,12.4,48.1c1.6,8.3,3,16.7,4.5,25c0.3,1.7,0.5,3.4,1.3,4.9c0.8,1.5,2.2,2.1,3.5,3.1c2.5,2,3.1,6.3,0.6,8.6
			c-1,0.9-2.2,1.4-3.3,1.9c-1.6,0.8-3.1,1.6-4.6,2.4c-3.1,1.6-6.2,3-9.5,3.9c-3.5,1-7.4,1.5-11,0.8c-3.6-0.7-6-3.7-7.5-6.8
			c-2.8-5.9-3.3-12.9-3.6-19.4c-0.2-4-0.2-7.9-0.5-11.9c-0.3-3.8-0.6-7.5-1-11.3c-1.5-12.8-4-25.4-6.8-37.9
			c-0.9-4.1-1.9-8.3-2.5-12.5c-0.2-1.3-0.4-2.6-0.4-3.9c0-0.8,0.1-1.5,0.3-2c-0.1,0.1,0.1-0.1,0,0c0.1-0.1-0.1,0,0.2-0.1
			c-0.2,0,0.1,0,0.1,0c0.3,0.1,0.1,0,0.3,0.1c0.5,0.3,1,1.1,1.4,1.9c1.4,2.8,1.9,6.1,2.3,9.1c1.5,10,1.2,20.3-0.2,30.3
			c-0.8,5.5-2,11-3.7,16.3c-0.9,2.6-1.9,5.1-3.1,7.6c-1.4,2.8-3.1,5.4-4.5,8.2c-2.6,5.1-4.6,10.6-5,16.4c-0.2,3.6,0.4,7.1,0.8,10.7
			c0.3,2.7,0.3,5.4-1.5,7.7c-3.2,4.1-9,3.2-13.4,1.9c-3.1-0.9-6.1-2.1-9-3.5c-1.4-0.6-2.7-1.3-4.1-2c-1.3-0.7-2.8-1.4-3.8-2.4
			c-2.1-2.1-3-5.2-2.3-8.1c0.4-1.8,1.6-3.3,2.5-4.9c0.9-1.7,1.7-3.4,2.5-5.1c1.6-3.4,3.1-6.9,4.8-10.3c1.6-3.3,3.2-6.5,4.6-9.8
			c2.8-6.6,4.8-13.7,3.9-21c-1-7.3-4.1-14-6.4-20.9c-1.2-3.5-2.3-7.1-2.8-10.8c-0.6-4-0.8-8.1-0.7-12.2c0.1-8.2,1.4-16.4,3.7-24.3
			c2.2-7.5,5.1-15.2,4.5-23.1c-0.2-2.4-0.4-7-3.4-7.7c-3.2-0.8-4.8,3.4-4.5,5.9c0.4,3.3,3,5.7,5.7,7.4c2.8,1.9,5.9,3.2,9.2,3.6
			c1.5,0.2,3.1,0.1,4.6-0.2c1.7-0.4,3.1-1.2,4.5-2.1c1.2-0.7,3.6-1.9,4.6-0.2c0.8,1.3-0.1,3.2-0.7,4.3c-0.3,0.6,0.1,1.2,0.7,1.3
			c3.1,0.2,6.2,0.3,9.4,0.6c1,0.1,2.5,0.3,2.6,1.5c0.1,0.9-0.5,1.9-1.4,2c-0.9,0.1-1.2,1.4-0.2,1.7c2,0.6,1.7,3.1-0.3,3.4
			c-0.9,0.1-0.7,1.4,0,1.6c2,0.7,1.5,3.3-0.4,3.7c-0.9,0.2-0.7,1.7,0.2,1.7c1.4-0.1,1.2,2,0.4,2.6c-1.2,1-3.1,0.8-4.5,0.8
			c-2.3-0.1-4.7-0.2-7-0.4c-5.2-0.4-10.4-0.9-15.6-1.8c-10.3-1.7-20.8-4.7-29.3-10.9c-9.3-6.9-15.9-19.4-11.1-30.9
			c4.5-10.8,15.7-18.4,27-20c4.5-0.7,9.3-0.9,13.5-2.8c1.9-0.8,3.6-2,4.9-3.7c1.6-2.2,2.2-4.8,2.3-7.5c0.1-2,0-4.1,0-6.1
			c0-0.9,0.1-1.8,0-2.7c0-0.9-0.1-1.9,0-2.8c0.3-1.9,1.4-3.6,2.5-5.1c1-1.5,2.2-2.8,3.9-3.5c5.7-2.5,12.7-0.1,16.1,5
			c2.3,3.5,3.5,8.1,2.4,12.2c-0.5,1.9-1.6,3.7-3.3,4.9c-0.9,0.7-2,1.2-3.1,1.5c-1.3,0.4-2.5,0.8-3.3,2c-1.6,2.7,1.3,4.9,3.7,5.3
			c1.4,0.3,2.8,0.2,4.1,0.3c1.7,0.1,3.5,0.6,5.2,1.1c6.9,2.1,12.6,6.6,17.4,11.9c2.4,2.7,4.5,5.7,6.6,8.7c2.2,3.2,4.4,6.4,6.5,9.7
			c2.1,3.3,4.1,6.6,5.8,10.1c0.9,1.7,1.7,3.5,2.1,5.4c0.1,0.3,0.4,1.2-0.2,1.1c-0.3,0-0.7-0.7-0.8-1c-0.4-0.7-0.7-1.6-0.7-2.4
			c-0.2-3.6,2.6-6.8,4.9-9.2c2.4-2.6,5.1-4.8,8.1-6.5c3.1-1.8,6.5-3.1,9.5-5c1.6-1,3.1-2,4.5-3.1c0.7-0.5,1.4-1.2,2.3-1.2
			c0.7,0,1.5,0.4,1.8,1.1c0.9,1.7-1.4,3.2-2.4,4.3c-0.5,0.5-0.1,1.4,0.6,1.5c2.7,0.1,5.4,0,8.1,0.2c2.7,0.2,2.5,3.3,2.5,5.3
			c0,1.1,0,2.8-1.5,2.6c-1.1-0.1-1.1,1.6,0,1.7c3.5,0.4,3.2-4.3,3.2-6.5c-0.1-2.3-1.5-4.6-3.9-4.8c-1.2-0.1-2.5-0.1-3.8-0.1
			c-1.5,0-3.1-0.1-4.6-0.1l0.6,1.5c1.3-1.3,3.1-2.6,3.1-4.6c0-3.2-3.7-4.6-6-2.8c-3.3,2.5-6.7,4.7-10.5,6.5
			c-3.4,1.6-6.6,3.4-9.5,5.8c-2.8,2.3-5.5,5.2-7.3,8.4c-1.6,2.8-2.1,6.6,0.2,9.3c0.9,1.1,2.7,1.8,3.5,0.2c0.7-1.4-0.2-3.7-0.7-5
			c-1.5-3.9-3.7-7.6-5.9-11.1c-2.3-3.7-4.7-7.3-7.1-10.8c-2.2-3.1-4.4-6.3-6.9-9.2c-4.9-5.9-11-10.8-18.4-13.2
			c-1.8-0.6-3.6-1.1-5.5-1.3c-1.6-0.2-3.3,0-4.9-0.4c-1.6-0.4-3.6-2.1-1.5-3.4c1.1-0.7,2.6-0.8,3.8-1.4c4.2-2.2,6.1-6.9,5.7-11.5
			c-0.3-4.7-2.5-9.4-6.2-12.3c-5.4-4.2-14.4-4.7-18.9,1c-1.2,1.5-2.3,3.2-3,5c-0.7,1.9-0.5,3.7-0.5,5.7c-0.1,4,0.6,8.5-0.8,12.3
			c-1.8,4.8-7.2,6.3-11.7,7.1c-5.1,0.9-10.2,1.1-15,3.1c-6.3,2.6-12,6.6-16.1,12c-2.1,2.7-3.7,5.6-4.8,8.8
			c-1.2,3.6-1.2,7.4-0.6,11.1c1,6,4.2,11.6,8.4,15.9c8,8.2,19.3,12.2,30.3,14.4c5.6,1.2,11.4,1.9,17.1,2.4c2.7,0.2,5.4,0.4,8,0.5
			c2.6,0.1,6.5,0.8,8.3-1.7c1.3-1.7,0.4-5.2-2.1-5l0.2,1.7c3.7-0.8,3.8-5.7,0.4-7v1.6c3.7-0.6,3.8-5.7,0.3-6.7l-0.2,1.7
			c2.7-0.3,4.2-3.8,2.2-5.8c-1.3-1.3-3.4-1.2-5.1-1.3c-2.6-0.2-5.1-0.3-7.7-0.5l0.7,1.3c1.3-2.3,2.2-6-0.8-7.4
			c-3.3-1.5-6.3,2.1-9.3,2.9c-3.6,0.9-7.5-0.2-10.7-2c-3-1.6-6.9-4.2-6.9-7.9c0-1.3,1.4-4.9,3.1-3c1.1,1.3,1.3,3.6,1.4,5.2
			c0.3,4.2-0.3,8.4-1.4,12.4c-1,4.1-2.4,8.1-3.5,12.1c-1.1,4.1-2,8.2-2.5,12.4c-1.1,8.2-1.2,16.6,0.1,24.8c1.3,7.6,4.7,14.7,7,22
			c1.2,3.6,2.1,7.4,2.2,11.2c0.1,3.9-0.6,7.7-1.8,11.4c-2.3,7.3-6.1,13.9-9.3,20.8c-1.7,3.7-3.2,7.4-5.2,10.9
			c-0.9,1.6-1.9,3-2.3,4.7c-0.3,1.4-0.3,2.8,0,4.2c0.6,2.9,2.5,5.4,5,6.8c2.8,1.6,5.7,3,8.6,4.2c5.1,2.2,11.5,4.7,17.2,3.4
			c3.5-0.8,6.3-3.9,6.9-7.4c0.6-3.1-0.3-6.2-0.6-9.3c-0.5-4.7-0.1-9.4,1.3-13.9c1.1-3.5,2.6-6.8,4.4-9.9c1.5-2.6,3-5.1,4.2-7.8
			c2.3-5.2,3.9-10.8,5.1-16.4c2.2-10.7,2.8-21.9,1.8-32.8c-0.4-3.9-0.9-7.8-2-11.5c-0.6-1.8-1.5-4.7-3.5-5.3
			c-5.2-1.6-2.1,10.4-1.8,12.1c2.3,11.6,5.1,23,6.9,34.7c1.2,7.7,2.2,15.4,2.7,23.2c0.5,7.3,0.3,14.7,1.5,21.9
			c1,6.1,3.3,14.3,9.8,16.6c3.4,1.2,7.5,0.8,10.9,0.2c3.4-0.6,6.7-1.9,9.8-3.4c3-1.4,6.1-2.9,9-4.6c2.5-1.4,4.1-3.8,3.9-6.7
			c-0.1-1.6-0.7-3.1-1.6-4.4c-1.1-1.4-2.8-1.9-3.9-3.3c-1.2-1.5-1.4-3.8-1.7-5.7c-0.4-2.1-0.8-4.3-1.2-6.4
			c-1.5-8.6-2.9-17.2-4.8-25.7c-1.8-8.4-3.9-16.8-6.2-25.1c-2.3-8.1-4.9-16.1-7.6-24.1c-2.7-7.9-5.5-15.8-7.7-23.9
			c-2.3-8.2-3.6-16.5-4.5-25c-0.2-1.9-0.3-3.8-0.4-5.7c0-0.9-0.1-1.8-0.3-2.7c-0.2-0.8-0.6-1.7-1.4-2c-0.9-0.4-1.9,0.3-2.5,1
			c-2,2.2-1.2,5.7-0.3,8.1c1.1,3,2.8,5.7,4.7,8.4c1.8,2.5,3.7,4.9,5.5,7.4c2.3,3.2,4.4,6.4,6.8,9.6c4.4,5.9,9.2,11.9,16.3,14.7
			c6.2,2.5,12.8,1.7,18-2.5c4.4-3.5,7.4-8.6,12.5-11.3C239.9,101.9,239.1,100.4,238.1,100.9z"/>
		<path d="M165.8,38.2c-3.2,0.8-3.8,0.6-5.1,0.5c-1.4-0.1-2.7-0.4-3.8-1.3c1.7,1.5,3.3,3.8,6.5,4.3
			C163.4,41.7,161.6,38.7,165.8,38.2z"/>
		<path d="M165.6,37.4c-1.4,0.3-2.5,0.6-3.9,0.6c-1.5-0.1-3-0.1-4.2-1.1c-0.4-0.3-0.9-0.3-1.2,0c-0.3,0.3-0.3,0.9,0,1.2
			c0.9,0.8,1.8,1.8,2.8,2.6c1.2,1,2.6,1.7,4.1,1.9c0.7,0.1,1.4-0.6,1-1.2c0,0,0-0.1-0.1-0.1c0,0-0.1-0.2,0-0.1c0.1,0.2,0,0,0-0.1
			c0-0.1-0.1-0.3-0.1-0.4c-0.1-0.3,0,0.1,0-0.1c0-0.1,0-0.2,0-0.3c0-0.2-0.1,0.1,0-0.1c0-0.1,0-0.2,0.1-0.3c-0.1,0.2,0,0,0.1-0.1
			c0.1-0.2-0.1,0.1,0,0c0,0,0.1-0.1,0.1-0.1c0,0,0.2-0.2,0.1-0.1c0,0,0.1-0.1,0.1-0.1c0.1,0,0.1-0.1,0.2-0.1c0.1-0.1,0,0,0.1,0
			c0.3-0.1,0.7-0.2,1.1-0.3c0.5-0.1,0.9-0.4,0.9-0.9c0-0.4-0.4-0.9-0.9-0.9c-1.5,0.2-3.3,0.8-3.6,2.5c-0.1,0.8,0.1,1.6,0.4,2.3
			l1-1.2c-1.3-0.2-2.5-0.8-3.5-1.6c-0.9-0.8-1.7-1.7-2.6-2.4l-1.2,1.2c0.9,0.7,1.9,1.2,3,1.4c0.7,0.1,1.5,0.2,2.2,0.2
			c1.5,0.1,3-0.3,4.5-0.6C167.1,38.8,166.6,37.1,165.6,37.4z"/>
		<path d="M238.1,79.5c-1.9,0.1-3.2,1.7-3.2,3.5c0,1.8,1.3,3.5,3.2,3.5v-1.7c-1.9,0.1-3.2,1.7-3.2,3.5c0,1.8,1.3,3.5,3.2,3.5v-1.7
			c-1.7,0-3,1.5-3.1,3.2c-0.2,1.6,0.8,3.4,2.4,3.8c0.5,0.1,1,0.1,1.4,0.1h2.3c3.3,0,6.6,0.1,10,0c1.8,0,3-1.6,3.2-3.3
			c0.1-1.9-1.2-3.7-3.2-3.8v1.7c1.9-0.1,3.2-1.7,3.2-3.5c0-1.8-1.3-3.5-3.2-3.5v1.7c1.9-0.1,3.2-1.7,3.2-3.5c0-1.8-1.3-3.5-3.2-3.5
			c-1.1,0-1.1,1.7,0,1.7c1.9,0.1,1.9,3.6,0,3.7c-1.1,0-1.1,1.7,0,1.7c1.9,0.1,1.9,3.6,0,3.7c-1.1,0-1.1,1.7,0,1.7
			c1.9,0.1,1.9,3.7-0.1,3.7c-1.1,0-2.2,0-3.3,0h-9.4c-0.7,0-1.2-0.3-1.5-1c-0.5-1.1,0.1-2.7,1.3-2.7c1.1,0,1.1-1.7,0-1.7
			c-1.9-0.1-1.9-3.6,0-3.7c1.1,0,1.1-1.7,0-1.7c-1.9-0.1-1.9-3.6,0-3.7C239.1,81.1,239.1,79.4,238.1,79.5z"/>
		<path d="M247.6,74.1c-3,0-6,0-9,0c-0.6,0-1.2,0-1.8,0.3c-1.4,0.6-2.1,2.3-1.9,3.7c0.2,1.5,1.3,2.9,2.9,3c0.5,0,1,0,1.5,0h5.1
			c1.1,0,1.1-1.7,0-1.7h-6.2c-0.7,0-1.2-0.2-1.5-0.9c-0.4-0.9-0.2-2.3,0.7-2.7c0.3-0.2,0.7-0.1,1.1-0.1h4.9c1.3,0,2.7,0,4,0
			C248.7,75.8,248.7,74.1,247.6,74.1z"/>
		<path d="M238,86.5h6.5c1.1,0,1.1-1.7,0-1.7H238C236.9,84.8,236.9,86.5,238,86.5z"/>
		<path d="M238.1,91.9h6.5c1.1,0,1.1-1.7,0-1.7h-6.5C237,90.2,237,91.9,238.1,91.9z"/>
		<path d="M159,107.8c2.6,0.2,5.1,0.4,7.7,0.5c0.4,0,0.7,0.1,1.1,0.1c0.5,0,0.9-0.4,0.9-0.9c0-0.5-0.4-0.8-0.9-0.9
			c-2.6-0.2-5.1-0.4-7.7-0.5c-0.4,0-0.7-0.1-1.1-0.1c-0.5,0-0.9,0.4-0.9,0.9C158.2,107.4,158.5,107.8,159,107.8z"/>
		<path d="M159,102.7c2.6,0.2,5.1,0.4,7.7,0.5c0.4,0,0.7,0.1,1.1,0.1c0.5,0,0.9-0.4,0.9-0.9c0-0.5-0.4-0.8-0.9-0.9
			c-2.6-0.2-5.1-0.4-7.7-0.5c-0.4,0-0.7-0.1-1.1-0.1c-0.5,0-0.9,0.4-0.9,0.9C158.2,102.3,158.6,102.7,159,102.7z"/>
		<path d="M159.9,97.5c2.6,0.2,5.1,0.4,7.7,0.5c0.4,0,0.7,0.1,1.1,0.1c0.5,0,0.9-0.4,0.9-0.9c0-0.5-0.4-0.8-0.9-0.9
			c-2.6-0.2-5.1-0.4-7.7-0.5c-0.4,0-0.7-0.1-1.1-0.1c-0.5,0-0.9,0.4-0.9,0.9C159,97.1,159.4,97.4,159.9,97.5z"/>
		<path d="M241.9,11.4c1.9,0,3.4-0.5,3.4-1.2c0-0.7-1.5-1.2-3.4-1.2c-1.9,0-3.4,0.5-3.4,1.2C238.5,10.9,240.1,11.4,241.9,11.4z"/>
		<path d="M149.3,216c-1.1,0.2-2,1.1-2.4,2.1c-0.5,1.1-0.5,2.4,0,3.5c0.5,1.1,1.3,2.1,2.4,2.6c1.3,0.6,2.8,0.1,3-1.4
			c0-0.3-0.3-0.8-0.6-0.8c-1.2-0.2-2.2,0.3-2.8,1.3c-0.6,1-0.8,2.1-0.6,3.2c0.3,2.2,2,4.1,4.1,4.9c0.4,0.1,0.9-0.2,1-0.6
			c0.1-0.5-0.2-0.9-0.6-1c-1.4-0.5-2.5-1.8-2.8-3.2c-0.2-0.6-0.2-1.3,0.1-1.9c0.2-0.5,0.7-1.1,1.2-1l-0.6-0.8c0-0.2,0.1-0.1,0,0
			c-0.1,0-0.1,0-0.2,0c-0.3-0.1-0.6-0.4-0.9-0.6c-0.5-0.5-0.9-1.1-1.1-1.8c-0.3-1.1,0.2-2.5,1.5-2.8
			C150.8,217.4,150.3,215.8,149.3,216z"/>
		<path d="M207.3,209.2c-0.1-1.2-1.5-1.8-2.5-1.2c-1.1,0.6-1.1,2.2-1.1,3.3c0,1.3,0.3,2.6,1.2,3.6c0.7,0.9,2,1.4,3.1,1
			c1.5-0.5,1.7-2.6,0.2-3.2c-0.3-0.1-0.6,0-0.8,0.2c-1.3,1.3-0.9,3.5,0.3,4.7c1.6,1.5,4.1,1.2,6,0.7c1.1-0.3,0.6-1.9-0.5-1.6
			c-1.3,0.3-3.1,0.7-4.2-0.2c-0.4-0.3-0.7-0.8-0.8-1.3c-0.1-0.4,0-0.8,0.3-1.2l-0.8,0.2c0,0-0.2-0.1-0.2-0.1c0,0,0,0-0.1,0
			c-0.2,0.1-0.5,0-0.7-0.1c-0.6-0.3-1-0.9-1.1-1.5c-0.2-0.8-0.2-1.7-0.1-2.6c0-0.2,0.1-0.6,0.2-0.6c0,0,0.1-0.1,0.1,0
			c0.1,0,0.1,0.1,0,0c-0.1-0.1-0.1-0.1-0.1-0.3C205.7,210.3,207.4,210.3,207.3,209.2z"/>
		<path d="M152.2,22.3c-1.1,0.3-1.9,1.2-2.1,2.3c-0.1,0.9,0.2,1.8,0.6,2.6c0.8,1.4,2.4,2.5,2.1,4.3c-0.2,1-0.9,2-1.8,2.4
			c-0.9,0.4-2.1,0.1-2.3-0.8c0,0.7-0.5,1.2-1.2,1.4c-0.6,0.2-1.3,0-1.9-0.3c-0.3-0.2-0.6-0.6-0.7-1c-0.1-0.4,0-0.9,0.1-1.3
			c0.4-2.7-0.7-5.4-1.6-8c-1-2.6-1.8-5.5-0.7-8c0.3-0.7,0.7-1.3,1.3-1.7c0.6-0.4,1.4-0.5,2.1-0.3c-0.3-0.5-0.7-0.9-0.9-1.5
			c-0.2-0.5-0.1-1.3,0.5-1.5c0.7-0.2,1.2,0.6,1.4,1.2c0-0.8,0.2-1.6,0.5-2.3c0.1-0.2,0.2-0.4,0.4-0.5c0.4-0.2,1,0.2,1.1,0.6
			c0.1,0.5-0.1,1-0.3,1.4c4.4-3.8,9.9-6.3,15.7-7.5c2.3-0.5,4.8-0.8,7.1-0.1c0.9,0.3,1.8,0.8,2.2,1.7c0.4,0.9-0.2,2.1-1.2,2.1
			c1.2-0.4,2.6,0.1,3.2,1.1c0.7,1,0.6,2.5-0.1,3.5c-0.7,1-2.1,1.5-3.3,1.3c1.3,0.2,2.4,1.4,2.5,2.7c0.1,0.5,0,1.1-0.3,1.5
			c-0.2,0.3-0.6,0.5-1,0.6c-2.3,0.8-3.8-0.7-5.9-0.7c-2.6,0-5.1,0.5-7.5,1.6c-0.7,0.3-1.5,0.7-1.8,1.5c-0.2,0.4-0.2,0.8-0.2,1.2
			c0,2.2,0.7,4.6-0.6,6.3c0.4-0.6-1.5-3.6-1.8-4.1C155,22.8,153.8,21.8,152.2,22.3z"/>
		<path d="M152,21.4c-1.2,0.3-2.1,1.2-2.5,2.3c-0.5,1.3-0.1,2.7,0.5,3.9c0.5,0.9,1.3,1.6,1.7,2.5c0.4,0.8,0.3,1.8-0.4,2.5
			c-0.3,0.3-0.8,0.6-1.2,0.6c-0.2,0-0.4,0-0.5-0.1c-0.2-0.1-0.2-0.1-0.2-0.3c-0.3-1-1.6-0.7-1.7,0.2c-0.1,0.5-0.7,0.7-1.1,0.7
			c-0.3,0-0.5-0.2-0.7-0.3c-0.3-0.2-0.3-0.5-0.3-0.9c0.1-0.9,0.2-1.7,0.2-2.6c-0.1-0.9-0.2-1.7-0.5-2.5c-0.9-3.1-2.8-6.3-2.4-9.7
			c0.2-1.3,1.1-3.5,2.7-2.9c0.7,0.3,1.3-0.7,1-1.2c-0.2-0.3-0.5-0.7-0.7-1c-0.2-0.3-0.2-0.4-0.2-0.6c0-0.1,0.1-0.1,0,0
			c0,0-0.1,0-0.1,0c0,0,0.2,0.2,0.2,0.3c0.1,0.2,0.2,0.3,0.3,0.5c0.4,0.8,1.6,0.3,1.6-0.4c0-0.4,0.1-0.7,0.2-1.1
			c0.1-0.2,0.1-0.4,0.2-0.6c0,0,0.2-0.4,0.2-0.4c0,0-0.3,0.1-0.2,0c0,0,0.1,0.1,0.1,0.1c0,0.3-0.1,0.6-0.3,1c-0.1,0.3,0.1,0.8,0.4,1
			c0.3,0.2,0.7,0.1,1-0.1c2.9-2.5,6.2-4.3,9.7-5.7c1.8-0.7,3.6-1.2,5.5-1.6c2-0.4,4.1-0.8,6.1-0.3c0.8,0.2,1.7,0.4,2.2,1.2
			c0.2,0.3,0.2,0.5,0.1,0.8c0,0.1-0.1,0.2-0.2,0.3c0,0-0.1,0.1-0.2,0.1c0.1,0.6,0.2,1.1,0.2,1.7c1.3-0.4,2.6,0.6,2.6,1.9
			c0,1.4-1.4,2.5-2.8,2.3c-0.5-0.1-0.9,0.1-1,0.6c-0.1,0.4,0.1,0.9,0.6,1c0.8,0.2,1.5,0.7,1.8,1.5c0.1,0.3,0.2,0.6,0.1,1
			c-0.1,0.4-0.3,0.6-0.7,0.7c-1.7,0.7-3.4-0.4-5.1-0.6c-1-0.1-2.1,0-3.2,0.1c-1.2,0.2-2.3,0.4-3.4,0.8c-1,0.3-2,0.7-2.9,1.2
			c-0.9,0.6-1.5,1.5-1.5,2.6c-0.1,2,0.8,4.4-0.5,6.2c0.5,0.3,1,0.6,1.5,0.9c0.4-0.7,0-1.6-0.3-2.2c-0.3-0.8-0.7-1.5-1.2-2.2
			c-0.4-0.7-0.9-1.4-1.5-2C154.4,21.4,153.2,21.1,152,21.4c-1.1,0.3-0.6,1.9,0.5,1.6c1.5-0.4,2.4,1,3,2.1c0.4,0.6,0.7,1.2,1,1.8
			c0,0.1,0.1,0.2,0.1,0.3c0,0,0.1,0.3,0.1,0.1c0,0.1,0.1,0.2,0.1,0.4c0,0.1,0.1,0.5,0.1,0.2c0,0,0,0.1,0,0.1c0-0.1,0.1-0.3,0.1-0.2
			c-0.2,0.4-0.1,0.9,0.3,1.2c0.4,0.3,0.9,0.1,1.2-0.3c1.3-1.8,0.8-4.1,0.7-6.2c0-0.4-0.1-1,0.1-1.4c0.2-0.4,0.6-0.6,0.9-0.8
			c1-0.5,2.1-0.9,3.1-1.1c1.1-0.3,2.3-0.5,3.4-0.5c0.5,0,1.1-0.1,1.6,0c0.4,0.1,0.9,0.2,1.3,0.3c0.9,0.3,1.8,0.6,2.8,0.6
			c1,0,2.3-0.4,3-1.2c0.8-1,0.6-2.4,0.1-3.5c-0.6-1-1.6-1.8-2.7-2c-0.2,0.5-0.3,1.1-0.5,1.6c2.5,0.4,4.9-1.3,5-3.9
			c0-2.4-2.4-4.4-4.8-3.6c-0.9,0.3-0.8,1.7,0.2,1.7c1,0,1.8-0.8,2-1.7c0.3-1-0.1-1.9-0.8-2.6c-1.6-1.5-4.4-1.7-6.5-1.5
			c-2.3,0.2-4.6,0.8-6.8,1.5c-2.1,0.7-4.2,1.5-6.2,2.5c-2.2,1.2-4.3,2.6-6.2,4.2c0.5,0.3,0.9,0.6,1.4,0.8c0.3-0.7,0.5-1.6,0.1-2.3
			c-0.3-0.6-1-1-1.8-0.9c-0.7,0.2-1.1,0.8-1.3,1.4c-0.3,0.7-0.4,1.5-0.5,2.2c0.5-0.1,1.1-0.3,1.6-0.4c-0.3-0.6-0.6-1.2-1.2-1.5
			c-0.7-0.3-1.4-0.2-1.9,0.4c-0.4,0.5-0.5,1.3-0.4,1.9c0.2,0.7,0.7,1.2,1,1.8c0.3-0.4,0.6-0.8,1-1.2c-0.9-0.4-2-0.2-2.8,0.4
			c-0.8,0.6-1.3,1.5-1.7,2.4c-0.7,2-0.4,4.2,0.1,6.1c0.6,2,1.5,3.9,2,6c0.3,1,0.4,2,0.4,3c-0.1,1.1-0.5,2.1,0.3,3.1
			c0.7,0.9,1.9,1.4,3,1.2c1.2-0.2,1.9-1.2,2-2.3c-0.6,0.1-1.1,0.2-1.7,0.2c0.3,1.2,1.6,1.7,2.8,1.5c1.3-0.2,2.4-1.2,2.8-2.4
			c0.5-1.2,0.3-2.4-0.4-3.5c-0.6-1-1.5-1.8-1.9-2.9c-0.2-0.6-0.3-1.3,0-1.9c0.3-0.5,0.7-0.9,1.3-1C153.5,22.8,153,21.1,152,21.4z"/>
		<path class="st2" d="M216.1,7.9l1.8,2.2c0.1,0.2,0.4,0.2,0.6,0.2c0.2,0,0.5-0.1,0.6-0.2c0.1-0.2,0.3-0.4,0.2-0.6l0-0.2
			c0-0.1-0.1-0.3-0.2-0.4l-1.8-2.2c-0.1-0.2-0.4-0.2-0.6-0.2c-0.2,0-0.5,0.1-0.6,0.2c-0.1,0.2-0.3,0.4-0.2,0.6l0,0.2
			C216,7.7,216,7.8,216.1,7.9z"/>
		<path class="st2" d="M211.4,22.4c1.5,0.2,3,0.3,4.4,0.5c0.4,0,0.9-0.4,0.9-0.9c0-0.5-0.4-0.8-0.9-0.9c-1.5-0.2-3-0.3-4.4-0.5
			c-0.4,0-0.9,0.4-0.9,0.9C210.6,22.1,210.9,22.3,211.4,22.4z"/>
		<path class="st2" d="M227.5,1.3c0.1,1,0.3,2.1,0.4,3.1c0,0.2,0.2,0.4,0.4,0.5c0.2,0.1,0.5,0.2,0.7,0.1c0.2-0.1,0.4-0.2,0.5-0.4
			c0.1-0.2,0.1-0.4,0.1-0.7c-0.1-1-0.3-2.1-0.4-3.1c0-0.2-0.2-0.4-0.4-0.5c-0.2-0.1-0.5-0.2-0.7-0.1c-0.2,0.1-0.4,0.2-0.5,0.4
			C227.5,0.8,227.5,1,227.5,1.3z"/>
		<path class="st3" d="M261.8,41.1c1.3,1.9,2.6,3.7,4.1,5.4c0.3,0.3,0.9,0.3,1.2,0c2.8-3,5.6-6.1,8.4-9.2c0.6-0.7,1.3-1.4,1.9-2.1
			c0.8-0.8-0.4-2-1.2-1.2c-2.8,3-5.6,6.1-8.4,9.2c-0.6,0.7-1.3,1.4-1.9,2.1h1.2c-1.4-1.6-2.7-3.3-3.9-5.1
			C262.6,39.3,261.2,40.2,261.8,41.1z"/>
		<path d="M269,32.6c-3.6-2.2-8.1,0.3-10.6,3.1c-2.7,2.9-3.9,7-3,10.9c0.9,3.9,3.9,6.9,7.8,8c3.8,1,7.8-0.1,10.8-2.7
			c3.1-2.7,5.3-7.9,2.6-11.6c-0.3-0.4-0.7-0.6-1.2-0.3c-0.4,0.2-0.6,0.8-0.3,1.2c1.9,2.7,0.5,6.5-1.5,8.7c-2.2,2.4-5.5,3.8-8.7,3.3
			c-3.3-0.5-6.3-2.6-7.4-5.7c-1.2-3.2-0.6-6.8,1.3-9.5c1.1-1.5,2.5-2.7,4.1-3.6c1.6-0.8,3.6-1.2,5.3-0.2
			C269.1,34.7,269.9,33.2,269,32.6z"/>
		<path d="M168.4,23.9c-0.3,0.6-0.2,1.3,0.2,1.8c0.4,0.5,0.9,0.9,1.5,1.1c0.3,0.1,0.4,0.1,0.6,0.3c-0.1-0.1,0,0,0,0.1
			c-0.1-0.1,0.1,0.1,0,0c0,0.1,0,0.1,0,0c0,0,0,0.1,0,0.1c0-0.1,0,0.1,0,0.1c0,0.1,0,0,0,0.1c0,0,0,0.1-0.1,0.1c0,0,0,0,0,0
			c-0.1,0.1-0.1,0.1-0.3,0.2c-0.2,0.1-0.6,0.2-0.9,0.2c-0.3,0.1-0.5,0.4-0.4,0.7c0.1,0.3,0.4,0.4,0.7,0.4c0.7-0.1,1.4-0.3,1.8-0.9
			c0.4-0.6,0.4-1.4-0.2-1.9c-0.5-0.4-1.1-0.4-1.5-0.7c-0.2-0.1-0.3-0.3-0.4-0.5c0,0,0,0,0,0c0,0,0-0.1,0-0.1c0,0,0-0.1,0-0.1
			c0,0,0,0.1,0,0c0,0,0-0.2,0-0.1c0,0,0.1-0.2,0-0.1c0.1-0.3,0.1-0.6-0.2-0.8C168.9,23.6,168.5,23.6,168.4,23.9z"/>
		<path d="M164.8,31.8c0.7,0.4,1.5,0.6,2.3,0.7c0.3,0,0.6-0.3,0.6-0.6c0-0.3-0.2-0.5-0.6-0.6c-0.1,0-0.2,0-0.3,0c0.2,0,0,0,0,0
			c0,0-0.1,0-0.1,0c-0.2,0-0.3-0.1-0.5-0.1c-0.2,0-0.3-0.1-0.5-0.2c0,0-0.1,0-0.1,0c0.2,0.1,0,0,0,0c-0.1,0-0.2-0.1-0.2-0.1
			c-0.3-0.1-0.6-0.1-0.8,0.2C164.5,31.3,164.6,31.6,164.8,31.8z"/>
		<path d="M163.2,22.4c0.1-0.1,0.2-0.1,0.3-0.2c0.1,0,0,0,0,0c0,0,0.1,0,0.1,0c0.1,0,0.1,0,0.2-0.1c0.1,0,0.2-0.1,0.4-0.1
			c-0.1,0,0,0,0.1,0c0.1,0,0.1,0,0.2,0c0.1,0,0.1,0,0.2,0c0,0,0.1,0,0.1,0c0.1,0-0.1,0,0,0c0.1,0,0.2,0,0.4,0.1c0.1,0,0.1,0,0.2,0.1
			c0,0,0.1,0,0,0c-0.1,0,0,0,0,0c0.1,0.1,0.2,0.1,0.3,0.2c0.2,0.2,0.6,0.1,0.8-0.2c0.2-0.3,0.1-0.6-0.2-0.8c-1.1-0.7-2.5-0.7-3.6,0
			c-0.2,0.2-0.4,0.5-0.2,0.8C162.6,22.4,163,22.5,163.2,22.4z"/>
		<path d="M164.3,25.1c0.3,0,0.6,0,1,0l-0.2,0c0.3,0,0.6,0.1,0.8,0.2c0.3,0.1,0.6-0.1,0.7-0.4c0.1-0.3-0.1-0.6-0.4-0.7
			c-0.6-0.2-1.3-0.3-2-0.2c-0.2,0-0.3,0.1-0.4,0.2c-0.1,0.1-0.2,0.3-0.2,0.4C163.7,24.8,164,25.2,164.3,25.1z"/>
		<path d="M170.6,22.3c0.1-0.1,0.3-0.2,0.4-0.2l-0.1,0.1c0.3-0.1,0.5-0.2,0.8-0.2l-0.2,0c0.1,0,0.2,0,0.3,0c0.2,0,0.3-0.1,0.4-0.2
			c0.1-0.1,0.2-0.3,0.2-0.4c0-0.3-0.2-0.6-0.6-0.6c-0.7,0-1.3,0.2-1.8,0.6c-0.3,0.2-0.4,0.5-0.2,0.8C170,22.3,170.3,22.4,170.6,22.3
			z"/>
		<path d="M171.1,24.5c0.6-0.2,1.1-0.4,1.7-0.6c0.1,0,0.3-0.1,0.3-0.3c0.1-0.1,0.1-0.3,0.1-0.4c-0.1-0.3-0.4-0.5-0.7-0.4
			c-0.6,0.2-1.1,0.4-1.7,0.6c-0.1,0.1-0.3,0.1-0.3,0.3c-0.1,0.1-0.1,0.3-0.1,0.4C170.4,24.4,170.8,24.6,171.1,24.5z"/>
		<path class="st2" d="M250,192.9c2.9,3.3,7.5,5,11.8,4.6c1.3-0.1,2.5-0.4,3.7-0.8c1-0.4,0.6-1.9-0.5-1.6c-2.8,0.5-5,2.7-5.9,5.3
			c-0.9,2.7-0.1,5.6,1.8,7.7c1.1,1.1,2.5,2,4,2.3c1.1,0.2,1.5-1.3,0.5-1.6c-2.2-0.7-4.8,0-6.3,1.7c-1.6,1.8-2,4.4-1,6.7
			c0.2,0.4,0.8,0.5,1.2,0.3c0.4-0.3,0.5-0.7,0.3-1.2c-0.7-1.5-0.3-3.5,0.8-4.7c1.2-1.2,3-1.7,4.6-1.2c0.2-0.5,0.3-1.1,0.5-1.6
			c-2.2-0.5-4-2.1-4.6-4.2c-0.7-2.1,0-4.4,1.5-6c0.9-0.9,2-1.5,3.3-1.8c-0.2-0.5-0.3-1.1-0.5-1.6c-4.8,1.8-10.4,0.5-13.9-3.3
			C250.5,190.9,249.3,192.1,250,192.9z"/>
	</g>
</g>
</svg>
