<?xml version="1.0" encoding="utf-8"?>
<!-- Generator: Adobe Illustrator 27.2.0, SVG Export Plug-In . SVG Version: 6.00 Build 0)  -->
<svg version="1.1" id="Ebene_1" xmlns="http://www.w3.org/2000/svg" xmlns:xlink="http://www.w3.org/1999/xlink" x="0px" y="0px"
	 viewBox="0 0 327 225" style="enable-background:new 0 0 327 225;" xml:space="preserve">
<style type="text/css">
	.st0{fill:#FACC15;}
	.st1{fill:#641AE6;}
	.st2{fill:#FFFFFF;}
</style>
<path class="st0" d="M170.6,45.2C150.7,32.5,133,12.8,113.1,0l1,27.4L86.2,15.9l13.7,24.2l-30.3,7.8l14.1,15.4l-23.1,7L71.1,81
	L54.4,95.6l84.5,18.2L175,88.7L170.6,45.2z"/>
<path class="st1" d="M184.1,83.4l-48.7,28.2l-11.5-37.8c-0.5-1.5,0.2-3.1,1.5-3.9l42.7-24.7c1.9-1.1,4.3-0.1,4.9,1.9L184.1,83.4z"/>
<path class="st1" d="M182.8,92.9L116.9,131c-2.1,1.2-4.8,0-5.2-2.4l-0.1-0.6c-0.3-1.5,0.4-3,1.7-3.7l70.8-40.9l1,4.1
	C185.7,89.6,184.7,91.8,182.8,92.9z"/>
<path d="M158.9,74.8c0.5-0.9,1.1-2,1.2-2.8c-2.6-0.4-3.4,1.8-3.7,3c0,0-0.1,0-0.1,0c0,0,0,0-0.1,0c-0.8-0.8-2.7-2.3-4.7-0.6
	c0.5,0.6,1.5,1.2,2.4,1.8c-2.1,1.6-3,4.4-2.3,7c1,3.5,4.7,5.6,8.2,4.6c3.5-1,5.6-4.7,4.6-8.2C163.7,76.9,161.5,75.1,158.9,74.8z"/>
<path class="st2" d="M121.1,75.1c-2.9,1.6-5.7,3.3-8.6,4.9c-3.8,2.2-7.5,4.3-11.3,6.5c-0.4,0.2-0.8,0.5-1.3,0.6
	c-2.1,0.5-3.6-2-2.2-3.6c0.6-0.7,0-1.8-0.9-1.6c-2.1,0.4-3.5-2.1-2.1-3.7c0.6-0.7,0-1.8-0.9-1.6c-2.4,0.5-3.6-2.8-1.5-4.1
	c1-0.6,0.1-2.3-1-1.7c-2.7,1.5-5.4,3.1-8.1,4.6c-1,0.6-2.3,1.6-3.5,1.3c-1.3-0.3-2-1.7-1.5-3c0.2-0.5,0.6-0.9,1.1-1.2
	c5.5-3.5,11-7,16.4-10.4c2.1-1.3,4.2-2.7,6.3-4c0.3-0.2,0.6-0.7,0.4-1.1c-0.4-1-0.8-2-1.3-3c-0.5-1.1-1.2-2.4-1-3.6
	c0.3-2.1,2.4-3.4,4.4-2.7c1.1,0.4,1.9,1.5,2.7,2.3c0.9,0.9,1.7,1.8,2.6,2.7c0.3,0.3,0.8,0.4,1.2,0.1c1.4-1.1,2.9-2.1,4.3-3.2
	c3.7-2.7,7.5-5.3,11.4-7.8c5.4-3.5,10.9-6.8,16.4-9.9c6.3-3.5,12.7-6.8,19.4-9.6c6.5-2.8,13.1-5.1,20-6.7c6.1-1.4,12.5-2.1,18.8-1.4
	c2.7,0.3,5.5,1,8.1,2.1c3,1.3,5.8,3.2,8.2,5.4c6.2,5.6,10.4,13.1,10.9,21.6c0.5,7.6-1.7,15.1-5.4,21.7c-3.3,5.9-7.8,11.5-13.4,15.2
	c-1.2,0.8-2.4,1.5-3.7,2c-1.1,0.5-0.1,2.1,1,1.7c6.1-2.7,11-7.8,14.8-13.2c4.5-6.3,7.6-13.7,8.4-21.4c0.9-8.1-1.1-16.3-5.9-23
	c-4.3-6-10.4-10.9-17.6-13c-6-1.7-12.4-1.6-18.5-0.8c-7,1-13.8,3-20.3,5.5c-6.9,2.6-13.6,5.7-20.2,9.2c-6,3.2-12,6.6-17.7,10.2
	c-4.5,2.8-8.9,5.7-13.2,8.8c-2.2,1.5-4.3,3-6.4,4.6c-0.1,0.1-0.2,0.1-0.3,0.2c0.4,0,0.8,0.1,1.2,0.1c-0.9-0.9-1.7-1.8-2.6-2.7
	c-1.1-1.1-2-2.3-3.6-2.8c-2.4-0.8-5.1,0.3-6.2,2.5c-0.6,1.1-0.8,2.4-0.5,3.6c0.1,0.5,0.4,1,0.6,1.6c0.6,1.3,1.1,2.7,1.7,4
	c0.1-0.4,0.3-0.7,0.4-1.1c-5.4,3.4-10.8,6.9-16.3,10.3c-2.2,1.4-4.3,2.8-6.5,4.1c-2.2,1.4-2.9,4.2-1.2,6.3c1,1.2,2.7,1.7,4.2,1.3
	c0.6-0.1,1.1-0.5,1.7-0.8c3.1-1.8,6.2-3.6,9.3-5.4l-1-1.7c-1.7,1-2.5,3.1-1.8,5c0.7,2,2.8,3,4.8,2.6c-0.3-0.5-0.6-1.1-0.9-1.6
	c-1.2,1.4-1.5,3.4-0.5,5c1,1.5,2.7,2.2,4.5,1.9c-0.3-0.5-0.6-1.1-0.9-1.6c-1.4,1.7-1.5,4.2,0.1,5.8c1.4,1.3,3.4,1.5,5,0.6
	c1.1-0.6,2.1-1.2,3.2-1.8c4.5-2.6,9.1-5.2,13.6-7.8c1.2-0.7,2.5-1.4,3.7-2.1C123.1,76.1,122.1,74.4,121.1,75.1z"/>
<path class="st2" d="M69.5,71.7c6,0.5,12.3-0.9,17.1-4.7c4.2-3.4,6.2-8.3,6.4-13.6c0.4-9.2-4.2-18.8-12.1-23.7
	c-4.3-2.7-9.4-3.7-14.5-3.1c-5.8,0.8-12.5,3.3-15.9,8.3c-4,5.9-3.8,13.6-2.9,20.4c0.5,3.6,1.3,7.2,2.4,10.7
	c1.1,3.7,2.5,7.5,2.9,11.4c0.9,8.2-3.8,14.8-9.5,20.1c-5.7,5.3-11.8,10.1-17.5,15.5c-10.8,10.1-20.1,22.7-21.6,37.9
	c-1.3,13.3,4.7,27.1,15.7,34.8c11.8,8.3,28.1,7.8,39.5-0.9c11.7-8.9,17.1-23.1,22.9-36c3.2-7.1,6.6-14.8,11.9-20.6
	c2.5-2.7,6.1-4.5,9.5-2.1c2.3,1.6,3.8,4.8,7.1,3.5c2.6-1,3.3-4.2,1.8-6.4l-1.5,1.2c3.6,3.7,9.4-1.1,6.4-5.3l-1.5,1.2
	c1.8,1.9,4.9,1.9,6.5-0.4c1.2-1.8,0.8-3.8-0.5-5.4c-2-2.4-4-4.8-6.1-7.2l-1.2,1.5c2.2,1.4,4.3,2.7,6.5,4.1c2.3,1.4,5.1,3.6,7.6,1.2
	c1.5-1.4,1.7-3.7,0.5-5.4c-0.5-0.7-1.3-1.2-2-1.7c-2.5-1.6-5-3.2-7.6-4.7c-2.1-1.3-4.2-2.6-6.3-3.9v1.7c1.5-0.9,3.5-1.6,4.3-3.3
	c1.2-2.5-0.4-5.5-3.1-5.9c-1.6-0.3-3.5,0.5-5.1,0.9c-1.6,0.4-3.3,0.8-4.9,1.2c-10.3,2.6-20.4,6.2-29.7,11.4
	c-9.2,5.2-18.2,12.3-22.7,22.2c-5.1,11.3-2.3,23.8,2.2,34.8c5.5,13.4,15,25.2,28,32c13.9,7.2,29.8,6.9,44.2,1.3
	c15.4-6,28.5-16.3,42.1-25.4c7.1-4.7,14.4-9.2,22.3-12.5c6.7-2.8,14.1-4.9,21.4-3.1c3.3,0.8,6.3,2.5,8.6,5.1
	c2.5,2.9,3.8,6.7,4.6,10.5c1.7,8.7,1.4,17.8,0.3,26.5c-0.6,4.4-1.6,8.8-2.1,13.2c-0.4,3.4-0.2,7.2,2,10c3.7,4.7,11.2,5.3,16.3,2.8
	c2.9-1.4,5.2-3.8,6.4-6.8c0.2-0.6,0.1-1.2-0.6-1.4c-1.2-0.4-2.4-0.3-3.5,0.4c-0.5,0.3-0.6,0.8-0.3,1.3c2.9,6.9,12.5,8.3,19.1,8.6
	c5.5,0.2,12.2,0,17-3.2c1.8-1.2,3.2-2.9,3.2-5.1c0.1-2.9-1.9-5.5-3.7-7.5c-1.6-1.7-3.4-3.2-4.7-5.2c-1.2-1.9-2.1-4.1-2.7-6.3
	c-1.2-4.5-1.2-9.2-1.3-13.8c-0.2-21.5-3.1-43.9-15.9-61.8c-5.7-8-13.3-14.8-22.3-18.8c-9.5-4.3-20-5.6-30.3-4.9
	c-10.8,0.8-21.3,3.8-31.2,8.3c-5.3,2.4-10.4,5.1-15.4,8c-3.6,2.1-7.6,3.6-11.2,5.7c-3.2,1.8-6.5,4.5-6.7,8.6c-0.1,3.7,3.2,5.4,6.3,4
	c4.6-2,7.7-7.2,10.9-10.9c3.5-4,7.2-7.8,11.2-11.3c16.8-14.5,39.9-23.2,61.9-16.9c22,6.3,38.2,24.2,52.6,41
	c3.9,4.6,7.8,9.2,11.7,13.8c1.9,2.3,3.9,4.6,5.9,6.8c1.6,1.8,3.3,3.7,5.6,4.8c5.1,2.4,11,0.6,16.3,1.2c5.1,0.6,4.5,5.9,2.8,9.3
	c-1.7,3.5-4.3,6.1-6.8,9c-3.5,3.8-7,8.3-11.6,10.9c-1.8,1-4,1.5-5.9,0.5c-0.7-0.3-1.3-0.7-1.9-1.2c-0.2-0.1-0.5-0.5-0.7-0.6
	c0,0-0.1-0.2-0.1-0.2c-1.4,0.3,0.1,0.8,0.1,0.8c0.6,0.8,1.2,0.9,1,2.1c-0.1,0.9-0.6,1.7-1,2.4c-0.9,1.5-2.1,2.8-3.3,4
	c-0.9,0.9-2,2-3.4,2c-1.4,0-2.7-1.1-3.8-1.7c-2.6-1.6-5.3-3.2-7.9-4.8c-1.1-0.6-2,1-1,1.7c2.7,1.7,5.5,3.3,8.2,5
	c2,1.2,4,2.4,6.3,1.4c1.7-0.7,3.1-2.2,4.3-3.6c1.2-1.3,2.3-2.7,2.9-4.3c0.6-1.3,0.8-2.8,0.1-4.1c-0.7-1.2-2.3-2.4-3.7-1.8
	c-3,1.3,2.1,4.3,3.2,4.8c3.9,1.8,7.9-0.8,10.9-3.3c4-3.4,7.3-7.5,10.9-11.3c3.7-4,10-13,3.8-17.6c-2-1.5-4.3-1.4-6.7-1.3
	c-2.9,0.1-5.8,0.3-8.7,0c-3.2-0.3-5.5-1.9-7.6-4.2c-2-2.1-3.9-4.4-5.7-6.6c-8-9.3-15.7-18.8-24.1-27.8
	c-14.8-15.8-33.6-30.3-56.1-30.9c-22.2-0.6-42.4,11-57.3,26.7c-3.7,3.9-6.8,8.5-10.7,12.2c-1.3,1.2-4.4,4.1-6.3,2.3
	c-1.6-1.4-0.3-4.4,0.8-5.7c2.6-3.2,7.2-4.8,10.8-6.5c4.7-2.2,9-5,13.5-7.4c19.6-10,43.4-15.8,64.6-7.1c20,8.2,31.5,28.5,35.8,48.7
	c2.4,11.3,2.7,22.8,3,34.3c0.1,4.5,0.5,9.2,2.1,13.4c0.7,2,1.7,3.8,3,5.5c1.4,1.8,3.2,3.3,4.7,5c1.5,1.8,3.4,4.6,2.1,7
	c-1.1,2.1-3.9,3.1-6,3.7c-5.7,1.6-12.3,1.6-18.2,0.4c-4.3-0.9-9.3-2.5-11.2-6.9l-0.3,1.3c0.7-0.4,1.3-0.5,2-0.2l-0.6-1.4
	c-2.7,6.4-10.5,9.2-16.7,6.1c-3.2-1.6-4.6-4.6-4.7-8.2c-0.1-4.3,1.2-8.6,1.8-12.8c1.2-8.2,1.8-16.4,0.9-24.7
	c-0.7-6.5-2.1-13.7-7.2-18.3c-10.6-9.7-26.6-3.6-37.5,2c-13.9,7.1-26.2,17-39.4,25.2c-13,8.1-27.5,14.7-43.1,13.4
	c-14.7-1.2-27.9-9.6-36.6-21.2c-4.1-5.4-7.2-11.5-9.5-17.9c-2.1-5.8-3.8-12.1-3.8-18.4c0.1-10.5,5.9-19.3,13.7-25.9
	c8.1-6.8,17.9-11.5,27.8-15c4.1-1.5,8.4-2.7,12.6-3.8c1.8-0.4,3.6-0.9,5.4-1.3c1.8-0.4,5.1-1.6,5.3,1.4c0.1,1.9-2.4,2.8-3.8,3.6
	c-0.6,0.4-0.6,1.3,0,1.7c3.8,2.4,7.5,4.7,11.3,7.1c1.2,0.8,3.7,1.8,4.2,3.3c0.8,2.3-1.8,3.4-3.5,2.4c-0.9-0.5-1.7-1.1-2.6-1.6
	c-2.1-1.3-4.2-2.6-6.3-4c-1-0.6-1.8,0.7-1.2,1.5c1.4,1.7,2.9,3.4,4.3,5.1c0.6,0.7,1.3,1.4,1.9,2.2c1.7,2.4-1.3,5.1-3.4,2.9
	c-0.7-0.8-2.2,0.3-1.5,1.2c1.8,2.4-1.2,5.1-3.4,2.9c-0.7-0.8-2.2,0.3-1.5,1.2c1.2,1.6,0.2,4.2-2.1,3.7c-1.4-0.3-2.5-2.2-3.6-3.1
	c-2.2-1.7-4.9-2.4-7.5-1.4c-2.8,1-4.8,3.2-6.6,5.5c-2.2,2.9-4.1,6.1-5.9,9.3c-6.6,12.4-10.5,26.3-19.3,37.4
	c-4.1,5.1-9.2,9.6-15.4,12c-6.5,2.5-13.8,2.8-20.5,0.8c-12.7-3.7-21.5-15.5-23.5-28.3c-2.2-14.1,4.4-28,13.5-38.4
	c5-5.7,10.8-10.7,16.5-15.7c5.1-4.4,10.5-8.6,14.4-14.2c1.8-2.7,3.3-5.7,3.8-8.9c0.6-3.4,0.1-6.8-0.7-10.1c-0.9-3.6-2.2-7-3.1-10.6
	c-0.8-3.3-1.5-6.7-1.8-10c-0.6-6.5-0.1-14.4,5.4-18.9c2.4-2,5.7-3.2,8.7-4.1c2.5-0.7,5.1-1,7.8-0.8c9.4,0.7,16.5,8.2,19,16.9
	c1.2,4,1.5,8.4,0.4,12.5C88.9,63.5,84,67.5,78.3,69c-2.9,0.8-5.8,1-8.8,0.7C68.3,69.7,68.3,71.6,69.5,71.7z"/>
<path class="st2" d="M77.8,50.5c-0.4,2.1,3.2,1.9,2.5-0.3C79.9,48.8,78.1,49.1,77.8,50.5z"/>
<path class="st2" d="M77.2,50.3c-0.1,0.4-0.1,0.9,0.1,1.3c0.1,0.3,0.4,0.6,0.7,0.7c0.5,0.3,1.3,0.4,1.9,0.1c0.4-0.2,0.7-0.4,0.9-0.7
	c0.2-0.3,0.3-0.7,0.3-1c0-0.9-0.6-1.9-1.5-2.1C78.5,48.5,77.5,49.2,77.2,50.3c-0.1,0.3,0.1,0.7,0.4,0.8c0.3,0.1,0.7-0.1,0.8-0.4
	c0-0.1,0-0.2,0.1-0.3c0,0,0,0,0-0.1c0,0-0.1,0.2,0,0.1c0,0,0-0.1,0.1-0.1c0,0,0-0.1,0.1-0.1c0.1-0.1-0.1,0.1,0,0
	c0.1-0.1,0.1-0.1,0.2-0.2c0.1-0.1-0.1,0.1,0,0c0,0,0.1,0,0.1-0.1c0,0,0.1,0,0.1-0.1c0.1-0.1-0.2,0.1,0,0c0.1,0,0.1,0,0.2-0.1
	c0.1,0-0.2,0,0,0c0,0,0.1,0,0.1,0c0,0,0.1,0,0.1,0c0.1,0-0.2,0-0.1,0c0,0,0.1,0,0.1,0c0,0,0,0,0,0c0.1,0-0.1-0.1-0.1,0
	c0.1,0,0.1,0.1,0.2,0.1c0.1,0-0.1-0.1-0.1-0.1c0,0,0,0,0,0c0,0,0.1,0.1,0.1,0.1c0,0,0,0,0,0.1c0.1,0.1-0.1-0.1,0-0.1
	c0,0,0,0.1,0.1,0.1c0,0,0,0.1,0.1,0.1c0,0,0,0,0,0.1c0.1,0.1-0.1-0.2,0,0c0,0.1,0,0.1,0.1,0.2c0,0,0,0.1,0,0.1c0,0.1,0-0.2,0,0
	c0,0.1,0,0.1,0,0.2c0,0,0,0.1,0,0.1c0,0,0-0.2,0-0.1c0,0,0,0,0,0.1c0,0,0,0.1,0,0.1c0,0.1,0.1-0.2,0-0.1c0,0,0,0.1,0,0.1
	c0,0,0,0,0,0.1c-0.1,0.1,0.1-0.1,0-0.1c0,0-0.1,0.1-0.1,0.1c0,0,0,0-0.1,0.1c0,0,0.1-0.1,0.1-0.1c0,0,0,0,0,0c0,0-0.1,0.1-0.1,0.1
	c0,0,0,0-0.1,0c-0.1,0,0.2-0.1,0.1,0c-0.1,0-0.1,0-0.2,0.1c-0.1,0-0.1,0-0.2,0c-0.1,0,0.2,0,0.1,0c0,0-0.1,0-0.1,0
	c-0.1,0-0.1,0-0.2,0c0,0-0.1,0-0.1,0c-0.1,0,0.1,0,0.1,0c-0.1,0-0.2,0-0.3-0.1c-0.1,0,0.2,0.1,0.1,0c0,0,0,0,0,0c0,0-0.1,0-0.1,0
	c0,0,0,0-0.1,0c-0.1-0.1,0.1,0.1,0,0c0,0-0.1-0.1-0.1-0.1c-0.1-0.1,0.1,0.2,0,0c0,0,0,0,0-0.1c0,0-0.1-0.1,0,0c0.1,0.1,0,0,0,0
	c0,0,0-0.1,0-0.1c0,0,0-0.2,0,0c0,0.1,0,0,0,0c0,0,0-0.1,0-0.1c0,0,0-0.1,0-0.1c0-0.1,0,0.2,0,0.1c0,0,0-0.1,0-0.1
	c0.1-0.3-0.1-0.7-0.4-0.8C77.7,49.8,77.3,50,77.2,50.3z"/>
<path class="st2" d="M87,48.5c-0.4,2.1,3.2,1.9,2.5-0.3C89,46.7,87.3,47.1,87,48.5z"/>
<path class="st2" d="M86.4,48.3c-0.1,0.4-0.1,0.9,0.1,1.3c0.1,0.3,0.4,0.6,0.7,0.7c0.5,0.3,1.3,0.4,1.9,0.1c0.4-0.2,0.7-0.4,0.9-0.7
	c0.2-0.3,0.3-0.7,0.3-1c0-0.9-0.6-1.9-1.5-2.1C87.6,46.5,86.6,47.2,86.4,48.3c-0.1,0.3,0.1,0.7,0.4,0.8c0.3,0.1,0.7-0.1,0.8-0.4
	c0-0.1,0-0.2,0.1-0.3c0,0,0,0,0-0.1c0,0-0.1,0.2,0,0.1c0,0,0-0.1,0.1-0.1c0,0,0-0.1,0.1-0.1c0.1-0.1-0.1,0.1,0,0
	c0.1-0.1,0.1-0.1,0.2-0.2c0.1-0.1-0.1,0.1,0,0c0,0,0.1,0,0.1-0.1c0,0,0.1,0,0.1-0.1c0.1-0.1-0.2,0.1,0,0c0.1,0,0.1,0,0.2-0.1
	c0.1,0-0.2,0,0,0c0,0,0.1,0,0.1,0c0,0,0.1,0,0.1,0c0.1,0-0.2,0-0.1,0c0,0,0.1,0,0.1,0c0,0,0,0,0,0c0.1,0-0.1-0.1-0.1,0
	c0.1,0,0.1,0.1,0.2,0.1c0.1,0-0.1-0.1-0.1-0.1c0,0,0,0,0,0c0,0,0.1,0.1,0.1,0.1c0,0,0,0,0,0.1c0.1,0.1-0.1-0.1,0-0.1
	c0,0,0,0.1,0.1,0.1c0,0,0,0.1,0.1,0.1c0,0,0,0,0,0.1c0.1,0.1-0.1-0.2,0,0c0,0.1,0.1,0.1,0.1,0.2c0,0,0,0.1,0,0.1c0,0.1,0-0.2,0,0
	c0,0.1,0,0.1,0,0.2c0,0,0,0.1,0,0.1c0,0,0-0.2,0-0.1c0,0,0,0,0,0.1c0,0,0,0.1,0,0.1c0,0.1,0.1-0.2,0-0.1c0,0,0,0.1,0,0.1
	c0,0,0,0,0,0.1c-0.1,0.1,0.1-0.1,0-0.1c0,0-0.1,0.1-0.1,0.1c0,0,0,0-0.1,0.1c0,0,0.1-0.1,0.1-0.1c0,0,0,0,0,0c0,0-0.1,0.1-0.1,0.1
	c0,0,0,0-0.1,0c-0.1,0,0.2-0.1,0.1,0c-0.1,0-0.1,0-0.2,0.1c-0.1,0-0.1,0-0.2,0c-0.1,0,0.2,0,0.1,0c0,0-0.1,0-0.1,0
	c-0.1,0-0.1,0-0.2,0c0,0-0.1,0-0.1,0c-0.1,0,0.1,0,0.1,0c-0.1,0-0.2,0-0.3-0.1c-0.1,0,0.2,0.1,0.1,0c0,0,0,0,0,0c0,0-0.1,0-0.1,0
	c0,0,0,0-0.1,0c-0.1-0.1,0.1,0.1,0,0c0,0-0.1-0.1-0.1-0.1c-0.1-0.1,0.1,0.2,0,0c0,0,0,0,0-0.1c0,0-0.1-0.1,0,0c0.1,0.1,0,0,0,0
	c0,0,0-0.1,0-0.1c0,0,0-0.2,0,0c0,0.1,0,0,0,0c0,0,0-0.1,0-0.1c0,0,0-0.1,0-0.1c0-0.1,0,0.2,0,0.1c0,0,0-0.1,0-0.1
	c0.1-0.3-0.1-0.7-0.4-0.8C86.8,47.8,86.4,48,86.4,48.3z"/>
<path class="st2" d="M84.5,50.2c-0.4,0.4-0.7,0.9-0.6,1.5c0,0.6,0.3,1,0.7,1.5c0.6,0.8,1.5,1.2,2.3,1.8c0.3,0.2,0.7,0.5,0.8,0.9
	c0.1,0.4-0.2,0.5-0.6,0.5c-1,0.1-2.1,0-3-0.5c-0.3-0.2-0.7-0.1-0.9,0.2c-0.2,0.3-0.1,0.7,0.2,0.9c1.1,0.5,2.3,0.8,3.5,0.7
	c0.6-0.1,1.2-0.1,1.6-0.6c0.4-0.4,0.5-1.1,0.3-1.6c-0.4-1.1-1.5-1.7-2.3-2.3c-0.4-0.3-0.8-0.6-1.1-0.9c-0.3-0.4-0.4-0.8,0-1.2
	C86,50.5,85.1,49.6,84.5,50.2z"/>
<path class="st2" d="M110.6,112.7c1.6,2.2,3.1,4.3,4.7,6.5c0.2,0.3,0.4,0.6,0.7,0.9c0.3,0.4,0.8,0.6,1.3,0.3
	c0.4-0.2,0.6-0.9,0.3-1.3c-1.6-2.2-3.1-4.3-4.7-6.5c-0.2-0.3-0.4-0.6-0.7-0.9c-0.3-0.4-0.8-0.6-1.3-0.3
	C110.5,111.6,110.3,112.3,110.6,112.7z"/>
<path class="st2" d="M105.8,116.5c1.5,2.2,3,4.4,4.5,6.6c0.2,0.3,0.4,0.6,0.7,0.9c0.3,0.4,0.8,0.6,1.3,0.3c0.4-0.2,0.6-0.9,0.3-1.3
	c-1.5-2.2-3-4.4-4.5-6.6c-0.2-0.3-0.4-0.6-0.7-0.9c-0.3-0.4-0.8-0.6-1.3-0.3C105.7,115.4,105.5,116.1,105.8,116.5z"/>
<path class="st2" d="M69.6,70.8c0,0,3.2,3.5,7,5.7c-0.8-1.4-1.3-3.8,3.2-6c3.3-2.1,3.7-2.6,3.7-2.6S75,72.2,69.6,70.8z"/>
<path class="st2" d="M68.9,71.4c2.1,2.2,4.5,4.3,7.1,5.8c0.8,0.5,1.8-0.5,1.3-1.3c-0.1-0.1-0.1-0.2-0.2-0.3c-0.1-0.1,0.1,0.2,0,0
	c0-0.1-0.1-0.2-0.1-0.2c0-0.1-0.1-0.3-0.1-0.4c0-0.1,0,0.2,0-0.1c0-0.1,0-0.2,0-0.3c0-0.1,0-0.2,0-0.2c0-0.1,0,0.2,0,0.1
	c0,0,0-0.1,0-0.1c0-0.1,0-0.2,0.1-0.3c0-0.1,0.1-0.3,0-0.1c0.1-0.2,0.2-0.3,0.3-0.5c0,0,0.2-0.3,0.1-0.2c0.1-0.1,0.2-0.2,0.3-0.3
	c0.9-1,2.2-1.5,3.3-2.2c0.8-0.5,1.6-1.1,2.4-1.6c0.3-0.2,0.5-0.4,0.8-0.6c0.8-0.8-0.2-2-1.2-1.5c-0.3,0.1-0.6,0.3-0.9,0.4
	c-0.3,0.1-0.6,0.3-1,0.4c-0.2,0.1,0.1,0-0.1,0.1c-0.1,0-0.2,0.1-0.3,0.1c-0.2,0.1-0.5,0.2-0.7,0.3c-2.1,0.8-4.4,1.5-6.5,1.7
	c-0.6,0.1-1.3,0.1-1.9,0.1c-0.7,0-1-0.1-1.7-0.3c-1.2-0.3-1.7,1.5-0.5,1.8c2.4,0.6,5,0.3,7.4-0.3c2.1-0.5,4.1-1.3,6-2.2
	c0.4-0.2,0.8-0.4,1.2-0.6l-1.2-1.5c0,0-0.1,0.1-0.1,0.1c-0.2,0.1,0.2-0.1,0,0c-0.1,0.1-0.2,0.1-0.3,0.2c-0.8,0.6-1.7,1.2-2.6,1.8
	c-1.2,0.8-2.6,1.4-3.6,2.5c-0.7,0.8-1.1,1.7-1.2,2.7c0,0.9,0.2,1.7,0.6,2.5c0.4-0.4,0.9-0.9,1.3-1.3c-2.5-1.5-4.8-3.4-6.8-5.5
	C69.5,69.2,68.1,70.5,68.9,71.4z"/>
<path class="st2" d="M91,73.3c2.1-1.4,4.3-2.7,6.4-4.1c0.3-0.2,0.6-0.4,0.9-0.6c0.4-0.3,0.6-0.9,0.3-1.3c-0.3-0.4-0.9-0.6-1.3-0.3
	c-2.1,1.4-4.3,2.7-6.4,4.1c-0.3,0.2-0.6,0.4-0.9,0.6c-0.4,0.3-0.6,0.9-0.3,1.3C89.9,73.4,90.5,73.6,91,73.3z"/>
<path class="st2" d="M94.1,78.8c2.1-1.4,4.3-2.7,6.4-4.1c0.3-0.2,0.6-0.4,0.9-0.6c0.4-0.3,0.6-0.9,0.3-1.3c-0.3-0.4-0.9-0.6-1.3-0.3
	c-2.1,1.4-4.3,2.7-6.4,4.1c-0.3,0.2-0.6,0.4-0.9,0.6c-0.4,0.3-0.6,0.9-0.3,1.3C93,78.9,93.6,79.1,94.1,78.8z"/>
<path class="st2" d="M96.8,84.1c2.1-1.4,4.3-2.7,6.4-4.1c0.3-0.2,0.6-0.4,0.9-0.6c0.4-0.3,0.6-0.9,0.3-1.3c-0.3-0.4-0.9-0.6-1.3-0.3
	c-2.1,1.4-4.3,2.7-6.4,4.1c-0.3,0.2-0.6,0.4-0.9,0.6c-0.4,0.3-0.6,0.9-0.3,1.3C95.8,84.2,96.4,84.4,96.8,84.1z"/>
<path class="st2" d="M57.3,65.2c1-1.8,1.2-3.9,1.3-5.9c-2.2-0.2-4-2-4.9-4c-0.4-0.9-0.7-1.8-0.5-2.8c0.2-1.7,1.8-3,3.5-3.2
	c1.7-0.2,3.4,0.6,4.6,1.9s1.8,3,2,4.7c1.4-1.6,1.1-3.9,0.5-5.9c-0.7-2-1.6-3.9-1.4-6c0-0.4,0.1-0.8,0.3-1.1c1.1-1.6,2.5-0.2,3.7,0.2
	c1.3,0.5,3-0.4,3.9-1.4c1.1-1.2,1.5-2.9,1.5-4.6c0-0.4,0-0.7-0.2-1c-0.2-0.3-0.6-0.5-0.9-0.3c-0.4,0.2-0.4,0.6-0.4,1
	c0.2,1.8,2,3.1,3.8,3.4c1.6,0.3,3.2,0.2,4.6-0.6c1.4-0.8,2.5-2.1,2.8-3.7c0.2-1.1,0.1-2.3-0.7-3.1c-0.2-0.3-0.6-0.5-0.9-0.5
	c-0.4,0-0.7,0.3-0.7,0.7c0,0.1,0.1,0.2,0.1,0.3c1.2,2,3.7,3.2,6.1,2.9c7.6-1,5-9.9,0.9-13.3c-2.8-2.3-6.4-3.4-10-4
	c-6.6-1.1-13.6-0.6-19.5,2.5c-6.3,3.3-10.8,9.5-12.6,16.4c-2.9,11.5-0.1,26.1,8.2,34.9c0.9-1.6,1.1-3.1,0-4.7
	C54.5,68.2,56.3,67,57.3,65.2z"/>
<path class="st2" d="M58.1,65.6c1.1-2,1.3-4.2,1.4-6.4c0-0.6-0.5-0.9-1-1c-1.2-0.1-2.3-1-3.1-2c-0.8-1-1.6-2.5-1.3-3.8
	c0.2-1.2,1.3-2,2.4-2.3c1.3-0.3,2.7,0.3,3.7,1.2c1.3,1.2,1.9,2.9,2.2,4.6c0.1,0.7,1.2,0.9,1.6,0.4c1-1.2,1.4-2.7,1.2-4.3
	c-0.2-1.7-0.8-3.2-1.3-4.7c-0.3-0.8-0.5-1.6-0.6-2.4c-0.1-0.7-0.1-1.4,0.4-1.9c0,0,0,0,0.1-0.1c0.2-0.1,0.1,0,0,0c0.1,0,0.1,0,0.2,0
	c-0.1,0,0.2,0.1,0.2,0.1c0.1,0,0.2,0.1,0.4,0.2c0.6,0.3,1.1,0.7,1.8,0.8c1.6,0.3,3.3-0.5,4.3-1.7c1.1-1.2,1.7-2.9,1.8-4.5
	c0.1-0.8,0.1-1.8-0.5-2.5c-0.6-0.7-1.7-0.9-2.4-0.2c-1.2,1.2-0.2,3.3,0.8,4.2c2.2,2.3,6.3,2.5,9,0.8c1.3-0.9,2.4-2.2,2.8-3.7
	c0.4-1.5,0.2-3.4-1-4.5c-0.7-0.6-1.9-0.9-2.6-0.1c-0.8,0.8-0.4,1.7,0.1,2.4c0.9,1.3,2.2,2.2,3.7,2.6c2.3,0.7,5.2,0.2,7-1.5
	c3-2.9,1.5-8-0.6-11c-3.6-5-10.4-6.4-16.2-6.9c-6.6-0.5-13.5,0.7-18.9,4.6c-4.9,3.5-8.5,8.7-10.2,14.5c-1.6,5.6-1.8,11.6-0.9,17.3
	c0.9,5.8,3,11.4,6.3,16.2c0.8,1.2,1.7,2.3,2.6,3.3c0.4,0.5,1.2,0.3,1.5-0.2c0.5-0.9,0.9-1.8,0.9-2.8c0-1-0.3-2-0.9-2.8
	c-0.3,0.5-0.6,1-0.8,1.4C54.8,69.1,56.9,67.7,58.1,65.6c0.6-1.1-1-2-1.7-1c-0.9,1.5-2.3,2.5-4.1,2.5c-0.7,0-1.2,0.8-0.8,1.4
	c0.4,0.6,0.6,1.2,0.6,1.8c0,0.7-0.3,1.3-0.6,1.9c0.5-0.1,1-0.1,1.5-0.2c-3.5-3.8-5.9-8.5-7.3-13.4c-1.5-5-2-10.3-1.5-15.5
	c0.5-5.2,2.2-10.2,5.3-14.3c3.3-4.4,8.1-7.4,13.4-8.7c2.9-0.7,6-0.9,9-0.7c3,0.2,5.9,0.6,8.7,1.6c2.3,0.8,4.5,2,6.1,3.8
	c0.1,0.1,0.1,0.2,0.2,0.2c0.1,0.2,0,0,0.1,0.1c0.1,0.2,0.3,0.4,0.4,0.6c0.2,0.4,0.5,0.8,0.7,1.2c0.1,0.2,0.2,0.4,0.3,0.6
	c0,0.1,0,0.1,0.1,0.2c0,0-0.1-0.2,0,0c0,0.1,0.1,0.2,0.1,0.3c0.2,0.4,0.3,0.8,0.4,1.3c0,0.2,0.1,0.4,0.1,0.6c0,0.1,0,0.2,0,0.3
	c0,0.1,0-0.2,0,0c0,0.1,0,0.1,0,0.2c0,0.4,0,0.8,0,1.2c0,0.1,0,0.2,0,0.3c0-0.2,0,0,0,0.1c0,0.2-0.1,0.4-0.1,0.6
	c0,0.1-0.1,0.2-0.1,0.2c0,0-0.1,0.3,0,0.1c-0.1,0.2-0.2,0.4-0.3,0.5c0,0.1-0.1,0.1-0.1,0.2c-0.1,0.2,0.1-0.1-0.1,0.1
	c-0.1,0.2-0.3,0.3-0.4,0.4c-0.1,0.1-0.2,0.1-0.2,0.2c0.1-0.1,0,0-0.1,0.1c-0.2,0.1-0.4,0.2-0.6,0.3c0,0-0.3,0.1-0.1,0.1
	c-0.1,0-0.2,0.1-0.3,0.1c-0.2,0.1-0.5,0.2-0.8,0.2c-0.6,0.1-1,0.2-1.7,0.1c-1.1-0.1-2.3-0.6-3.2-1.3c-0.2-0.2-0.5-0.4-0.7-0.7
	c-0.1-0.1-0.1-0.2-0.2-0.3c0-0.1-0.1-0.2-0.1-0.2L80,32.8c0.1,0.2,0.1,0.3-0.1,0.4c-0.1,0-0.2,0.1-0.2,0.1c0,0,0.3,0.3,0.3,0.3
	c0.2,0.2,0.3,0.4,0.3,0.7c0.3,1.1-0.1,2.3-0.8,3.2c-0.8,1-2.1,1.7-3.4,1.9c-1.3,0.2-2.6,0-3.7-0.7c-0.5-0.3-0.9-0.7-1.2-1.1
	c-0.1-0.2-0.2-0.4-0.3-0.6c0-0.1-0.1-0.3-0.1-0.3c0,0,0-0.2,0-0.2c0,0,0,0.1,0,0.1c0,0-0.2,0.1-0.2,0.1c0.1,0-0.1,0-0.1,0
	c0,0,0,0.1,0,0.2c0,0.3,0,0.6,0,1c0,0.7-0.2,1.3-0.4,1.9c-0.4,1.1-1.3,2.1-2.5,2.4c-0.3,0.1-0.5,0.1-0.8,0.1c-0.3,0-0.4-0.1-0.6-0.2
	c-0.5-0.3-1.1-0.6-1.6-0.8c-1.5-0.5-2.9,0.4-3.3,1.8c-0.4,1.5,0,3.3,0.5,4.7c0.5,1.4,1.1,2.7,1.3,4.1c0.2,1.1,0.1,2.3-0.6,3.2
	l1.6,0.4c-0.3-1.9-1.1-3.9-2.5-5.3c-1.4-1.4-3.4-2.2-5.3-2c-1.8,0.2-3.4,1.5-4,3.2c-0.7,1.9,0.1,4,1.2,5.6c1.2,1.7,2.9,2.9,5,3.2
	c-0.3-0.3-0.6-0.6-1-1c-0.1,1.9-0.3,3.8-1.2,5.5C55.9,65.8,57.5,66.7,58.1,65.6z"/>
<path class="st2" d="M48.9,41.3c0.9-1.3,1.1-3,0.6-4.5c-0.5-1.5-1.8-2.7-3.3-3.2c-2.2-0.7-4.7,0.2-6.8,1.3c-0.7,0.4-1.6,1.1-1.4,1.9
	c0.1,0.3,0.4,0.6,0.7,0.4c0.2-0.1,0.2-0.4,0.2-0.6c-0.1-5.6-11-1.5-13.1,0.3c-5,4.5-4.3,13.2,0.4,17.6c0.4,0.4,1.1,0.8,1.6,0.5
	c0.4-0.2,0.5-0.7,0.4-1.1c-0.1-0.4-0.4-0.7-0.7-1c-3.7-2.8-11.1,1.3-14,3.8c-3.2,2.8-5.4,6.9-5.3,11.2c0.1,3.2,2.4,9.3,6.4,9.2
	c1.2,0,2.3-1.3,1.8-2.4c-1.5,1.2-2.2,3.1-2.2,5c0,1.9,0.7,3.7,1.7,5.3c2.9,4.7,8.2,7.7,13.7,7.9c3.1,0.1,6.5-1.1,7.7-3.9
	c0.3-0.9,0.4-1.9-0.1-2.6s-1.9-0.8-2.3,0.1c-0.3,0.5,0,1.2,0.3,1.7c1,1.5,2.8,2.3,4.6,2.4c1.8,0.1,3.6-0.3,5.2-1
	c4-1.5,7.9-4.5,8.9-8.6c0.7-2.8,0.1-5.8-0.6-8.7c-1.2-4.9-2.7-9.7-4.3-14.5"/>
<path class="st2" d="M49.7,41.8c1.4-2.2,1.2-5.1-0.4-7.1c-1.7-2.1-4.3-2.6-6.8-2c-1.3,0.3-2.6,0.8-3.7,1.5c-1,0.6-2.1,1.7-1.6,3
	c0.2,0.7,1,1.2,1.8,1c0.7-0.2,1-0.9,1-1.6c0-0.7-0.2-1.4-0.6-2c-1.6-2.4-5.4-1.8-7.8-1.2c-1.4,0.4-2.8,0.9-4.1,1.5
	c-1.1,0.5-2.1,1.2-3,2.2c-2.7,3.1-3.4,7.4-2.6,11.3c0.4,1.9,1.2,3.8,2.4,5.3c0.6,0.8,1.4,1.8,2.4,2.2c0.7,0.3,1.5,0.3,2.1-0.2
	c0.5-0.5,0.7-1.2,0.6-1.8c-0.2-1-1.2-1.8-2.1-2.2c-0.9-0.4-1.8-0.5-2.7-0.5c-2,0-4,0.7-5.8,1.5c-3.7,1.6-7.1,4.2-9.2,7.7
	c-1.2,2.1-2,4.5-2.1,6.9c-0.1,1.7,0.3,3.4,0.9,5.1c0.6,1.7,1.5,3.4,2.9,4.6c1.4,1.2,3.7,2,5.3,0.7c1-0.8,1.4-2,0.8-3.2
	c-0.3-0.6-1.1-0.6-1.5-0.2c-2.7,2.2-2.9,6.2-1.7,9.3c1.2,3,3.3,5.5,5.9,7.3c2.5,1.8,5.5,2.9,8.6,3.2c2.8,0.3,5.9-0.3,8.1-2.2
	c1.1-1,1.9-2.5,1.9-4c0-0.9-0.4-1.7-1.1-2.3c-0.6-0.4-1.4-0.6-2.1-0.4c-0.8,0.2-1.4,0.9-1.5,1.8c-0.1,1,0.4,1.8,1,2.5
	c1,1.2,2.5,1.9,4,2.2c1.8,0.3,3.7,0,5.4-0.5c1.5-0.5,3-1.2,4.4-2c2.6-1.6,4.9-3.8,6-6.7c1.3-3.5,0.4-7.3-0.5-10.8
	c-1-3.8-2-7.5-3.2-11.2c-0.3-0.9-0.6-1.8-0.9-2.7c-0.2-0.5-0.7-0.8-1.2-0.7c-0.5,0.1-0.8,0.7-0.7,1.2c1.1,3.3,2.1,6.5,3.1,9.8
	c0.5,1.6,0.9,3.3,1.3,5c0.4,1.6,0.7,3.1,0.8,4.7c0.1,1.5-0.1,3-0.7,4.3c-0.5,1.1-1.2,2.1-2,3c-1.8,1.9-4.1,3.2-6.6,4
	c-2.5,0.9-5.8,1.2-7.8-1c-0.2-0.2-0.4-0.4-0.5-0.7c0-0.1-0.1-0.2-0.1-0.3c0-0.1-0.1,0.4,0-0.1c0,0-0.1,0.1,0,0c0.1-0.1,0,0,0,0
	c0.2-0.1,0.1,0,0,0c0.1,0,0.1,0,0.2,0c0,0-0.2,0,0,0c0.1,0,0.3,0,0.4,0.2c-0.1-0.1,0,0.1,0.1,0.1c0.1,0.1,0.1,0.2,0.1,0.3
	c0.1,0.3,0.1,0.5,0,0.8c-0.1,0.5-0.4,1.1-0.7,1.5c-1.4,1.8-3.9,2.4-6.1,2.3c-2.6,0-5.1-0.8-7.3-2c-2.3-1.3-4.2-3.1-5.6-5.3
	c-1.4-2.3-2.4-5.3-1-7.8c0.3-0.6,0.7-1,1.2-1.5c-0.5-0.1-1-0.1-1.5-0.2c0,0,0,0.1,0,0.1c0,0.2,0,0.2-0.1,0.3
	c-0.1,0.2-0.3,0.4-0.5,0.5c-0.3,0.1-0.5,0.1-0.8,0.1c-0.2,0,0.2,0-0.1,0c-0.1,0-0.1,0-0.2,0c-0.2,0-0.3-0.1-0.5-0.1
	c0,0-0.2-0.1-0.1,0c-0.1,0-0.1-0.1-0.2-0.1c-0.1-0.1-0.3-0.1-0.4-0.2c-0.3-0.2-0.3-0.2-0.6-0.4c-0.2-0.2-0.4-0.4-0.6-0.7
	c-0.1-0.2-0.3-0.4-0.5-0.7c-0.7-1.1-1.1-2.1-1.5-3.4c-0.2-0.6-0.3-1.1-0.4-1.7c0,0.2,0-0.1,0-0.2c0-0.1,0-0.2,0-0.4
	c0-0.4,0-0.8,0-1.2c0.2-3.4,1.8-6.6,4.2-8.9c0.3-0.3,0.6-0.5,0.8-0.8c0.1-0.1,0.2-0.2,0.3-0.2c0.1,0,0.1-0.1,0.2-0.1c0.1,0,0,0,0,0
	c0,0,0.1-0.1,0.1-0.1c0.5-0.4,1-0.8,1.6-1.1c1.2-0.7,2.5-1.4,3.7-1.9c0.7-0.3,1.4-0.5,2.1-0.7c0.7-0.2,1.2-0.3,1.9-0.3
	c0.3,0,0.6,0,0.9,0c0.1,0,0.2,0,0.2,0c0.2,0-0.2,0,0.1,0c0.2,0,0.3,0.1,0.5,0.1c0.5,0.1,1,0.3,1.4,0.7c0.1,0.1,0.2,0.2,0.3,0.4
	c0-0.1,0,0.2,0,0c0,0,0.1-0.1,0.1-0.1c0,0-0.2-0.1-0.3-0.2c-0.5-0.4-1-1-1.3-1.4c-0.8-1.1-1.4-2.3-1.8-3.6c-0.8-2.6-0.8-5.5,0.3-8
	c0.2-0.5,0.6-1.2,0.9-1.7c0.4-0.5,0.8-1,1.3-1.5c0.1-0.1,0.2-0.1,0.2-0.2c0.1-0.1-0.2,0.1,0,0c0.1-0.1,0.3-0.2,0.4-0.3
	c0.4-0.2,0.7-0.4,1.1-0.6c0.2-0.1,0.4-0.2,0.6-0.3c0.1,0,0.2-0.1,0.3-0.1c-0.2,0.1,0.2-0.1,0.3-0.1c0.5-0.2,1-0.4,1.5-0.5
	c0.5-0.2,1.1-0.3,1.6-0.5c0.3-0.1,0.5-0.1,0.8-0.2c0.1,0,0.3,0,0.4-0.1c0.1,0,0.1,0,0.2,0c0,0,0.3,0,0.1,0c0.5-0.1,1-0.1,1.5-0.1
	c0.2,0,0.4,0,0.7,0c0.2,0,0,0,0,0c0.1,0,0.1,0,0.2,0c0.1,0,0.2,0,0.3,0.1c0.1,0,0.2,0.1,0.3,0.1c0.1,0,0.3,0.2,0.1,0
	c0.2,0.1,0.3,0.2,0.5,0.3c-0.2-0.2,0,0,0.1,0.1c0.1,0.1,0.1,0.1,0.2,0.2c-0.2-0.2,0,0,0.1,0.1c0.1,0.1,0.1,0.2,0.1,0.3
	c-0.1-0.3,0,0.1,0,0.1c0,0.1,0,0.2,0.1,0.3c0.1,0.2,0-0.2,0,0c0,0,0,0.1,0,0.1c0,0,0,0.1,0,0.2c0.1,0.3,0-0.1,0.2-0.2l0.5-0.1
	c0.2,0,0.2,0.2,0.3,0.3c0-0.1,0-0.1,0-0.1c0,0.1,0,0,0-0.1c0.2-0.2,0.3-0.4,0.6-0.5c0.6-0.4,1.3-0.7,2-1c1.4-0.5,2.9-0.8,4.4-0.4
	c1.1,0.4,2.1,1.3,2.5,2.4c0.5,1.3,0.3,2.7-0.4,3.9C47.4,41.9,49.1,42.9,49.7,41.8z"/>
<path class="st2" d="M77.2,61.2c1,0.3,2,0.6,2.9,0.9c0.3,0.1,0.7-0.1,0.8-0.4c0.1-0.3-0.1-0.7-0.4-0.8c-1-0.3-2-0.6-2.9-0.9
	c-0.3-0.1-0.7,0.1-0.8,0.4C76.7,60.8,76.9,61.1,77.2,61.2z"/>
<path class="st2" d="M75.8,45.8c0.1-0.1,0.2-0.2,0.3-0.3c0,0,0.1-0.1,0.1-0.1c0,0,0,0,0,0c0.1,0,0.1-0.1,0.2-0.1
	c0.1-0.1,0.3-0.2,0.4-0.2c0.1,0,0.1,0,0,0c0,0,0.1,0,0.1,0c0.1,0,0.2-0.1,0.2-0.1c0.1,0,0.3-0.1,0.5-0.1c0,0,0.1,0,0.1,0
	c-0.1,0-0.1,0,0,0c0.1,0,0.2,0,0.2,0c0.2,0,0.3,0,0.5,0c0.1,0,0.1,0,0,0c0,0,0.1,0,0.1,0c0.1,0,0.2,0,0.3,0.1
	c0.3,0.1,0.7-0.1,0.8-0.4c0.1-0.3-0.1-0.7-0.4-0.8c-1.5-0.4-3.2,0.1-4.3,1.3c-0.2,0.2-0.3,0.7,0,0.9C75.2,46,75.6,46,75.8,45.8z"/>
<path class="st2" d="M86.6,45.9c0.2-0.1,0.5-0.2,0.8-0.2c0.1,0,0.2,0,0.3-0.1c0.1,0,0.1,0,0.2,0c0.1,0-0.1,0,0.1,0
	c0.5-0.1,1-0.1,1.5,0c0.3,0,0.7-0.3,0.6-0.6c0-0.4-0.3-0.6-0.6-0.6c-1.1-0.1-2.2,0-3.2,0.4c-0.3,0.1-0.6,0.4-0.4,0.8
	C85.9,45.8,86.3,46,86.6,45.9z"/>
<path class="st1" d="M139.2,6.4c3.5,4.4,7.1,8.7,10.7,13c3.9,4.6,7.9,9.2,11.7,13.9c1.9,2.3,3.9,4.7,5.7,7.1c0.3,0.4,1,0.3,1.4,0
	c0.4-0.4,0.3-0.9,0-1.4c-3.5-4.5-7.2-8.8-10.8-13.2c-3.9-4.6-7.9-9.3-11.8-13.9c-1.9-2.3-3.8-4.6-5.6-7c-0.3-0.4-1-0.3-1.4,0
	C138.8,5.4,138.8,6,139.2,6.4z"/>
<path class="st1" d="M167.3,30.2c0.9,2.6,1.8,5.3,2.7,7.9c0.2,0.5,0.7,0.8,1.2,0.7c0.5-0.1,0.8-0.7,0.7-1.2
	c-0.9-2.6-1.8-5.3-2.7-7.9c-0.2-0.5-0.7-0.8-1.2-0.7C167.5,29.2,167.1,29.7,167.3,30.2z"/>
<path class="st1" d="M10.6,200.2c0.6-0.9,1.2-1.9,1.9-2.8c0.3-0.4,0.1-1.1-0.3-1.3c-0.5-0.3-1-0.1-1.3,0.3c-0.6,0.9-1.2,1.9-1.9,2.8
	c-0.3,0.4-0.1,1.1,0.3,1.3C9.8,200.8,10.3,200.6,10.6,200.2z"/>
<path class="st1" d="M22.7,199.7c-0.2,2.6,0.3,5.2,1.5,7.4c0.2,0.5,0.9,0.6,1.3,0.3c0.5-0.3,0.6-0.9,0.3-1.3c-1.1-2-1.5-4.2-1.3-6.5
	c0-0.5-0.5-1-1-1C23.1,198.8,22.8,199.2,22.7,199.7z"/>
<path class="st1" d="M1.3,191.9c0.9-0.2,1.9-0.3,2.8-0.5c0.2,0,0.5-0.3,0.6-0.4c0.1-0.2,0.2-0.5,0.1-0.7c-0.1-0.2-0.2-0.5-0.4-0.6
	c-0.2-0.1-0.5-0.1-0.7-0.1c-0.9,0.2-1.9,0.3-2.8,0.5c-0.2,0-0.5,0.3-0.6,0.4c-0.1,0.2-0.2,0.5-0.1,0.7c0.1,0.2,0.2,0.5,0.4,0.6
	C0.8,191.9,1,191.9,1.3,191.9z"/>
</svg>
