<svg xmlns="http://www.w3.org/2000/svg" width="327" height="247" viewBox="0 0 327 247" fill="none">
<g clip-path="url(#clip0_69_1189)">
<path d="M209.533 223.722C209.451 221.889 208.848 219.988 207.457 218.71C206.003 217.375 204.411 216.809 202.444 216.634C200.739 216.483 199.035 216.331 197.33 216.18C192.69 215.768 188.05 215.355 183.41 214.943C176.546 214.334 169.683 213.724 162.82 213.115C154.446 212.371 146.072 211.627 137.697 210.883C128.524 210.068 119.35 209.253 110.177 208.439C100.916 207.616 91.6553 206.794 82.3947 205.971C73.7588 205.204 65.1229 204.437 56.4871 203.67C50.4756 203.136 44.464 202.602 38.4525 202.068C42.1308 200.405 45.8091 198.741 49.4875 197.078C59.3485 192.619 69.2094 188.16 79.0704 183.7C87.6458 179.823 96.2211 175.945 104.797 172.067C108.946 170.191 113.214 168.468 117.283 166.421C117.339 166.393 117.397 166.369 117.454 166.343C117.932 165.974 118.41 165.604 118.888 165.235C119.58 164.593 120.068 163.832 120.354 162.954C120.948 161.545 121.195 159.834 120.711 158.338C119.726 155.293 117.108 153.235 113.876 153.134C111.065 153.047 108.253 152.959 105.442 152.872C98.6571 152.661 91.8721 152.45 85.0871 152.239C76.9076 151.984 68.7281 151.73 60.5486 151.475C53.4517 151.254 46.3549 151.034 39.258 150.813C35.8282 150.706 32.3917 150.527 28.9602 150.492C28.912 150.492 28.8638 150.489 28.8157 150.488C25.1061 150.373 21.5595 153.831 21.7273 157.576C21.9037 161.515 24.8412 164.541 28.8157 164.665C31.627 164.752 34.4384 164.84 37.2497 164.927C44.0347 165.138 50.8198 165.349 57.6047 165.56C65.7843 165.815 73.9638 166.069 82.1433 166.324C82.4952 166.335 82.8471 166.346 83.199 166.357C80.6114 167.527 78.0238 168.697 75.4361 169.867C65.5752 174.326 55.7142 178.785 45.8533 183.244C37.2779 187.122 28.7025 191 20.1271 194.878C15.9781 196.754 11.7094 198.477 7.6408 200.524C7.58504 200.552 7.52666 200.576 7.46983 200.602C6.99165 200.971 6.51344 201.341 6.03523 201.71C5.34402 202.352 4.85548 203.113 4.56962 203.991C3.97523 205.4 3.7283 207.111 4.21233 208.607C4.59068 209.776 5.20424 210.829 6.03523 211.735C7.33693 213.153 9.21845 213.648 11.0475 213.811C12.7524 213.962 14.4573 214.114 16.1622 214.265C20.8022 214.677 25.4422 215.089 30.0823 215.501C36.9454 216.111 43.8085 216.721 50.6717 217.33C59.046 218.074 67.4204 218.818 75.7947 219.562C84.9682 220.376 94.1417 221.191 103.315 222.006C112.576 222.829 121.837 223.651 131.097 224.474C139.733 225.241 148.369 226.008 157.005 226.775C164.304 227.423 171.603 228.071 178.902 228.72C184.152 229.186 189.403 229.652 194.653 230.119C197.142 230.34 199.63 230.595 202.121 230.782C202.229 230.79 202.337 230.801 202.444 230.811C204.158 230.963 206.281 229.911 207.457 228.735C208.686 227.505 209.612 225.488 209.533 223.722Z" fill="#641ae6"/>
<path d="M245.279 14.3909L327 48.4342L244.427 68.3952L245.279 14.3909Z" fill="#facc15"/>
<path d="M241.632 246.086C265.917 246.086 285.604 237.56 285.604 227.042C285.604 216.525 265.917 207.999 241.632 207.999C217.347 207.999 197.661 216.525 197.661 227.042C197.661 237.56 217.347 246.086 241.632 246.086Z" fill="#641ae6"/>
<path d="M30.1153 221.561C46.7475 221.561 60.2305 215.721 60.2305 208.518C60.2305 201.315 46.7475 195.476 30.1153 195.476C13.4831 195.476 0 201.315 0 208.518C0 215.721 13.4831 221.561 30.1153 221.561Z" fill="#641ae6"/>
<path d="M30.1153 214.756C38.0698 214.756 44.5182 211.963 44.5182 208.518C44.5182 205.073 38.0698 202.281 30.1153 202.281C22.1608 202.281 15.7123 205.073 15.7123 208.518C15.7123 211.963 22.1608 214.756 30.1153 214.756Z" fill="#1d232a"/>
<path d="M101.817 172.037C115.557 172.037 126.695 167.213 126.695 161.262C126.695 155.312 115.557 150.488 101.817 150.488C88.0777 150.488 76.9395 155.312 76.9395 161.262C76.9395 167.213 88.0777 172.037 101.817 172.037Z" fill="#641ae6"/>
<path d="M101.817 165.421C107.12 165.421 111.419 163.559 111.419 161.263C111.419 158.966 107.12 157.104 101.817 157.104C96.5143 157.104 92.2153 158.966 92.2153 161.263C92.2153 163.559 96.5143 165.421 101.817 165.421Z" fill="#1d232a"/>
<path d="M269.695 227.043C269.694 227.162 269.683 227.278 269.673 227.397C269.696 227.133 269.65 227.475 269.625 227.571C269.593 227.689 269.551 227.802 269.51 227.917C269.458 228.062 269.584 227.773 269.511 227.91C269.477 227.974 269.448 228.041 269.413 228.105C269.351 228.221 269.283 228.333 269.21 228.442C269.178 228.491 269.144 228.538 269.111 228.586C269.088 228.618 269.064 228.649 269.04 228.681C269.073 228.636 269.13 228.569 269.061 228.65C268.869 228.879 268.666 229.097 268.446 229.3C268.328 229.409 268.206 229.515 268.082 229.617C268.026 229.662 267.971 229.707 267.914 229.751C268.05 229.645 267.831 229.811 267.792 229.839C267.496 230.054 267.188 230.254 266.873 230.442C266.154 230.872 265.399 231.242 264.63 231.57C260.554 233.306 255.824 234.154 251.362 234.651C245.547 235.299 239.647 235.354 233.819 234.856C229.046 234.447 224.197 233.687 219.68 232.04C218.16 231.486 216.638 230.808 215.281 229.817C215.254 229.797 215.095 229.678 215.161 229.729C215.228 229.78 215.051 229.641 215.022 229.617C214.889 229.508 214.759 229.395 214.633 229.277C214.415 229.073 214.215 228.855 214.024 228.627C213.991 228.588 214.107 228.747 214.011 228.609C213.972 228.553 213.932 228.499 213.894 228.442C213.816 228.325 213.744 228.205 213.678 228.081C213.652 228.033 213.631 227.982 213.604 227.935C213.504 227.753 213.644 228.054 213.594 227.917C213.549 227.794 213.506 227.673 213.473 227.546C213.449 227.451 213.408 227.134 213.431 227.397C213.42 227.27 213.408 227.145 213.409 227.017C213.41 226.907 213.422 226.798 213.431 226.688C213.418 226.843 213.412 226.802 213.438 226.689C213.454 226.622 213.468 226.555 213.486 226.489C213.517 226.38 213.556 226.275 213.594 226.168C213.643 226.03 213.512 226.318 213.604 226.15C213.64 226.087 213.669 226.02 213.704 225.956C213.763 225.849 213.826 225.744 213.894 225.643C213.932 225.586 213.972 225.532 214.011 225.476C214.122 225.315 213.927 225.563 214.062 225.411C214.262 225.186 214.461 224.966 214.683 224.762C214.793 224.661 214.907 224.563 215.022 224.468C215.058 224.439 215.221 224.31 215.161 224.356C215.107 224.398 215.307 224.25 215.342 224.224C215.968 223.774 216.639 223.389 217.328 223.045C221.124 221.149 225.644 220.256 229.892 219.663C235.616 218.865 241.457 218.724 247.221 219.078C252.214 219.385 257.259 220.062 262.041 221.575C263.773 222.123 265.351 222.728 266.908 223.664C267.221 223.852 267.527 224.052 267.823 224.268C267.864 224.298 268.043 224.435 267.914 224.334C267.98 224.385 268.045 224.438 268.109 224.491C268.233 224.593 268.353 224.698 268.471 224.808C268.689 225.012 268.888 225.23 269.08 225.458C269.156 225.548 268.989 225.334 269.058 225.428C269.075 225.452 269.094 225.475 269.111 225.499C269.149 225.555 269.189 225.61 269.226 225.667C269.298 225.776 269.365 225.889 269.426 226.004C269.456 226.061 269.482 226.118 269.511 226.175C269.579 226.308 269.454 225.997 269.519 226.192C269.555 226.3 269.595 226.405 269.625 226.514C269.647 226.597 269.698 226.969 269.673 226.688C269.683 226.807 269.694 226.923 269.695 227.043C269.705 228.137 271.406 228.139 271.396 227.042C271.369 224.055 268.13 222.215 265.753 221.162C261.344 219.208 256.488 218.327 251.725 217.774C245.67 217.07 239.514 217.014 233.444 217.561C228.485 218.008 223.412 218.791 218.743 220.586C217.07 221.229 215.433 221.999 214.016 223.109C213.03 223.881 212.105 224.908 211.814 226.161C211.141 229.065 213.902 231.168 216.153 232.347C220.162 234.447 224.787 235.399 229.23 236.032C235.255 236.891 241.382 237.083 247.453 236.694C252.673 236.359 257.985 235.65 262.966 233.997C264.732 233.411 266.502 232.703 268.076 231.699C269.212 230.973 270.376 230.037 270.969 228.793C271.233 228.239 271.391 227.659 271.396 227.042C271.406 225.948 269.705 225.947 269.695 227.043Z" fill="#1d232a"/>
<path d="M241.552 230.558C247.815 230.558 252.893 228.984 252.893 227.043C252.893 225.101 247.815 223.527 241.552 223.527C235.289 223.527 230.211 225.101 230.211 227.043C230.211 228.984 235.289 230.558 241.552 230.558Z" fill="#1d232a"/>
<path d="M238.552 10.1516H245.279V218.197C245.279 220.054 243.772 221.561 241.916 221.561C240.059 221.561 238.552 220.054 238.552 218.197L238.552 10.1516Z" fill="#ffffff"/>
<path d="M238.089 100.916C233.077 103.647 230.004 108.542 225.734 112.158C223.464 114.079 220.784 115.463 217.822 115.899C214.342 116.413 210.75 115.582 207.622 114.049C200.872 110.743 196.217 104.305 191.947 98.3445C189.909 95.5002 187.984 92.5731 185.887 89.7716C184.042 87.3072 182.138 84.8862 180.429 82.3235C178.763 79.8259 177.155 77.1507 176.391 74.2213C176.045 72.895 175.707 71.1068 176.368 69.83C176.483 69.6089 177.087 68.6639 177.424 68.7188C177.347 68.7062 177.62 69.1839 177.683 69.3935C177.932 70.2162 177.973 71.1018 178 71.9556C178.058 73.8077 178.175 75.6465 178.371 77.4898C178.788 81.424 179.219 85.3684 179.885 89.2695C182.594 105.139 188.607 120.161 193.601 135.393C198.759 151.126 202.91 167.19 206.026 183.451C207.623 191.778 208.978 200.151 210.518 208.488C210.825 210.15 211.04 211.919 211.862 213.426C212.693 214.948 214.102 215.523 215.38 216.57C217.878 218.618 218.503 222.876 215.97 225.148C215.009 226.01 213.778 226.535 212.63 227.094C211.065 227.855 209.542 228.698 207.993 229.491C204.943 231.051 201.825 232.504 198.511 233.415C195.042 234.369 191.072 234.917 187.502 234.235C183.856 233.539 181.535 230.573 180.003 227.389C177.167 221.498 176.696 214.452 176.36 208.017C176.154 204.059 176.162 200.095 175.894 196.136C175.64 192.377 175.287 188.624 174.849 184.882C173.355 172.116 170.819 159.531 168.078 146.983C167.176 142.849 166.213 138.713 165.555 134.53C165.35 133.233 165.171 131.917 165.165 130.602C165.161 129.779 165.221 129.13 165.507 128.629C165.434 128.756 165.654 128.529 165.544 128.598C165.678 128.513 165.468 128.616 165.733 128.541C165.573 128.586 165.875 128.581 165.813 128.559C166.104 128.661 165.921 128.566 166.115 128.681C166.632 128.985 167.138 129.818 167.503 130.567C168.863 133.357 169.397 136.621 169.845 139.662C171.312 149.618 171.025 159.996 169.621 169.94C168.84 175.469 167.656 180.958 165.89 186.26C165.026 188.856 164.02 191.405 162.822 193.865C161.454 196.676 159.725 199.28 158.288 202.052C155.648 207.146 153.69 212.652 153.333 218.414C153.109 222.033 153.703 225.538 154.13 229.113C154.458 231.857 154.411 234.523 152.634 236.793C149.386 240.943 143.658 239.945 139.197 238.674C136.085 237.787 133.077 236.556 130.151 235.183C128.771 234.536 127.408 233.854 126.06 233.145C124.716 232.438 123.31 231.777 122.213 230.705C120.093 228.632 119.202 225.507 119.922 222.629C120.37 220.838 121.571 219.319 122.435 217.706C123.335 216.025 124.156 214.303 124.95 212.569C126.519 209.143 128.048 205.704 129.706 202.318C131.3 199.063 132.917 195.817 134.335 192.479C137.148 185.857 139.153 178.74 138.189 171.49C137.22 164.209 134.129 157.463 131.749 150.58C130.527 147.047 129.485 143.441 128.969 139.731C128.407 135.689 128.184 131.592 128.238 127.513C128.346 119.265 129.67 111.087 131.961 103.169C134.134 95.6608 137.041 87.9747 136.505 80.0249C136.343 77.6163 136.092 72.9957 133.096 72.2765C129.889 71.5065 128.326 75.7087 128.627 78.1702C129.03 81.4782 131.665 83.8233 134.281 85.5808C137.035 87.4309 140.206 88.8156 143.519 89.2092C145.056 89.392 146.621 89.339 148.131 88.9808C149.798 88.5854 151.187 87.7431 152.629 86.856C153.842 86.1099 156.182 84.9606 157.207 86.6374C157.996 87.9287 157.143 89.7943 156.489 90.9509C156.158 91.5375 156.585 92.1911 157.224 92.2308C160.343 92.4251 163.474 92.556 166.588 92.8158C167.591 92.8995 169.096 93.0833 169.233 94.3348C169.326 95.1861 168.75 96.2664 167.832 96.3569C166.918 96.447 166.629 97.7482 167.606 98.0277C169.629 98.6063 169.262 101.162 167.295 101.473C166.383 101.616 166.6 102.855 167.295 103.113C169.252 103.837 168.823 106.378 166.923 106.793C165.997 106.995 166.186 108.532 167.149 108.464C168.502 108.367 168.333 110.432 167.591 111.058C166.41 112.052 164.523 111.873 163.09 111.817C160.742 111.725 158.395 111.604 156.05 111.446C150.831 111.094 145.62 110.556 140.46 109.686C130.206 107.957 119.658 105.013 111.177 98.7609C101.846 91.8822 95.2777 79.3291 100.041 67.8608C104.51 57.1024 115.738 49.5076 127.064 47.8863C131.608 47.2357 136.345 46.9426 140.606 45.0891C142.511 44.2604 144.253 43.0649 145.52 41.4004C147.165 39.2381 147.706 36.5796 147.864 33.9151C147.983 31.8912 147.869 29.864 147.87 27.8388C147.871 26.9284 147.931 26.0175 147.9 25.1077C147.868 24.1601 147.759 23.2075 147.922 22.2672C148.247 20.3937 149.344 18.6944 150.415 17.1617C151.447 15.6858 152.625 14.3895 154.298 13.6448C159.99 11.1113 166.995 13.5879 170.363 18.6369C172.691 22.1271 173.867 26.7542 172.734 30.8725C172.2 32.8162 171.091 34.5889 169.439 35.7733C168.496 36.4496 167.432 36.9255 166.316 37.2349C165.03 37.5916 163.776 38.0582 163.049 39.2684C161.439 41.948 164.385 44.1369 166.757 44.5729C168.124 44.8242 169.512 44.8128 170.894 44.8989C172.643 45.0078 174.383 45.4687 176.052 45.981C182.964 48.1019 188.683 52.5507 193.403 57.9248C195.804 60.6575 197.915 63.6075 200.003 66.5809C202.243 69.771 204.451 72.985 206.543 76.2745C208.629 79.5544 210.61 82.9096 212.368 86.3777C213.247 88.1118 214.058 89.9069 214.433 91.8258C214.498 92.1576 214.812 93.0283 214.193 92.9711C213.918 92.9457 213.521 92.2221 213.387 92.0006C212.947 91.271 212.731 90.4205 212.689 89.5738C212.51 86.0219 215.283 82.8072 217.543 80.3575C219.899 77.8027 222.624 75.6068 225.629 73.8605C228.739 72.054 232.096 70.7566 235.171 68.8705C236.726 67.9164 238.234 66.8855 239.688 65.7827C240.362 65.2711 241.039 64.55 241.941 64.5376C242.688 64.5273 243.408 64.9718 243.743 65.6406C244.604 67.3641 242.388 68.8624 241.337 69.9133C240.808 70.4428 241.208 71.3496 241.939 71.3654C244.615 71.4232 247.338 71.3285 250.005 71.5397C252.754 71.7574 252.502 74.8329 252.502 76.8403C252.502 77.8959 252.514 79.6266 251.042 79.4611C249.955 79.339 249.964 81.0412 251.042 81.1623C254.574 81.5594 254.261 76.886 254.203 74.6371C254.145 72.3565 252.736 70.0712 250.294 69.8529C249.051 69.7418 247.777 69.7904 246.531 69.7634C245 69.7304 243.469 69.6973 241.939 69.6642L242.54 71.1163C243.85 69.8064 245.649 68.5082 245.64 66.4732C245.626 63.3164 241.985 61.9155 239.618 63.7008C236.313 66.1928 232.893 68.4234 229.147 70.2037C225.744 71.8205 222.558 73.5631 219.655 75.9943C216.85 78.3442 214.127 81.2133 212.355 84.4404C210.801 87.2683 210.238 91.0742 212.526 93.7012C213.462 94.7768 215.193 95.4776 216.047 93.8906C216.792 92.5084 215.84 90.1959 215.34 88.8624C213.878 84.9687 211.635 81.2974 209.474 77.7599C207.221 74.0707 204.799 70.4876 202.327 66.9431C200.131 63.7956 197.932 60.6464 195.456 57.7098C190.51 51.8446 184.459 46.934 177.087 44.5256C175.324 43.9496 173.479 43.4495 171.63 43.2571C170.013 43.089 168.351 43.221 166.76 42.8399C165.123 42.4475 163.173 40.7322 165.279 39.4018C166.39 38.7003 167.901 38.5821 169.094 37.9706C173.338 35.797 175.147 31.0808 174.814 26.5073C174.474 21.8545 172.284 17.1262 168.585 14.2054C163.219 9.96884 154.195 9.50477 149.721 15.2508C148.536 16.7738 147.457 18.4283 146.752 20.232C146.008 22.1353 146.237 23.9184 146.207 25.9068C146.148 29.8957 146.791 34.3664 145.375 38.184C143.59 42.9958 138.211 44.4677 133.651 45.2553C128.573 46.1324 123.485 46.3383 118.667 48.3285C112.411 50.9126 106.681 54.9669 102.518 60.3386C100.46 62.9944 98.8092 65.9619 97.7508 69.1566C96.5739 72.7092 96.5399 76.5487 97.1762 80.2101C98.2242 86.2408 101.333 91.7708 105.58 96.1339C113.533 104.306 124.924 108.295 135.852 110.55C141.486 111.713 147.208 112.438 152.939 112.914C155.617 113.136 158.3 113.301 160.984 113.427C163.6 113.55 167.434 114.184 169.253 111.767C170.568 110.018 169.694 106.58 167.149 106.762L167.375 108.433C171.058 107.63 171.153 102.733 167.748 101.473V103.113C171.465 102.527 171.573 97.3928 168.059 96.3873L167.833 98.0581C170.483 97.7969 172.059 94.2421 170.019 92.2757C168.706 91.01 166.579 91.1124 164.896 91.0076C162.338 90.8483 159.781 90.689 157.224 90.5297L157.958 91.8096C159.231 89.559 160.149 85.8203 157.174 84.445C153.825 82.8976 150.871 86.53 147.85 87.2999C144.242 88.2191 140.373 87.0686 137.188 85.3494C134.223 83.7492 130.325 81.1736 130.269 77.3999C130.25 76.086 131.703 72.5314 133.383 74.3763C134.529 75.6354 134.64 78.0208 134.773 79.6116C135.122 83.7987 134.427 87.9736 133.411 92.0247C132.387 96.1075 131.033 100.097 129.914 104.153C128.789 108.233 127.936 112.385 127.365 116.578C126.251 124.755 126.139 133.207 127.509 141.363C128.792 149.003 132.19 156.029 134.526 163.362C135.683 166.996 136.641 170.766 136.738 174.597C136.837 178.486 136.107 182.327 134.943 186.026C132.654 193.301 128.814 199.953 125.666 206.867C124.002 210.522 122.438 214.232 120.477 217.743C119.607 219.3 118.595 220.706 118.211 222.478C117.91 223.869 117.904 225.3 118.181 226.695C118.758 229.597 120.637 232.075 123.192 233.532C125.955 235.107 128.843 236.509 131.764 237.765C136.901 239.973 143.238 242.475 148.924 241.154C152.388 240.35 155.2 237.296 155.828 233.797C156.379 230.726 155.566 227.587 155.225 224.538C154.698 219.825 155.103 215.185 156.517 210.65C157.597 207.183 159.153 203.884 160.942 200.729C162.404 198.153 163.914 195.653 165.121 192.941C167.45 187.706 169.069 182.178 170.205 176.568C172.374 165.853 173.025 154.681 172.029 143.79C171.677 139.937 171.163 136.011 169.989 132.312C169.416 130.504 168.501 127.623 166.445 126.97C161.292 125.335 164.313 137.338 164.651 139.035C166.954 150.609 169.728 162.067 171.595 173.729C172.827 181.427 173.751 189.177 174.247 196.959C174.714 204.286 174.576 211.624 175.774 218.892C176.772 224.945 179.115 233.158 185.57 235.475C188.95 236.688 193.044 236.277 196.505 235.626C199.938 234.98 203.204 233.698 206.347 232.201C209.375 230.759 212.446 229.254 215.372 227.614C217.886 226.204 219.454 223.853 219.282 220.889C219.19 219.306 218.628 217.781 217.666 216.521C216.598 215.12 214.874 214.576 213.784 213.259C212.545 211.762 212.415 209.427 212.077 207.593C211.682 205.454 211.291 203.314 210.904 201.173C209.358 192.602 207.958 184.009 206.151 175.488C204.364 167.063 202.298 158.698 199.958 150.411C197.67 142.307 195.075 134.304 192.339 126.342C189.618 118.427 186.848 110.519 184.62 102.446C182.353 94.2319 180.97 85.956 180.072 77.4898C179.871 75.5994 179.767 73.7158 179.697 71.8172C179.664 70.9184 179.593 69.9962 179.371 69.1221C179.172 68.3349 178.807 67.4441 177.993 67.1287C177.046 66.7618 176.139 67.4272 175.528 68.1011C173.565 70.2672 174.331 73.7568 175.245 76.2298C176.355 79.2351 178.088 81.9754 179.922 84.5849C181.684 87.0911 183.611 89.4738 185.398 91.961C187.681 95.1393 189.847 98.399 192.182 101.541C196.581 107.461 201.424 113.436 208.451 116.269C214.654 118.77 221.268 117.936 226.485 113.734C230.881 110.194 233.902 105.134 238.947 102.385C239.909 101.861 239.051 100.392 238.089 100.916Z" fill="white"/>
<path d="M165.776 38.2191C162.589 39.016 162.012 38.8108 160.654 38.759C159.296 38.7072 157.91 38.33 156.87 37.4548C158.559 38.9346 160.198 41.2472 163.386 41.7254C163.386 41.7254 161.633 38.6973 165.776 38.2191Z" fill="white"/>
<path d="M165.55 37.3989C164.175 37.74 163.02 38.0191 161.64 37.9606C160.186 37.899 158.653 37.8173 157.471 36.8533C157.116 36.5631 156.616 36.5054 156.268 36.8533C155.959 37.1632 155.923 37.7508 156.268 38.0563C157.218 38.8951 158.059 39.8491 159.054 40.6383C160.263 41.5979 161.623 42.3006 163.16 42.5455C163.863 42.6577 164.518 41.9897 164.12 41.296C164.101 41.2619 164.083 41.2268 164.066 41.1915C164.046 41.1513 163.971 40.982 164.04 41.141C164.112 41.3086 164.024 41.098 164.01 41.0566C163.963 40.9139 163.927 40.7708 163.89 40.6254C163.824 40.3712 163.878 40.757 163.875 40.5257C163.873 40.4374 163.873 40.3481 163.87 40.26C163.864 40.0504 163.816 40.3691 163.882 40.1589C163.91 40.0675 163.93 39.9757 163.965 39.8859C163.888 40.0839 164.007 39.8381 164.049 39.7699C164.153 39.604 163.975 39.8451 164.056 39.7638C164.097 39.7236 164.136 39.6817 164.176 39.6413C164.193 39.6237 164.37 39.4912 164.233 39.5889C164.276 39.5586 164.32 39.5269 164.366 39.5018C164.441 39.4608 164.513 39.4171 164.59 39.3793C164.694 39.3282 164.617 39.364 164.687 39.3361C165.032 39.1999 165.41 39.1153 165.776 39.0697C166.232 39.0132 166.627 38.7193 166.627 38.2191C166.627 37.8034 166.236 37.3116 165.776 37.3685C164.264 37.5563 162.491 38.1454 162.213 39.8709C162.089 40.6408 162.263 41.4772 162.651 42.1547L163.612 40.9051C162.292 40.6947 161.111 40.1401 160.079 39.2923C159.158 38.535 158.364 37.6418 157.471 36.8533L156.268 38.0563C157.153 38.778 158.181 39.2528 159.305 39.4584C160.036 39.5919 160.778 39.6189 161.518 39.6561C163.038 39.7326 164.536 39.4032 166.003 39.0393C167.065 38.7758 166.615 37.1348 165.55 37.3989Z" fill="white"/>
<path d="M238.052 79.461C236.181 79.5113 234.894 81.1978 234.891 82.9949C234.888 84.792 236.185 86.4786 238.052 86.5287V84.8275C236.181 84.8777 234.894 86.5642 234.891 88.3613C234.888 90.1589 236.185 91.845 238.052 91.8952V90.1939C236.307 90.2408 235.093 91.69 234.913 93.3535C234.739 94.9691 235.696 96.7696 237.348 97.1729C237.815 97.287 238.299 97.2616 238.775 97.2616H241.07C244.387 97.2616 247.713 97.3302 251.029 97.2616C252.823 97.2245 254.066 95.6898 254.193 93.9789C254.333 92.1018 252.998 90.2465 251.041 90.194V91.8952C252.913 91.8449 254.2 90.1585 254.203 88.3614C254.206 86.5642 252.909 84.8777 251.041 84.8275V86.5288C252.913 86.4785 254.2 84.792 254.203 82.9949C254.206 81.1978 252.909 79.5112 251.041 79.4611C249.946 79.4317 249.947 81.1329 251.041 81.1623C252.959 81.2138 252.96 84.776 251.041 84.8275C249.947 84.8569 249.945 86.4993 251.041 86.5288C252.959 86.5802 252.96 90.1425 251.041 90.194C249.947 90.2234 249.945 91.8658 251.041 91.8952C252.988 91.9474 252.948 95.5854 250.982 95.5604C249.871 95.5463 248.759 95.5604 247.648 95.5604H238.272C237.595 95.5604 237.055 95.2776 236.758 94.584C236.304 93.524 236.837 91.9278 238.052 91.8952C239.147 91.8658 239.149 90.2234 238.052 90.1939C236.135 90.1424 236.134 86.5802 238.052 86.5287C239.147 86.4993 239.149 84.8569 238.052 84.8275C236.135 84.776 236.134 81.2138 238.052 81.1623C239.145 81.133 239.149 79.4316 238.052 79.461Z" fill="white"/>
<path d="M247.615 74.0945C244.62 74.0945 241.626 74.0945 238.631 74.0945C237.992 74.0945 237.395 74.1094 236.795 74.3879C235.415 75.029 234.744 76.6623 234.928 78.1157C235.123 79.6514 236.241 81.0025 237.836 81.1506C238.346 81.1978 238.872 81.1622 239.382 81.1622H244.507C245.602 81.1622 245.604 79.4609 244.507 79.4609H238.325C237.659 79.4609 237.141 79.2519 236.809 78.5872C236.365 77.6986 236.607 76.3341 237.553 75.9022C237.887 75.7501 238.3 75.7957 238.699 75.7957H243.604C244.941 75.7957 246.278 75.7957 247.615 75.7957C248.71 75.7957 248.711 74.0945 247.615 74.0945Z" fill="white"/>
<path d="M237.973 86.5286H244.507C245.602 86.5286 245.604 84.8274 244.507 84.8274H237.973C236.878 84.8274 236.876 86.5286 237.973 86.5286Z" fill="white"/>
<path d="M238.053 91.8951H244.587C245.681 91.8951 245.683 90.1938 244.587 90.1938H238.053C236.958 90.1938 236.956 91.8951 238.053 91.8951Z" fill="white"/>
<path d="M159.002 107.792C161.565 107.973 164.128 108.153 166.69 108.334C167.056 108.36 167.421 108.385 167.786 108.411C168.245 108.444 168.636 107.997 168.636 107.561C168.636 107.073 168.246 106.742 167.786 106.71C165.223 106.529 162.66 106.349 160.098 106.168C159.732 106.142 159.367 106.117 159.002 106.091C158.543 106.059 158.152 106.505 158.152 106.942C158.152 107.429 158.542 107.76 159.002 107.792Z" fill="white"/>
<path d="M159.043 102.683C161.606 102.863 164.168 103.044 166.731 103.224C167.096 103.25 167.461 103.276 167.826 103.302C168.285 103.334 168.677 102.888 168.677 102.451C168.677 101.964 168.286 101.633 167.826 101.6C165.264 101.42 162.701 101.239 160.138 101.059C159.773 101.033 159.408 101.007 159.043 100.981C158.584 100.949 158.192 101.395 158.192 101.832C158.192 102.319 158.583 102.65 159.043 102.683Z" fill="white"/>
<path d="M159.889 97.4697C162.452 97.6503 165.015 97.8309 167.578 98.0115C167.943 98.0373 168.308 98.063 168.673 98.0887C169.132 98.121 169.524 97.6746 169.524 97.2381C169.524 96.7508 169.133 96.4199 168.673 96.3875C166.11 96.2069 163.548 96.0263 160.985 95.8457C160.62 95.82 160.255 95.7942 159.889 95.7685C159.431 95.7362 159.039 96.1826 159.039 96.6191C159.039 97.1064 159.429 97.4373 159.889 97.4697Z" fill="white"/>
<path d="M241.939 11.4418C243.822 11.4418 245.348 10.9054 245.348 10.2437C245.348 9.58204 243.822 9.04565 241.939 9.04565C240.055 9.04565 238.529 9.58204 238.529 10.2437C238.529 10.9054 240.055 11.4418 241.939 11.4418Z" fill="white"/>
<path d="M149.26 216.02C148.177 216.27 147.284 217.078 146.837 218.084C146.331 219.224 146.383 220.454 146.877 221.59C147.337 222.648 148.209 223.694 149.25 224.22C150.501 224.851 152.068 224.33 152.225 222.829C152.261 222.487 151.937 222.073 151.6 222.009C150.414 221.784 149.419 222.349 148.758 223.322C148.108 224.278 147.973 225.438 148.14 226.557C148.474 228.792 150.12 230.691 152.238 231.425C152.673 231.575 153.169 231.253 153.285 230.83C153.413 230.363 153.126 229.935 152.691 229.784C151.279 229.295 150.221 228.027 149.873 226.589C149.719 225.952 149.699 225.255 149.965 224.643C150.179 224.151 150.638 223.553 151.148 223.649L150.524 222.829C150.544 222.629 150.607 222.764 150.479 222.787C150.361 222.807 150.364 222.819 150.241 222.792C149.908 222.718 149.609 222.44 149.369 222.212C148.855 221.722 148.443 221.121 148.259 220.429C147.957 219.291 148.492 217.942 149.712 217.661C150.778 217.415 150.327 215.775 149.26 216.02Z" fill="white"/>
<path d="M207.304 209.209C207.229 208.001 205.845 207.384 204.821 207.973C203.703 208.616 203.672 210.166 203.677 211.299C203.683 212.588 203.975 213.866 204.84 214.855C205.585 215.705 206.858 216.251 207.969 215.845C209.429 215.311 209.643 213.293 208.127 212.691C207.852 212.581 207.498 212.714 207.3 212.909C205.97 214.217 206.392 216.399 207.645 217.604C209.25 219.148 211.716 218.843 213.683 218.344C214.743 218.075 214.294 216.433 213.23 216.703C211.942 217.03 210.156 217.414 209.006 216.543C208.587 216.225 208.333 215.762 208.212 215.273C208.105 214.845 208.183 214.427 208.503 214.112L207.675 214.331C207.651 214.321 207.493 214.191 207.5 214.192C207.53 214.197 207.517 214.216 207.419 214.241C207.172 214.306 206.92 214.274 206.686 214.168C206.091 213.899 205.714 213.272 205.544 212.668C205.317 211.861 205.323 210.936 205.434 210.109C205.458 209.926 205.542 209.555 205.62 209.468C205.622 209.466 205.738 209.407 205.696 209.448C205.746 209.399 205.796 209.539 205.739 209.462C205.682 209.384 205.609 209.315 205.602 209.209C205.669 210.297 207.371 210.304 207.304 209.209Z" fill="white"/>
<path d="M152.212 22.2553C151.162 22.5311 150.316 23.4633 150.142 24.5349C149.995 25.4433 150.3 26.3709 150.746 27.176C151.541 28.6109 153.1 29.6993 152.832 31.5189C152.68 32.5514 151.963 33.4825 151.003 33.8933C150.137 34.264 148.863 34.015 148.67 33.0934C148.634 33.7493 148.13 34.334 147.505 34.5344C146.879 34.7348 146.168 34.5762 145.638 34.1883C145.309 33.9474 145.035 33.6098 144.942 33.2127C144.844 32.794 144.952 32.3589 145.021 31.9345C145.464 29.2252 144.334 26.5406 143.378 23.9671C142.422 21.3935 141.627 18.4921 142.697 15.9636C142.977 15.3001 143.395 14.6738 143.993 14.2727C144.591 13.8715 145.39 13.7272 146.048 14.0203C145.77 13.5137 145.331 13.0993 145.119 12.5618C144.907 12.0243 145.053 11.2631 145.609 11.1054C146.265 10.9194 146.772 11.67 147.042 12.2967C147.055 11.5049 147.245 10.7165 147.592 10.0048C147.692 9.80125 147.814 9.59318 148.015 9.48792C148.444 9.26312 148.985 9.66144 149.093 10.1332C149.201 10.6049 149.016 11.0888 148.834 11.5372C153.262 7.71032 158.784 5.27275 164.5 4.01374C166.839 3.49842 169.314 3.17847 171.603 3.885C172.511 4.16525 173.439 4.67583 173.793 5.55776C174.147 6.4397 173.567 7.68219 172.617 7.65717C173.78 7.2457 175.185 7.75747 175.858 8.79152C176.532 9.82556 176.451 11.2768 175.713 12.2659C174.975 13.255 173.647 13.7455 172.432 13.5326C173.721 13.7814 174.79 14.9114 174.966 16.212C175.038 16.7365 174.962 17.3091 174.622 17.7154C174.377 18.0091 174.02 18.1868 173.661 18.3174C171.35 19.1562 169.864 17.658 167.715 17.6582C165.147 17.6583 162.57 18.1963 160.211 19.2108C159.468 19.5301 158.69 19.9534 158.371 20.6958C158.206 21.0803 158.184 21.5102 158.191 21.9287C158.228 24.079 158.897 26.4841 157.612 28.2085C158.047 27.624 156.126 24.5871 155.781 24.0619C154.969 22.8284 153.817 21.8337 152.212 22.2553Z" fill="white"/>
<path d="M151.986 21.4352C150.832 21.7673 149.92 22.6152 149.484 23.7311C148.985 25.0121 149.368 26.4498 150.012 27.6054C150.51 28.501 151.273 29.2196 151.752 30.1275C152.193 30.9646 152.034 31.9442 151.372 32.6208C151.045 32.9561 150.618 33.2023 150.196 33.2075C150.034 33.2095 149.835 33.1797 149.737 33.1369C149.533 33.0477 149.529 33.0182 149.49 32.8674C149.236 31.8832 147.909 32.1841 147.819 33.0935C147.768 33.6113 147.152 33.8322 146.714 33.7543C146.461 33.7094 146.218 33.5834 146.029 33.4124C145.755 33.1632 145.729 32.8842 145.778 32.5283C145.9 31.6448 146.014 30.8032 145.936 29.9086C145.862 29.0482 145.694 28.1978 145.461 27.3669C144.586 24.2446 142.613 21.0532 143.092 17.6969C143.271 16.4391 144.151 14.1737 145.822 14.8406C146.541 15.1277 147.125 14.1835 146.782 13.5911C146.581 13.2425 146.32 12.9377 146.102 12.6C145.934 12.3396 145.903 12.1549 145.883 11.9667C145.875 11.8962 145.946 11.8469 145.859 11.9193C145.848 11.928 145.787 11.9339 145.784 11.9239C145.797 11.9691 145.985 12.1328 146.029 12.1979C146.142 12.3615 146.226 12.5456 146.307 12.7261C146.672 13.5434 147.868 13.071 147.892 12.2968C147.904 11.9223 147.951 11.5656 148.049 11.203C148.1 11.0127 148.159 10.8214 148.234 10.6389C148.254 10.5894 148.452 10.2679 148.436 10.2331C148.45 10.2644 148.181 10.2892 148.198 10.2553C148.216 10.2182 148.273 10.3399 148.273 10.3594C148.262 10.6972 148.139 10.9987 148.013 11.3112C147.876 11.6549 148.106 12.0971 148.404 12.2718C148.747 12.472 149.146 12.387 149.435 12.1388C152.298 9.67735 155.646 7.79097 159.176 6.46797C160.961 5.79923 162.794 5.26275 164.654 4.84987C166.637 4.40966 168.752 4.08022 170.762 4.54063C171.524 4.71491 172.498 4.9889 172.923 5.71305C173.092 6.00139 173.089 6.2083 172.974 6.48776C172.939 6.5743 172.873 6.67226 172.798 6.7411C172.766 6.7708 172.731 6.80423 172.617 6.80664C172.692 7.36357 172.768 7.92053 172.843 8.47747C174.164 8.04679 175.475 9.03688 175.467 10.4182C175.458 11.8636 174.068 12.9307 172.658 12.7125C172.204 12.6423 171.743 12.8277 171.612 13.3066C171.495 13.7309 171.755 14.2557 172.206 14.3529C173 14.5241 173.687 15.0519 173.995 15.8198C174.113 16.1148 174.177 16.465 174.128 16.782C174.066 17.1818 173.788 17.3585 173.435 17.4972C171.725 18.169 170.044 17.0552 168.354 16.8503C167.319 16.7248 166.233 16.8426 165.204 16.9777C164.034 17.1314 162.879 17.3745 161.754 17.7319C160.777 18.0419 159.726 18.389 158.862 18.9511C157.912 19.5685 157.395 20.4434 157.344 21.5786C157.253 23.5963 158.161 25.9869 156.877 27.7792C157.367 28.0654 157.856 28.3516 158.346 28.6378C158.78 27.9588 158.359 27.0466 158.072 26.4C157.74 25.6496 157.325 24.9339 156.896 24.235C156.463 23.5287 156.001 22.8143 155.365 22.2731C154.396 21.449 153.23 21.1363 151.986 21.4352C150.922 21.6908 151.372 23.3317 152.438 23.0757C153.915 22.7208 154.797 24.0604 155.467 25.159C155.818 25.7339 156.154 26.3197 156.448 26.9258C156.489 27.0089 156.528 27.0925 156.566 27.1766C156.566 27.1752 156.673 27.4282 156.62 27.2954C156.669 27.4175 156.716 27.5413 156.755 27.6671C156.775 27.7325 156.864 28.1499 156.821 27.8774C156.828 27.9223 156.832 27.9818 156.822 28.0255C156.834 27.971 156.92 27.7114 156.877 27.7792C156.629 28.1662 156.797 28.7177 157.182 28.943C157.61 29.1932 158.078 29.0124 158.346 28.6378C159.644 26.8254 159.178 24.5363 159.062 22.4711C159.037 22.0226 158.966 21.4786 159.141 21.0518C159.304 20.6565 159.696 20.4156 160.056 20.223C161.027 19.7027 162.127 19.3647 163.19 19.0893C164.313 18.7981 165.457 18.6105 166.615 18.5417C167.146 18.5101 167.698 18.4711 168.229 18.5367C168.677 18.592 169.118 18.7267 169.548 18.8592C170.457 19.1391 171.372 19.4437 172.336 19.4222C173.37 19.3992 174.617 19.0673 175.29 18.2309C176.089 17.2386 175.932 15.8019 175.355 14.7417C174.801 13.725 173.789 12.9563 172.658 12.7125C172.507 13.2593 172.356 13.8061 172.206 14.3529C174.689 14.7372 177.152 13.0587 177.168 10.4182C177.183 7.97681 174.762 6.06373 172.391 6.83703C171.507 7.12524 171.621 8.52862 172.617 8.50786C173.624 8.48683 174.413 7.74947 174.66 6.79273C174.912 5.82123 174.56 4.84547 173.842 4.16496C172.207 2.6165 169.461 2.49427 167.351 2.69181C165.06 2.90642 162.784 3.48308 160.595 4.1801C158.48 4.85348 156.412 5.70027 154.444 6.72761C152.22 7.88863 150.135 9.30013 148.232 10.9359C148.706 11.2117 149.18 11.4876 149.654 11.7635C149.939 11.0534 150.156 10.2079 149.749 9.49344C149.405 8.88932 148.702 8.4501 147.993 8.60627C147.257 8.76805 146.912 9.40587 146.649 10.0491C146.356 10.7655 146.215 11.524 146.191 12.2968C146.719 12.1536 147.247 12.0106 147.776 11.8674C147.519 11.2909 147.129 10.7016 146.548 10.41C145.894 10.0816 145.1 10.2185 144.622 10.7787C144.18 11.2965 144.079 12.0471 144.265 12.6909C144.459 13.3621 144.971 13.8589 145.313 14.4497C145.634 14.0331 145.954 13.6166 146.274 13.2001C145.352 12.8322 144.246 13.0415 143.453 13.616C142.629 14.214 142.111 15.0763 141.765 16.02C141.046 17.9811 141.326 20.1733 141.876 22.1377C142.446 24.1694 143.373 26.0818 143.904 28.126C144.161 29.118 144.317 30.1266 144.256 31.1538C144.192 32.2419 143.797 33.2692 144.508 34.2424C145.18 35.1608 146.36 35.6206 147.476 35.4159C148.627 35.2049 149.409 34.2223 149.52 33.0934C148.963 33.1688 148.406 33.2442 147.849 33.3195C148.165 34.5441 149.466 35.0334 150.622 34.8677C151.919 34.6816 152.975 33.6492 153.449 32.4651C153.92 31.2891 153.702 30.0268 153.048 28.9693C152.435 27.9779 151.542 27.1596 151.153 26.0363C150.938 25.4133 150.844 24.7182 151.167 24.1148C151.441 23.6042 151.88 23.2362 152.438 23.0757C153.488 22.7735 153.042 21.1314 151.986 21.4352Z" fill="white"/>
<path d="M216.132 7.89566L217.914 10.1231C218.042 10.2823 218.322 10.3723 218.516 10.3723C218.724 10.3723 218.974 10.2796 219.117 10.1231C219.266 9.96106 219.376 9.74823 219.366 9.52167L219.336 9.29556C219.295 9.15148 219.223 9.02635 219.117 8.92023L217.335 6.69274C217.208 6.53361 216.928 6.4436 216.734 6.4436C216.525 6.4436 216.276 6.53627 216.132 6.69274C215.983 6.85483 215.873 7.06766 215.883 7.29422L215.913 7.52033C215.954 7.66441 216.027 7.78954 216.132 7.89566Z" fill="#facc15"/>
<path d="M211.388 22.4C212.871 22.5632 214.355 22.7264 215.838 22.8896C216.282 22.9385 216.708 22.4635 216.689 22.039C216.666 21.5364 216.313 21.2407 215.838 21.1884C214.355 21.0252 212.871 20.862 211.388 20.6988C210.944 20.6499 210.518 21.1249 210.537 21.5494C210.56 22.052 210.912 22.3477 211.388 22.4Z" fill="#facc15"/>
<path d="M227.496 1.28336C227.645 2.32284 227.793 3.36232 227.942 4.40184C227.97 4.59755 228.171 4.8154 228.333 4.9102C228.515 5.0169 228.784 5.0621 228.988 4.99594C229.194 4.92934 229.393 4.80177 229.497 4.60502C229.611 4.38879 229.617 4.18942 229.582 3.94958C229.434 2.9101 229.285 1.87061 229.137 0.831098C229.109 0.63538 228.908 0.41753 228.746 0.322734C228.564 0.216029 228.295 0.170834 228.09 0.236992C227.885 0.303596 227.686 0.431159 227.582 0.62791C227.468 0.844143 227.462 1.04351 227.496 1.28336Z" fill="#facc15"/>
<path d="M261.783 41.0995C263.04 42.9858 264.42 44.789 265.911 46.4964C266.208 46.8357 266.815 46.8137 267.114 46.4964C269.96 43.4805 272.703 40.3683 275.501 37.3087C276.142 36.6076 276.784 35.907 277.436 35.2159C278.187 34.4199 276.987 33.2146 276.233 34.013C273.388 37.0289 270.644 40.1411 267.847 43.2007C267.205 43.9018 266.563 44.6024 265.911 45.2935H267.114C265.717 43.6936 264.43 42.0083 263.252 40.2408C262.648 39.3341 261.173 40.185 261.783 41.0995Z" fill="#1d232a"/>
<path d="M268.997 32.6289C265.407 30.4549 260.856 32.9362 258.364 35.6828C255.689 38.6327 254.479 42.6645 255.39 46.5771C256.299 50.4849 259.334 53.5149 263.19 54.5569C267.005 55.5875 271.032 54.4694 273.968 51.8814C277.047 49.1683 279.249 44.0261 276.61 40.287C276.345 39.9122 275.867 39.7358 275.446 39.9819C275.075 40.1987 274.875 40.7684 275.141 41.1456C277.08 43.8928 275.685 47.6136 273.611 49.8535C271.402 52.2393 268.125 53.6226 264.863 53.1708C261.581 52.7164 258.604 50.5743 257.426 47.4347C256.216 44.2126 256.784 40.6815 258.754 37.8922C259.807 36.4024 261.257 35.1509 262.885 34.3292C264.489 33.5196 266.521 33.1183 268.138 34.0978C269.077 34.6664 269.933 33.1959 268.997 32.6289Z" fill="#1d232a"/>
<path d="M168.401 23.9174C168.133 24.5205 168.188 25.1793 168.569 25.7266C168.935 26.2525 169.438 26.5876 170.043 26.7826C170.317 26.8707 170.466 26.8801 170.673 27.0459C170.599 26.9868 170.706 27.0877 170.717 27.1027C170.651 27.0142 170.767 27.1678 170.708 27.0949C170.723 27.1627 170.728 27.1674 170.721 27.109C170.724 27.1464 170.725 27.1838 170.722 27.2213C170.728 27.1249 170.706 27.272 170.7 27.2946C170.672 27.3912 170.717 27.2947 170.662 27.3729C170.642 27.4071 170.621 27.4402 170.598 27.4723C170.624 27.4346 170.616 27.4416 170.572 27.4934C170.484 27.571 170.44 27.6051 170.316 27.6652C170.069 27.7842 169.724 27.8345 169.433 27.8832C169.131 27.934 168.962 28.3072 169.037 28.5808C169.125 28.9012 169.431 29.0278 169.734 28.9769C170.437 28.8589 171.149 28.6612 171.577 28.0447C171.997 27.4397 171.938 26.6106 171.345 26.1438C170.881 25.7784 170.252 25.7404 169.837 25.4424C169.678 25.3285 169.521 25.1485 169.415 24.9258C169.398 24.89 169.398 24.891 169.415 24.929C169.402 24.8935 169.39 24.8575 169.38 24.821C169.37 24.7849 169.362 24.7484 169.355 24.7116C169.36 24.7614 169.361 24.7657 169.358 24.7245C169.357 24.7006 169.366 24.5175 169.351 24.6263C169.354 24.6024 169.413 24.4173 169.38 24.4898C169.505 24.2103 169.461 23.8804 169.177 23.714C168.935 23.5726 168.526 23.6362 168.401 23.9174Z" fill="white"/>
<path d="M164.838 31.7895C165.573 32.1615 166.356 32.3789 167.176 32.4459C167.473 32.4701 167.756 32.1677 167.743 31.8788C167.729 31.5509 167.494 31.3377 167.176 31.3117C167.09 31.3047 167.005 31.2921 166.919 31.2853C167.097 31.2994 166.925 31.2854 166.886 31.2792C166.85 31.2733 166.813 31.267 166.777 31.2604C166.607 31.2294 166.439 31.1904 166.273 31.1435C166.106 31.0966 165.942 31.0419 165.782 30.9795C165.748 30.9663 165.713 30.9497 165.678 30.9384C165.837 30.9906 165.679 30.938 165.644 30.9223C165.565 30.8868 165.488 30.8491 165.411 30.8101C165.146 30.6763 164.784 30.7317 164.635 31.0136C164.498 31.2717 164.556 31.6464 164.838 31.7895Z" fill="white"/>
<path d="M163.241 22.3788C163.345 22.3124 163.452 22.2542 163.563 22.201C163.619 22.1743 163.6 22.1877 163.554 22.2038C163.583 22.1935 163.612 22.1817 163.64 22.1713C163.698 22.1506 163.757 22.132 163.816 22.1153C163.934 22.0818 164.054 22.0573 164.176 22.0389C164.05 22.0579 164.21 22.0384 164.254 22.0357C164.324 22.0314 164.393 22.0297 164.462 22.0305C164.523 22.0311 164.585 22.0338 164.646 22.0384C164.677 22.0407 164.708 22.0449 164.738 22.0468C164.822 22.0521 164.642 22.0287 164.724 22.0447C164.846 22.0682 164.965 22.0906 165.084 22.1258C165.142 22.1433 165.201 22.1627 165.258 22.1841C165.27 22.1886 165.363 22.2262 165.297 22.1983C165.232 22.1703 165.323 22.2111 165.334 22.2165C165.453 22.2727 165.565 22.3383 165.674 22.411C165.921 22.5763 166.313 22.4671 166.45 22.2075C166.601 21.922 166.51 21.6081 166.246 21.4317C165.196 20.7295 163.731 20.721 162.668 21.3994C162.418 21.5589 162.294 21.9109 162.465 22.1753C162.626 22.4252 162.973 22.5494 163.241 22.3788Z" fill="white"/>
<path d="M164.288 25.121C164.61 25.09 164.934 25.0958 165.255 25.1377L165.104 25.1174C165.392 25.1572 165.674 25.2253 165.948 25.3219C166.228 25.4206 166.58 25.21 166.645 24.9258C166.717 24.6085 166.549 24.334 166.249 24.2283C165.627 24.0089 164.945 23.9237 164.288 23.9869C164.134 24.0017 164 24.0402 163.887 24.1529C163.789 24.2513 163.714 24.4126 163.721 24.5539C163.733 24.8368 163.972 25.1514 164.288 25.121Z" fill="white"/>
<path d="M170.59 22.2731C170.731 22.1863 170.878 22.1104 171.031 22.0451L170.895 22.1023C171.159 21.992 171.434 21.9161 171.717 21.8759L171.566 21.8961C171.666 21.8828 171.767 21.8737 171.868 21.869C172.018 21.8622 172.162 21.8105 172.269 21.703C172.367 21.6046 172.442 21.4433 172.435 21.302C172.422 21.0065 172.186 20.7203 171.868 20.7349C171.216 20.765 170.575 20.951 170.018 21.2937C169.765 21.449 169.646 21.8083 169.814 22.0696C169.978 22.3231 170.32 22.4392 170.59 22.2731Z" fill="white"/>
<path d="M171.051 24.4804C171.613 24.2808 172.174 24.0813 172.736 23.8818C172.877 23.8318 172.998 23.7534 173.075 23.6212C173.146 23.4997 173.177 23.3205 173.132 23.1842C173.043 22.9092 172.734 22.6819 172.435 22.7882C171.873 22.9877 171.311 23.1872 170.749 23.3867C170.608 23.4368 170.488 23.5152 170.41 23.6473C170.339 23.7689 170.309 23.9481 170.353 24.0843C170.442 24.3593 170.751 24.5867 171.051 24.4804Z" fill="white"/>
<path d="M250.018 192.907C252.951 196.16 257.496 197.864 261.846 197.482C263.11 197.371 264.351 197.106 265.536 196.651C266.551 196.262 266.171 194.794 265.084 195.011C262.331 195.558 260.068 197.715 259.174 200.344C258.262 203.027 259.086 205.976 260.993 208.014C262.05 209.143 263.447 209.971 264.962 210.3C266.028 210.532 266.468 208.98 265.414 208.66C263.218 207.994 260.634 208.654 259.097 210.384C257.473 212.212 257.137 214.822 258.1 217.041C258.283 217.463 258.901 217.559 259.264 217.346C259.699 217.092 259.753 216.606 259.569 216.183C258.908 214.66 259.253 212.703 260.385 211.495C261.541 210.26 263.354 209.813 264.962 210.3C265.113 209.754 265.263 209.207 265.414 208.66C263.257 208.191 261.45 206.525 260.778 204.42C260.098 202.293 260.74 200.024 262.281 198.436C263.171 197.519 264.282 196.9 265.536 196.651C265.385 196.104 265.235 195.557 265.084 195.011C260.314 196.839 254.646 195.503 251.221 191.704C250.487 190.889 249.287 192.095 250.018 192.907Z" fill="#facc15"/>
</g>
<defs fill="#1d232a">
<clipPath id="clip0_69_1189" fill="#1d232a">
<rect width="327" height="246.111" fill="white"/>
</clipPath>
</defs>
</svg>