<svg width="327" height="179" viewBox="0 0 327 179" fill="none" xmlns="http://www.w3.org/2000/svg">
<g clip-path="url(#clip0_60_2667)">
<path d="M130.257 12.7982H21.5127C13.6092 12.7982 7.20221 19.2053 7.20221 27.1087V104.798C7.20221 112.701 13.6092 119.108 21.5127 119.108H130.257C138.16 119.108 144.567 112.701 144.567 104.798V27.1087C144.567 19.2053 138.16 12.7982 130.257 12.7982Z" fill="#FACC15"/>
<path d="M131.954 118.918C139.103 117.776 144.567 111.583 144.567 104.112V104.076L122.871 76.3667C119.71 72.3308 113.602 72.3309 110.442 76.3667L92.5071 99.2712C89.347 103.307 83.2383 103.307 80.0782 99.2712L51.701 63.0302C48.541 58.9943 42.4323 58.9943 39.2722 63.0302L7.20215 103.987V104.112C7.20215 111.46 12.4886 117.57 19.4648 118.855H77.1726L77.1235 118.918L131.954 118.918Z" fill="#F43F5E"/>
<path d="M86.2771 60.0489C93.1165 60.0489 98.6609 54.5045 98.6609 47.6651C98.6609 40.8257 93.1165 35.2813 86.2771 35.2813C79.4377 35.2813 73.8933 40.8257 73.8933 47.6651C73.8933 54.5045 79.4377 60.0489 86.2771 60.0489Z" fill="black"/>
<path d="M91.3599 71.5696V75.1846C91.3599 76.4531 90.3316 77.4815 89.0631 77.4815C87.8234 77.4815 86.8074 76.4977 86.7674 75.2586L86.2772 60.0489C79.4378 60.0489 73.8934 54.5045 73.8934 47.6651C73.8934 40.8257 79.4378 35.2813 86.2772 35.2813C93.1165 35.2813 82.4921 41.8362 90.8383 48.2697C90.8383 48.2697 94.8376 50.1824 94.4898 62.0062V68.261C94.4898 70.0197 93.1159 71.472 91.3599 71.5696Z" fill="#0EA5E9"/>
<path d="M79.3622 56.4421V65.1361H82.6659V57.1376" fill="#0EA5E9"/>
<path d="M289.259 85.8277C271.303 85.0251 262.797 66.7862 275.955 54.542C278.899 51.803 282.663 49.3951 287.471 47.7988C307.545 41.1345 327.48 46.1445 326.991 57.1376C326.502 68.1307 306.328 64.9784 314.566 76.183C322.296 86.6971 304.234 86.4971 289.259 85.8277Z" fill="#F43F5E"/>
<path d="M293.606 81.133C296.199 81.133 298.301 79.5371 298.301 77.5684C298.301 75.5998 296.199 74.0039 293.606 74.0039C291.013 74.0039 288.912 75.5998 288.912 77.5684C288.912 79.5371 291.013 81.133 293.606 81.133Z" fill="white"/>
<path d="M284.217 71.3957C286.81 71.3957 288.911 69.7998 288.911 67.8311C288.911 65.8625 286.81 64.2666 284.217 64.2666C281.624 64.2666 279.522 65.8625 279.522 67.8311C279.522 69.7998 281.624 71.3957 284.217 71.3957Z" fill="white"/>
<path d="M291.867 60.6152C294.46 60.6152 296.562 59.0193 296.562 57.0506C296.562 55.082 294.46 53.4861 291.867 53.4861C289.275 53.4861 287.173 55.082 287.173 57.0506C287.173 59.0193 289.275 60.6152 291.867 60.6152Z" fill="white"/>
<path d="M308.212 60.6152C310.805 60.6152 312.907 59.0193 312.907 57.0506C312.907 55.082 310.805 53.4861 308.212 53.4861C305.619 53.4861 303.517 55.082 303.517 57.0506C303.517 59.0193 305.619 60.6152 308.212 60.6152Z" fill="#0EA5E9"/>
<path d="M224.787 39.2311C224.814 39.3503 224.838 39.4687 224.8 39.5866C224.783 39.6385 224.73 39.7097 224.639 39.7842C224.456 39.9321 224.148 40.0202 223.892 40.0727C223.23 40.2081 222.544 40.1681 221.883 40.3179C221.178 40.4775 220.504 40.9292 220.452 41.7115C220.401 42.4628 221.149 42.9653 221.727 43.2871C222.412 43.6689 223.169 43.878 223.95 43.9252C224.245 43.943 224.496 43.6618 224.496 43.3798C224.496 43.0697 224.246 42.8522 223.95 42.8343C223.215 42.7899 222.51 42.5334 221.905 42.1133C221.789 42.0328 221.675 41.9268 221.579 41.8443C221.519 41.7929 221.53 41.7485 221.554 41.7019C221.683 41.4529 222.037 41.3921 222.322 41.3392C223.096 41.1954 223.905 41.2713 224.654 40.9907C225.055 40.8404 225.42 40.616 225.669 40.259C225.943 39.8642 225.94 39.3928 225.839 38.9411C225.775 38.6536 225.442 38.4848 225.168 38.5602C224.872 38.6415 224.722 38.9428 224.787 39.2311Z" fill="white"/>
<path d="M113.7 61.7195C113.7 61.7195 117.655 57.3514 113.281 53.1862C108.906 49.0209 102.782 49.7482 102.779 45.3702C100.481 50.2369 103.808 63.189 110.239 62.8316C115.158 62.6448 113.7 61.7195 113.7 61.7195Z" fill="#0EA5E9"/>
<path d="M116.438 60.8376L136.496 94.414C137.021 95.2924 136.76 96.4284 135.905 96.9901C135.05 97.5519 133.904 97.3398 133.306 96.5092L110.462 64.7619C109.817 63.8646 110.049 62.6101 110.973 62.0033L113.703 60.21C114.627 59.6032 115.871 59.8885 116.438 60.8376Z" fill="black"/>
<path d="M313.266 75.3777C310.342 75.4204 307.417 75.4631 304.492 75.5058C304.073 75.5119 303.653 75.518 303.233 75.5242C302.181 75.5395 302.178 77.1758 303.233 77.1604C306.157 77.1178 309.082 77.0751 312.007 77.0324C312.426 77.0262 312.846 77.0201 313.266 77.014C314.318 76.9987 314.321 75.3624 313.266 75.3777Z" fill="white"/>
<path d="M313.569 80.23C310.645 80.2727 307.72 80.3153 304.796 80.358C304.376 80.3642 303.956 80.3703 303.536 80.3764C302.484 80.3917 302.481 82.0281 303.536 82.0127C306.461 81.97 309.385 81.9273 312.31 81.8846C312.73 81.8785 313.15 81.8724 313.569 81.8662C314.621 81.8509 314.624 80.2146 313.569 80.23Z" fill="white"/>
<path d="M313.721 84.9306C310.796 84.9733 307.872 85.016 304.947 85.0587C304.527 85.0648 304.107 85.071 303.688 85.0771C302.636 85.0924 302.633 86.7287 303.688 86.7134C306.612 86.6707 309.537 86.628 312.461 86.5853C312.881 86.5792 313.301 86.5731 313.721 86.5669C314.773 86.5516 314.776 84.9153 313.721 84.9306Z" fill="white"/>
<path d="M126.295 77.2533C123.721 78.6414 121.146 80.0296 118.572 81.4177C118.202 81.617 117.833 81.8163 117.463 82.0156C116.536 82.5155 117.361 83.9287 118.289 83.4284C120.863 82.0403 123.438 80.6521 126.012 79.264C126.382 79.0647 126.752 78.8654 127.121 78.6661C128.048 78.1662 127.223 76.753 126.295 77.2533Z" fill="white"/>
<path d="M128.805 81.4174C126.23 82.8056 123.656 84.1937 121.081 85.5819C120.712 85.7811 120.342 85.9805 119.972 86.1798C119.045 86.6797 119.87 88.0929 120.798 87.5926C123.373 86.2045 125.947 84.8163 128.522 83.4282C128.891 83.2289 129.261 83.0296 129.631 82.8303C130.558 82.3304 129.733 80.9172 128.805 81.4174Z" fill="white"/>
<path d="M131.109 85.5171C128.535 86.9053 125.96 88.2934 123.386 89.6815C123.016 89.8808 122.647 90.0801 122.277 90.2794C121.35 90.7794 122.175 92.1925 123.103 91.6923C125.677 90.3041 128.252 88.916 130.826 87.5279C131.196 87.3286 131.566 87.1293 131.935 86.93C132.863 86.43 132.037 85.0169 131.109 85.5171Z" fill="white"/>
<path d="M223.605 56.3888C223.605 56.3888 227.47 57.4239 231.185 56.3094C229.142 58.5384 225.229 59.9296 224.028 59.6984C226.17 56.8666 223.641 56.4682 223.605 56.3888Z" fill="white"/>
<path d="M223.388 57.1777C225.945 57.8569 228.871 57.8392 231.403 57.0983C231.137 56.6425 230.872 56.1867 230.607 55.7309C229.603 56.8107 228.312 57.5896 226.97 58.1797C226.463 58.4027 225.84 58.6195 225.263 58.7632C225.128 58.7968 224.992 58.8272 224.855 58.8531C224.797 58.8639 224.74 58.8724 224.682 58.8834C224.468 58.9242 224.847 58.8789 224.642 58.8881C224.546 58.8923 224.451 58.9046 224.355 58.9051C224.308 58.9054 224.249 58.8957 224.203 58.9015C224.055 58.9204 224.391 58.9348 224.245 58.9094C224.408 59.31 224.571 59.7107 224.734 60.1113C225.441 59.1604 226.129 57.7825 225.382 56.6552C225.16 56.3206 224.842 56.0539 224.485 55.8743C224.332 55.7974 224.171 55.7344 224.011 55.6744C223.974 55.6607 223.937 55.646 223.899 55.6348C223.889 55.6317 223.871 55.6191 223.86 55.6203C223.943 55.6109 224.148 55.7668 224.184 55.8103C223.904 55.4676 223.317 55.5201 223.027 55.8103C222.688 56.1491 222.747 56.6238 223.027 56.9673C223.17 57.1431 223.449 57.2141 223.66 57.2841C223.791 57.3277 223.477 57.185 223.642 57.2788C223.694 57.3082 223.748 57.3325 223.8 57.3629C223.855 57.3956 223.906 57.434 223.959 57.4685C223.806 57.3703 223.891 57.4332 223.978 57.5031C224.097 57.5977 223.929 57.3792 223.996 57.5206C224.046 57.6278 224.062 57.7291 224.033 57.5699C224.04 57.6086 224.052 57.6639 224.068 57.6978C224.108 57.7784 224.064 57.5513 224.065 57.6478C224.066 57.7427 224.07 57.8346 224.061 57.9298C224.079 57.7468 224.021 58.057 224.004 58.1114C223.972 58.213 223.938 58.2946 223.919 58.3338C223.757 58.673 223.545 58.9846 223.321 59.2855C223.023 59.6869 223.323 60.403 223.81 60.4873C225.086 60.7083 226.46 60.1641 227.611 59.6723C229.141 59.0191 230.624 58.1132 231.764 56.8879C232.304 56.3071 231.778 55.2833 230.968 55.5205C229.354 55.9929 227.673 56.0884 226.002 55.9489C225.259 55.8869 224.595 55.805 223.823 55.5999C222.804 55.3294 222.369 56.9073 223.388 57.1777Z" fill="white"/>
<path d="M245.59 53.4027C245.765 55.4997 247.807 55.0088 248.794 54.0672C251.809 51.19 258.928 33.3452 252.019 32.0097C251.262 31.8634 250.39 32.0179 249.902 32.6146C249.414 33.2113 249.549 34.2856 250.267 34.5655C251.239 32.9758 251.333 30.8858 250.509 29.2148C249.238 26.6359 244.467 24.7937 241.97 23.5276C238.508 21.7723 234.673 20.7559 230.803 20.493C229.4 20.3976 227.817 20.4645 226.846 21.4823C226.664 21.6735 226.503 21.9477 226.608 22.1902C226.664 22.3184 226.784 22.4072 226.909 22.4697C227.757 22.8937 228.849 22.2224 229.126 21.3155C229.403 20.4086 229.057 19.4175 228.53 18.6294C227.445 17.0089 225.553 15.9592 223.604 15.8963C221.655 15.8333 219.699 16.7589 218.512 18.306C217.726 19.3298 217.279 20.581 217.048 21.8506C216.679 23.873 216.51 25.7952 217.347 27.7039C218.209 29.6711 219.655 31.3762 221.428 32.5843C224.012 34.3461 227.233 35.0737 230.354 34.8567C231.629 34.768 232.899 34.5287 234.176 34.5907C235.079 34.6346 236.044 34.8421 236.806 35.3512C237.575 35.865 237.568 36.4644 237.687 37.3367C237.95 39.2673 237.82 41.251 237.305 43.1303C236.949 39.2752 241.853 35.0304 244.767 39.1387C245.285 39.8687 245.504 40.7732 245.572 41.6655C245.68 43.0677 245.427 44.5185 244.711 45.7288C243.995 46.9391 242.79 47.8848 241.407 48.144C241.779 49.3677 242.151 50.5913 242.523 51.815C242.749 52.5615 243.012 53.3603 243.64 53.8231C244.268 54.2858 245.372 54.1518 245.59 53.4027Z" fill="white"/>
<path d="M244.771 53.4027C244.858 54.2454 245.16 55.0847 245.974 55.4755C246.625 55.7884 247.381 55.7318 248.042 55.4769C249.056 55.0856 249.726 54.3362 250.329 53.4672C251.645 51.5707 252.592 49.3895 253.427 47.248C254.405 44.7397 255.199 42.1248 255.567 39.4523C255.855 37.3555 256.032 34.7679 254.775 32.9231C254.089 31.9168 253.049 31.2979 251.838 31.1632C250.737 31.0407 249.47 31.4842 248.995 32.5544C248.575 33.5018 248.843 34.8143 249.854 35.272C250.259 35.4552 250.729 35.3906 250.974 34.9785C251.822 33.5485 252.081 31.8366 251.723 30.215C251.427 28.8747 250.666 27.7697 249.631 26.8904C247.607 25.1705 245.113 24.161 242.753 23.005C239.583 21.4524 236.32 20.3463 232.811 19.8794C231.259 19.673 229.544 19.4314 228.012 19.8851C227.256 20.1091 226.448 20.5449 226.012 21.2277C225.466 22.0841 225.919 23.0319 226.847 23.3221C228.493 23.8366 229.96 22.3227 230.039 20.7636C230.122 19.1449 228.997 17.5937 227.782 16.6361C225.175 14.5809 221.54 14.6045 218.956 16.6894C217.674 17.7232 216.866 19.2176 216.446 20.7918C216.002 22.4573 215.784 24.2925 216.027 26.005C216.488 29.2587 218.98 32.138 221.746 33.7522C224.749 35.5047 228.193 35.9256 231.6 35.5558C233.1 35.3929 235.124 35.0731 236.427 36.0791C236.834 36.3935 236.826 36.9841 236.89 37.4978C237.003 38.411 237.031 39.3346 236.97 40.2528C236.91 41.155 236.75 42.0399 236.516 42.9129C237.052 42.9854 237.587 43.0579 238.123 43.1304C237.956 41.0521 239.46 38.6851 241.541 38.3024C241.877 38.2405 242.398 38.2871 242.765 38.4467C243.289 38.6743 243.733 39.0894 244.061 39.5517C244.97 40.8352 244.944 42.7356 244.502 44.1855C244.025 45.7523 242.82 47.0238 241.19 47.3552C240.764 47.4417 240.497 47.9607 240.619 48.3616C240.918 49.3459 241.217 50.3301 241.516 51.3143C241.775 52.1678 241.988 53.1023 242.527 53.8315C243.014 54.4915 243.729 54.9455 244.574 54.9076C245.411 54.87 246.098 54.4181 246.379 53.6203C246.525 53.2034 246.212 52.7252 245.807 52.6139C245.356 52.4899 244.948 52.7669 244.801 53.1853C244.839 53.0758 244.74 53.2328 244.794 53.1953C244.688 53.2693 244.773 53.226 244.645 53.2581C244.512 53.2914 244.363 53.2869 244.205 53.2158C243.868 53.0641 243.625 52.5293 243.494 52.1611C243 50.7741 242.624 49.3352 242.196 47.9266C242.006 48.2621 241.815 48.5975 241.625 48.933C245.716 48.1014 247.484 42.8862 245.823 39.335C245.134 37.8615 243.661 36.6941 242.003 36.6422C240.569 36.5972 239.196 37.3863 238.248 38.4166C237.091 39.6745 236.348 41.4027 236.487 43.1304C236.558 44.0124 237.842 44.2865 238.094 43.3479C238.532 41.7113 238.719 39.9977 238.604 38.3058C238.513 36.9747 238.46 35.5138 237.272 34.6819C236.01 33.7991 234.331 33.691 232.846 33.7984C231.234 33.9149 229.663 34.1574 228.042 34.0259C225.231 33.7979 222.449 32.6881 220.417 30.705C219.426 29.7374 218.589 28.5733 218.053 27.2911C217.475 25.9072 217.482 24.3794 217.695 22.9181C217.905 21.4789 218.243 20.0188 219.132 18.8337C219.916 17.7893 221.103 17.0895 222.37 16.8177C223.593 16.5554 224.889 16.7813 225.978 17.3855C227.066 17.9892 228.187 19.0677 228.386 20.3532C228.462 20.8474 228.344 21.3363 227.916 21.6267C227.783 21.7169 227.59 21.8022 227.441 21.7877C227.403 21.7841 227.36 21.7559 227.322 21.7634L227.276 21.7374C227.115 21.6333 227.152 21.7575 227.386 22.1099C227.459 22.0881 227.577 21.907 227.638 21.8592C228.631 21.0741 230.175 21.2521 231.345 21.353C234.465 21.622 237.581 22.4078 240.437 23.6977C241.532 24.1918 242.605 24.7402 243.689 25.2573C244.783 25.7792 245.872 26.3187 246.908 26.95C247.823 27.5074 248.758 28.1455 249.42 29.0033C250.097 29.8801 250.364 31.1776 250.213 32.313C250.126 32.9676 249.896 33.5871 249.561 34.1527C249.934 34.0549 250.307 33.957 250.68 33.8592C250.482 33.7692 250.426 33.7036 250.431 33.4583C250.436 33.2356 250.537 33.0751 250.771 32.9393C251.241 32.6667 251.813 32.7741 252.299 32.9313C252.346 32.9462 252.391 32.9646 252.436 32.9818C252.415 32.9738 252.269 32.9034 252.398 32.9668C252.482 33.0082 252.566 33.0486 252.647 33.0954C252.719 33.1368 252.786 33.1856 252.856 33.228C252.901 33.2546 253.004 33.3436 252.844 33.2137C252.886 33.2478 252.93 33.2813 252.969 33.3184C253.095 33.438 253.212 33.56 253.325 33.6927C253.402 33.7824 253.214 33.5261 253.314 33.6806C253.334 33.7118 253.358 33.7406 253.378 33.7721C253.438 33.8681 253.498 33.9623 253.553 34.0618C253.59 34.1294 253.623 34.199 253.658 34.2676C253.764 34.4749 253.634 34.177 253.715 34.3987C253.785 34.5932 253.85 34.788 253.902 34.9884C253.957 35.2005 253.998 35.4148 254.035 35.6305C254.043 35.675 254.049 35.72 254.056 35.7647C254.031 35.5907 254.049 35.7154 254.053 35.7521C254.069 35.8925 254.083 36.0329 254.094 36.1738C254.129 36.6626 254.13 37.1537 254.108 37.6432C254.096 37.8977 254.078 38.1519 254.054 38.4056C254.043 38.5291 254.03 38.6525 254.017 38.7758C254.009 38.8451 254.001 38.9143 253.992 38.9836C253.992 38.9847 253.958 39.2454 253.977 39.1018C253.656 41.4439 252.984 43.7428 252.172 45.9584C251.446 47.9426 250.623 49.8415 249.51 51.7119C249.285 52.0905 249.048 52.4631 248.79 52.8202C248.739 52.8903 248.687 52.9594 248.635 53.0284C248.79 52.8238 248.592 53.0792 248.553 53.1247C248.455 53.2417 248.353 53.3562 248.243 53.4627C248.036 53.6628 247.97 53.7034 247.678 53.8583C247.562 53.9203 247.557 53.9266 247.372 53.9827C247.307 54.0025 247.241 54.0173 247.175 54.0345C247.136 54.0436 247.097 54.0515 247.057 54.0579C247.131 54.0488 247.138 54.0468 247.079 54.052C247.015 54.0556 246.952 54.0569 246.888 54.0564C246.661 54.0548 247.027 54.0943 246.811 54.0477C246.812 54.048 246.597 53.9728 246.703 54.0195C246.827 54.074 246.534 53.9005 246.634 53.9781C246.721 54.0457 246.55 53.8857 246.552 53.8889C246.635 54.0048 246.501 53.7863 246.499 53.7818C246.533 53.8717 246.48 53.724 246.478 53.7203C246.444 53.6187 246.419 53.5088 246.408 53.4028C246.363 52.9633 246.064 52.5847 245.59 52.5847C245.182 52.5847 244.726 52.9604 244.771 53.4027Z" fill="white"/>
<path d="M112.898 80.5928C115.344 79.32 117.789 78.0471 120.235 76.7742C121.541 76.0944 122.847 75.4146 124.153 74.7348C124.523 74.5421 124.866 74.333 125.299 74.3076C127.094 74.2022 127.587 76.4429 126.135 77.3093C125.212 77.8605 126.019 79.1453 126.961 78.7221C128.862 77.8679 130.122 80.5502 128.367 81.5966C127.443 82.1473 128.251 83.4326 129.193 83.0095C131.094 82.1553 132.354 84.8376 130.598 85.884C129.674 86.4348 130.483 87.7193 131.424 87.2969C132.336 86.8877 133.485 87.3647 133.684 88.393C133.837 89.1822 133.366 89.8359 132.729 90.224C132.305 90.4823 131.837 90.6879 131.397 90.917C129.377 91.9687 127.356 93.0203 125.336 94.072C123.561 94.9958 121.786 95.9195 120.012 96.8433C118.128 97.8234 116.153 97.4229 115.094 95.4755C113.096 91.798 111.161 88.0848 109.194 84.3902C108.55 83.1804 107.402 81.6386 107.399 80.2134C107.394 77.9955 109.332 77.2212 110.978 76.3648C114.843 74.3527 118.709 72.3407 122.575 70.3286C123.132 70.0386 123.08 69.2188 122.575 68.9158C121.893 68.5075 121.212 68.0992 120.531 67.6909C119.826 67.2684 118.908 66.879 118.338 66.2681C116.945 64.7757 118.289 62.4022 120.265 62.7222C121.19 62.872 122.135 63.2922 123.031 63.5685C124.011 63.8705 124.991 64.1716 125.968 64.4813C129.864 65.7161 133.705 67.1171 137.269 69.1426C140.968 71.2449 144.516 73.6831 147.938 76.206C154.465 81.0174 160.519 86.514 165.728 92.7376C168.257 95.7585 170.574 98.957 172.629 102.319C173.66 104.007 174.626 105.734 175.516 107.5C175.753 107.97 177.872 111.791 176.408 111.832C175.345 111.862 177.039 107.927 177.282 107.388C178.573 104.522 180.195 101.772 181.83 99.0932C186.337 91.7086 192.016 85.0979 198.045 78.9206C200.916 75.9782 203.818 72.95 207.109 70.4691C209.325 68.7985 211.669 67.4283 214.377 66.8134C216.113 66.4191 217.887 66.0997 219.602 65.6199C223.12 64.6355 224.73 61.5053 225.17 58.0977C225.244 57.5251 225.346 56.7994 225.036 56.2697C224.732 55.7518 224.173 55.7064 223.651 55.5376C222.579 55.1904 221.579 54.6157 220.747 53.8535C219.072 52.3191 218.119 50.1969 217.64 48.0068C216.603 43.2522 217.599 37.7848 220.265 33.713C223.898 28.164 231.662 26.2964 237.775 28.2511C241.444 29.4243 244.61 31.9687 245.488 35.8504C246.345 39.6417 245.294 43.5977 244.92 47.3839C244.703 49.5878 244.719 51.8103 244.208 53.9764C243.806 55.6774 243.377 57.368 243.881 59.1006C244.388 60.8474 245.54 62.4092 246.902 63.5918C248.41 64.901 250.099 65.5577 251.894 66.3564C253.804 67.206 255.3 68.6906 256.816 70.0898C258.325 71.4828 259.766 72.936 261.078 74.5187C263.75 77.7436 265.798 81.4406 267.133 85.4092C268.452 89.3314 269.124 93.4433 269.31 97.5714C269.488 101.548 269.382 105.619 268.252 109.463C267.982 110.38 267.655 111.28 267.251 112.147C266.86 112.985 266.371 114.18 265.673 114.816C265.559 114.92 265.321 115.002 265.239 115.083C265.189 115.133 265.46 115.06 265.284 115.092C265.335 115.083 265.322 115.086 265.331 115.135C265.293 114.924 265.217 114.978 265.16 114.668C264.916 113.347 265.215 111.7 265.463 110.319C266.909 102.263 269.705 94.3666 272.467 86.6774C273.692 83.2673 274.99 79.8593 276.894 76.7605C278.528 74.1002 280.635 71.9897 282.914 69.8924C284.741 68.2108 286.612 66.5197 288.749 65.2363C289.617 64.7147 290.644 64.1291 291.685 64.0959C293.148 64.0492 293.784 65.7411 293.242 66.958C292.626 68.3439 291.614 69.6339 290.821 70.9254C290.494 71.4578 290.918 72.1564 291.527 72.1564C298.299 72.1564 305.071 72.1564 311.842 72.1564C312.223 72.1564 312.615 72.1292 312.994 72.1564C315.055 72.3042 315.258 75.2275 313.098 75.3536C312.047 75.4149 312.044 76.929 313.098 76.9898C315.159 77.1087 315.159 80.0681 313.098 80.1869C312.046 80.2476 312.045 81.7624 313.098 81.8232C315.159 81.9421 315.159 84.9015 313.098 85.0203C312.046 85.081 312.045 86.5951 313.098 86.6565C314.424 86.7338 315.236 88.2612 314.262 89.3003C313.317 90.3077 311.194 89.8433 309.955 89.8225C306.791 89.7696 303.599 89.6394 300.439 89.8732C296.813 90.1414 293.401 91.5604 291.582 94.8626C289.896 97.9226 289.689 101.612 289.513 105.026C289.241 110.333 288.807 115.565 287.685 120.772C285.532 130.762 281.713 141.74 273.942 148.795C270.66 151.774 266.024 154.744 261.393 154.225C257.26 153.762 254.245 150.49 252.56 146.904C251.316 144.257 250.813 141.312 250.328 138.451C249.742 134.991 249.381 131.495 249.234 127.989C249.162 126.266 249.142 124.541 249.174 122.817C249.189 122.021 249.215 121.226 249.252 120.431C249.293 119.569 249.19 118.458 249.491 117.64C249.75 116.935 250.518 116.599 251.117 116.242C251.921 115.763 252.727 115.287 253.532 114.809C255.026 113.922 256.521 113.035 258.016 112.148C258.921 111.611 258.099 110.196 257.19 110.735C255.753 111.588 254.316 112.441 252.878 113.294C251.57 114.07 250.073 114.758 248.908 115.745C247.825 116.662 247.762 117.908 247.68 119.239C247.579 120.894 247.527 122.552 247.523 124.21C247.507 130.73 248.139 137.417 249.728 143.754C250.793 148.003 253.177 152.302 257.104 154.506C261.377 156.905 266.097 155.835 270.159 153.545C279.75 148.137 284.719 137.333 287.726 127.214C289.559 121.042 290.648 114.652 290.995 108.223C291.204 104.367 291.033 100.147 292.584 96.5266C293.278 94.905 294.404 93.545 295.961 92.6935C298.282 91.424 301.033 91.4316 303.606 91.3991C305.313 91.3776 307.02 91.4069 308.727 91.4373C310.276 91.4648 311.979 91.6847 313.513 91.4447C315.814 91.0848 317.099 88.4339 315.783 86.4595C315.166 85.5357 314.182 85.0836 313.098 85.0203V86.6565C314.85 86.5555 316.333 85.2536 316.333 83.4218C316.333 81.5898 314.851 80.288 313.098 80.1869V81.8232C314.85 81.7221 316.333 80.4203 316.333 78.5885C316.333 76.7565 314.851 75.4546 313.098 75.3536V76.9898C314.758 76.893 316.203 75.7288 316.321 73.9962C316.436 72.3123 315.162 70.8233 313.513 70.5656C312.402 70.392 311.196 70.5203 310.079 70.5203C305.243 70.5203 300.407 70.5203 295.572 70.5203C294.224 70.5203 292.875 70.5203 291.527 70.5203L292.234 71.7514C292.719 70.9612 293.205 70.171 293.69 69.3808C294.195 68.5596 294.814 67.7337 295.006 66.7714C295.307 65.2638 294.653 63.5509 293.267 62.803C292.351 62.3093 291.236 62.413 290.278 62.7148C287.666 63.5377 285.401 65.5014 283.377 67.2739C281.211 69.1714 279.017 71.1023 277.25 73.3845C273.56 78.1479 271.639 83.9818 269.703 89.6147C268.138 94.1662 266.661 98.7549 265.4 103.401C264.759 105.764 264.157 108.15 263.768 110.57C263.525 112.077 263.174 113.885 263.656 115.384C263.836 115.943 264.196 116.465 264.778 116.651C266.469 117.189 267.563 115.074 268.202 113.89C270.2 110.19 270.869 105.94 270.99 101.781C271.246 92.9711 269.523 83.8343 264.537 76.4294C262.088 72.7926 258.958 69.5466 255.563 66.7803C254.775 66.1386 253.959 65.5347 253.042 65.0915C252.082 64.6281 251.055 64.3161 250.107 63.8279C248.16 62.8251 246.324 61.1076 245.57 59.0103C244.816 56.9146 245.804 54.826 246.103 52.7414C246.427 50.4717 246.437 48.1697 246.729 45.8946C247.253 41.8017 248.112 37.4399 246.442 33.4911C243.371 26.2309 233.475 24.5034 226.736 26.908C223.741 27.9768 221.064 29.7779 219.204 32.3741C217.645 34.5486 216.643 37.1431 216.106 39.7529C215.086 44.7078 215.49 50.7685 219.172 54.603C220.018 55.4831 221.034 56.2036 222.148 56.7019C222.433 56.8292 222.723 56.9462 223.017 57.0488C223.162 57.0994 223.369 57.209 223.521 57.2092C223.803 57.2095 223.681 57.4393 223.592 57.0459C223.804 57.983 223.304 59.3621 223.035 60.2486C222.478 62.0863 221.019 63.5242 219.167 64.0424C218.435 64.2472 217.68 64.387 216.939 64.5553C214.714 65.0607 212.532 65.42 210.473 66.4363C206.57 68.3634 203.333 71.3795 200.251 74.3976C193.637 80.8759 187.309 87.7799 182.173 95.5085C179.978 98.811 177.92 102.282 176.198 105.857C175.362 107.593 173.996 110.129 174.507 112.121C174.769 113.141 175.673 113.594 176.676 113.435C178.168 113.2 178.664 111.878 178.479 110.505C178.224 108.622 177.005 106.772 176.123 105.125C175.135 103.28 174.066 101.479 172.926 99.7243C168.261 92.5426 162.441 86.1435 155.976 80.5449C152.493 77.5295 148.821 74.7325 145.016 72.1364C141.254 69.5691 137.414 67.1119 133.203 65.344C131.199 64.503 129.149 63.7859 127.081 63.1205C124.99 62.4474 122.846 61.6116 120.7 61.1447C117.13 60.3683 114.65 64.7819 117.181 67.4254C117.822 68.0949 118.746 68.5292 119.531 69.0001C120.271 69.443 121.01 69.886 121.749 70.329V68.9162C117.883 70.9282 114.018 72.9402 110.152 74.9523C108.175 75.9812 106.218 76.9621 105.828 79.4477C105.508 81.4872 106.715 83.2132 107.626 84.9254C109.676 88.7755 111.613 92.7128 113.785 96.4952C115.304 99.1415 118.284 99.5856 120.837 98.2565C122.887 97.1899 124.936 96.1234 126.985 95.0568C129.13 93.94 131.301 92.861 133.426 91.7044C134.693 91.0146 135.521 89.7011 135.304 88.2247C134.971 85.9472 132.557 85.0057 130.598 85.884C130.874 86.3549 131.149 86.8259 131.424 87.2969C132.924 86.4031 133.616 84.5128 132.746 82.9183C131.861 81.296 129.977 80.873 128.367 81.5966C128.642 82.0676 128.918 82.5385 129.193 83.0095C130.692 82.1158 131.384 80.2254 130.514 78.631C129.629 77.0086 127.746 76.5857 126.135 77.3093C126.411 77.7802 126.686 78.2512 126.961 78.7221C129.015 77.496 129.3 74.4445 127.127 73.1455C125.813 72.3602 124.49 72.7169 123.244 73.3656C120.429 74.8306 117.615 76.2956 114.8 77.7606C113.891 78.2339 112.982 78.7071 112.073 79.1803C111.138 79.6667 111.965 81.0793 112.898 80.5932L112.898 80.5928Z" fill="white"/>
<path d="M227.044 48.8234C227.545 48.5771 228.039 48.2069 228.298 47.6983C228.577 47.1486 228.621 46.4319 228.246 45.9122C228.076 45.6764 227.771 45.5514 227.5 45.7165C227.411 45.7706 227.32 45.8207 227.226 45.8664C227.202 45.8783 227.177 45.89 227.152 45.9014C227.149 45.9027 227.029 45.9567 227.103 45.9241C227.17 45.8949 227.083 45.9318 227.071 45.9368C227.044 45.9473 227.018 45.9575 226.991 45.9675C226.763 46.0525 226.529 46.12 226.291 46.1709C226.178 46.1952 226.055 46.2288 225.939 46.2334C225.983 46.2317 226.016 46.2242 225.952 46.2307C225.923 46.2336 225.894 46.237 225.864 46.2397C225.807 46.245 225.749 46.2493 225.691 46.2523C225.572 46.2586 225.452 46.2597 225.333 46.2544C225.279 46.2521 225.225 46.2484 225.172 46.2432C225.156 46.2417 225.064 46.2323 225.146 46.2416C225.236 46.2518 225.113 46.2352 225.105 46.2338C224.825 46.1856 224.504 46.3082 224.434 46.6147C224.374 46.8793 224.514 47.2339 224.815 47.2856C225.892 47.471 227.116 47.2262 228.05 46.6584C227.802 46.5932 227.553 46.528 227.304 46.4627C227.338 46.5092 227.365 46.557 227.393 46.6064C227.451 46.7059 227.38 46.5278 227.4 46.6321C227.407 46.6677 227.472 46.8296 227.422 46.6938C227.435 46.7292 227.429 46.7829 227.428 46.8214C227.428 46.8499 227.427 46.8785 227.425 46.907C227.419 46.9697 227.42 46.9641 227.429 46.8902C227.434 46.927 227.411 46.9801 227.401 47.0167C227.394 47.0443 227.326 47.2154 227.384 47.0896C227.363 47.1354 227.34 47.18 227.314 47.2234C227.288 47.2677 227.259 47.3098 227.23 47.352C227.303 47.247 227.21 47.3729 227.19 47.394C227.121 47.4703 227.044 47.5366 226.966 47.6043C226.936 47.6289 226.943 47.623 226.989 47.5868C226.965 47.6044 226.941 47.6215 226.917 47.6382C226.874 47.6676 226.83 47.6956 226.786 47.7227C226.691 47.7805 226.593 47.8325 226.493 47.8814C226.237 48.0075 226.146 48.3925 226.298 48.6276C226.467 48.8907 226.769 48.9581 227.044 48.8234Z" fill="white"/>
<path d="M127.314 97.4313C131.301 100.837 134.478 105.026 137.342 109.39C140.201 113.747 142.768 118.292 145.725 122.585C148.54 126.673 151.723 130.588 155.573 133.749C159.372 136.869 163.841 139.242 168.743 139.981C173.842 140.75 179.012 139.87 183.728 137.847C187.499 136.23 190.888 133.866 193.789 130.976C196.332 128.444 198.688 125.698 200.78 122.783C201.847 121.295 202.848 119.748 203.666 118.108C204.375 116.684 204.967 115.184 205.147 113.593C205.302 112.228 205.016 110.917 204.07 109.893C202.816 108.536 201.113 107.558 199.568 106.577C198.741 106.052 197.909 105.533 197.101 104.979C196.467 104.545 195.989 104.218 195.448 103.653C193.595 101.714 192.022 99.4906 190.737 97.1401C190.109 95.9924 189.553 94.8072 189.079 93.5883C188.918 93.1768 188.53 92.8912 188.072 93.0169C187.68 93.1249 187.34 93.6093 187.501 94.0233C188.474 96.5241 189.728 98.9028 191.275 101.097C192.546 102.901 193.932 104.702 195.729 106.007C197.282 107.137 198.957 108.089 200.548 109.162C201.271 109.65 201.918 110.1 202.545 110.684C202.663 110.793 202.777 110.905 202.887 111.022C202.946 111.085 203.002 111.151 203.06 111.216C203.184 111.355 203.043 111.172 203.142 111.322C203.216 111.433 203.282 111.546 203.345 111.665C203.28 111.543 203.32 111.593 203.35 111.684C203.376 111.76 203.402 111.835 203.424 111.913C203.458 112.03 203.482 112.15 203.508 112.27C203.517 112.31 203.522 112.351 203.529 112.392C203.528 112.388 203.51 112.234 203.52 112.33C203.528 112.404 203.536 112.478 203.541 112.552C203.562 112.853 203.554 113.154 203.526 113.454C203.52 113.512 203.496 113.714 203.518 113.552C203.508 113.623 203.497 113.695 203.485 113.766C203.456 113.937 203.422 114.107 203.383 114.277C203.302 114.623 203.203 114.965 203.089 115.302C202.59 116.789 201.795 118.242 200.919 119.647C199.003 122.724 196.674 125.549 194.204 128.194C191.814 130.753 189.253 133.02 186.203 134.78C181.958 137.23 177.095 138.694 172.174 138.633C167.351 138.573 162.788 136.893 158.837 134.177C154.89 131.464 151.597 127.844 148.753 124.019C145.72 119.94 143.168 115.534 140.467 111.236C137.729 106.88 134.823 102.573 131.23 98.8665C130.351 97.9599 129.431 97.0945 128.471 96.2743C128.136 95.9875 127.644 95.9447 127.314 96.2743C127.021 96.5682 126.977 97.143 127.314 97.4313Z" fill="white"/>
<path d="M213.578 68.1154C211.048 74.4033 209.758 81.0926 208.699 87.7611C207.589 94.7508 206.509 101.748 205.472 108.749C204.392 116.042 203.39 123.346 202.488 130.663C201.585 137.981 200.784 145.311 200.107 152.654C199.434 159.952 198.884 167.262 198.48 174.58C198.429 175.511 198.38 176.443 198.334 177.375C198.281 178.428 199.917 178.425 199.97 177.375C200.337 170.057 200.85 162.746 201.492 155.446C202.133 148.138 202.902 140.84 203.773 133.555C204.644 126.272 205.618 119.002 206.674 111.744C207.698 104.705 208.823 97.681 209.896 90.6492C210.911 83.9973 212.024 77.3041 214.257 70.9343C214.539 70.1327 214.839 69.3384 215.156 68.5504C215.322 68.1375 214.975 67.6556 214.584 67.544C214.119 67.4109 213.742 67.7073 213.578 68.1154Z" fill="white"/>
<path d="M253.022 67.4554C249.471 72.6635 246.637 78.3818 244.621 84.3539C243.61 87.3512 242.812 90.4247 242.292 93.5463C242.033 95.1076 241.837 96.6813 241.722 98.26C241.608 99.8218 241.498 101.434 241.734 102.989C241.85 103.752 242.078 104.597 242.574 105.206C243.038 105.775 243.872 106.199 244.583 105.811C245.29 105.424 245.305 104.639 245.359 103.932C245.395 103.45 245.431 102.968 245.46 102.485C245.581 100.505 245.641 98.4399 245.131 96.5046C244.647 94.6687 243.491 93.0803 241.594 92.5606C240.406 92.2352 239.236 92.3976 238.035 92.523C236.445 92.689 234.845 92.7579 233.246 92.7321C226.923 92.6302 220.62 91.017 215.042 88.0331C214.348 87.6617 213.666 87.2686 212.995 86.8576C212.094 86.3064 211.271 87.721 212.169 88.2704C217.361 91.4484 223.228 93.4187 229.271 94.1093C232.253 94.4501 235.272 94.464 238.255 94.1356C238.871 94.0678 239.483 93.9755 240.105 93.9911C240.577 94.003 240.856 94.0391 241.32 94.1857C241.423 94.2184 241.526 94.2539 241.626 94.2959C241.499 94.2426 241.72 94.3446 241.752 94.3616C241.899 94.4376 242.159 94.6022 242.213 94.643C242.165 94.6064 242.327 94.7401 242.359 94.7687C242.432 94.8348 242.502 94.904 242.57 94.9757C242.767 95.1838 242.719 95.1254 242.858 95.333C242.957 95.4799 243.047 95.633 243.129 95.7899C243.244 96.0099 243.283 96.1034 243.332 96.2391C243.48 96.6418 243.593 97.0548 243.677 97.4753C243.772 97.9516 243.799 98.1827 243.839 98.6593C243.878 99.1356 243.896 99.6136 243.9 100.091C243.907 101.044 243.859 101.995 243.794 102.945C243.763 103.404 243.74 103.866 243.693 104.323C243.675 104.491 243.557 104.625 243.821 104.44C243.427 104.716 244.004 104.295 244.003 104.32C244.004 104.308 243.98 104.318 243.977 104.31C243.959 104.25 243.779 104.095 243.736 104.019C243.651 103.87 243.593 103.706 243.54 103.544C243.088 102.162 243.226 100.611 243.3 99.1813C243.375 97.7529 243.515 96.3268 243.724 94.9118C244.161 91.9599 244.852 89.0474 245.741 86.1996C247.516 80.5108 250.076 75.0613 253.277 70.0358C253.653 69.4448 254.04 68.8602 254.434 68.2812C255.029 67.4089 253.612 66.5896 253.022 67.4554Z" fill="white"/>
<path d="M227.494 37.8878C227.507 37.8765 227.594 37.807 227.527 37.8578C227.467 37.9043 227.537 37.8523 227.549 37.8438C227.596 37.8113 227.645 37.7809 227.694 37.7527C227.744 37.7246 227.796 37.701 227.847 37.6752C227.913 37.6419 227.752 37.7096 227.822 37.6858C227.852 37.6756 227.881 37.6634 227.911 37.6533C228.021 37.6167 228.132 37.5921 228.245 37.5708C228.328 37.555 228.225 37.5635 228.213 37.5746C228.226 37.5615 228.292 37.5673 228.309 37.5662C228.366 37.5623 228.423 37.5605 228.481 37.5611C228.532 37.5616 228.583 37.5638 228.634 37.5678C228.643 37.5685 228.768 37.5751 228.676 37.5703C228.595 37.5661 228.68 37.5716 228.698 37.5748C228.811 37.5945 228.922 37.6231 229.03 37.6607C229.054 37.669 229.101 37.676 229.119 37.6939C229.101 37.6761 229.027 37.6506 229.094 37.6843C229.145 37.71 229.196 37.7348 229.246 37.7634C229.295 37.7921 229.343 37.8239 229.39 37.8556C229.454 37.898 229.381 37.8624 229.371 37.8392C229.379 37.8569 229.444 37.9006 229.459 37.914C229.671 38.104 230.023 38.1394 230.23 37.914C230.421 37.7063 230.457 37.3456 230.23 37.1426C229.245 36.2627 227.721 36.2583 226.722 37.1165C226.505 37.3032 226.516 37.6988 226.722 37.8879C226.954 38.1001 227.262 38.087 227.494 37.8878Z" fill="white"/>
<path d="M221.058 36.8373C221.079 36.827 221.1 36.817 221.122 36.8068C221.188 36.7747 221.113 36.8166 221.088 36.8205C221.137 36.8129 221.189 36.7831 221.237 36.7683C221.328 36.7406 221.419 36.7243 221.51 36.7043C221.582 36.6887 221.397 36.7153 221.47 36.7091C221.499 36.7067 221.528 36.7029 221.557 36.7008C221.604 36.6973 221.651 36.6953 221.698 36.6948C221.745 36.6943 221.792 36.6953 221.838 36.6977C221.862 36.699 221.885 36.7006 221.909 36.7025C221.929 36.7042 222.034 36.7178 221.941 36.7043C221.855 36.6917 221.938 36.7045 221.956 36.7075C221.979 36.7115 222.002 36.7158 222.025 36.7205C222.071 36.7299 222.117 36.7407 222.162 36.7529C222.207 36.7651 222.252 36.7788 222.296 36.7939C222.324 36.8033 222.351 36.8139 222.379 36.8237C222.448 36.8481 222.368 36.8237 222.346 36.809C222.422 36.8596 222.516 36.8909 222.595 36.9393C222.64 36.9669 222.682 36.9983 222.726 37.0271C222.785 37.0658 222.646 36.9593 222.699 37.0061C222.721 37.0254 222.744 37.0437 222.766 37.063C222.981 37.2507 223.329 37.2901 223.537 37.063C223.726 36.8574 223.767 36.4922 223.537 36.2917C222.7 35.5595 221.505 35.4045 220.508 35.8954C220.251 36.0217 220.16 36.4063 220.312 36.6417C220.481 36.9045 220.784 36.9724 221.058 36.8373Z" fill="white"/>
<path d="M228.488 38.7036C228.123 38.6743 227.742 38.8835 227.571 39.2077C227.398 39.5354 227.396 39.9191 227.571 40.2465C227.614 40.3256 227.672 40.3996 227.735 40.4636C227.8 40.5299 227.876 40.5889 227.957 40.6338C228.144 40.7369 228.372 40.7946 228.585 40.7846C228.688 40.7797 228.799 40.7685 228.897 40.7322C229.051 40.6753 229.141 40.6239 229.266 40.5185C229.287 40.5012 229.305 40.4816 229.322 40.4606C229.365 40.4075 229.413 40.3535 229.444 40.2911C229.512 40.1491 229.545 40.0368 229.552 39.8774C229.556 39.7994 229.54 39.7192 229.527 39.6431C229.52 39.606 229.509 39.5704 229.495 39.5355C229.464 39.4573 229.433 39.3767 229.388 39.3046C229.34 39.2268 229.282 39.1546 229.224 39.0843C229.145 38.9876 229.042 38.9027 228.936 38.8381C228.792 38.7505 228.652 38.7208 228.488 38.7036C228.358 38.6899 228.191 38.7743 228.102 38.8633C228.008 38.9579 227.937 39.1131 227.943 39.249C227.949 39.3901 227.995 39.5364 228.102 39.6347L228.213 39.7199C228.298 39.7693 228.39 39.7941 228.488 39.7944L228.498 39.7955L228.353 39.776C228.389 39.7809 228.424 39.7906 228.457 39.8045L228.327 39.7496C228.365 39.7666 228.4 39.7881 228.434 39.8131L228.323 39.7279C228.381 39.7728 228.43 39.8255 228.474 39.8828L228.389 39.7724C228.429 39.8261 228.465 39.8819 228.493 39.9435L228.438 39.8132C228.457 39.8593 228.471 39.9064 228.478 39.956L228.459 39.811C228.462 39.8439 228.462 39.8763 228.459 39.9091L228.478 39.7641C228.474 39.7946 228.466 39.8239 228.455 39.8526L228.51 39.7223C228.498 39.75 228.483 39.7755 228.465 39.7996L228.551 39.6892C228.53 39.7159 228.506 39.7392 228.479 39.7599L228.589 39.6747C228.561 39.6958 228.53 39.7129 228.498 39.7272L228.628 39.6722C228.585 39.6898 228.541 39.7013 228.495 39.7081L228.64 39.6886C228.58 39.6963 228.52 39.6955 228.46 39.6881L228.605 39.7076C228.544 39.699 228.484 39.6847 228.427 39.6611L228.558 39.7161C228.518 39.6991 228.482 39.6782 228.448 39.6526L228.558 39.7379C228.524 39.7116 228.494 39.6819 228.468 39.6482L228.554 39.7585C228.529 39.7256 228.509 39.6905 228.493 39.6528L228.548 39.783C228.531 39.7403 228.519 39.6961 228.513 39.6504L228.532 39.7954C228.527 39.75 228.527 39.7046 228.532 39.6592L228.513 39.8042C228.519 39.7565 228.532 39.7103 228.55 39.6658L228.495 39.7961C228.512 39.7575 228.533 39.7215 228.558 39.6881L228.473 39.7985C228.496 39.7699 228.521 39.7444 228.55 39.7218L228.439 39.8071C228.469 39.7844 228.501 39.7659 228.536 39.7513L228.406 39.8062C228.44 39.7926 228.475 39.7832 228.512 39.7776L228.367 39.7971C228.407 39.7917 228.447 39.7911 228.488 39.7944C228.621 39.8051 228.782 39.7259 228.874 39.6346C228.968 39.54 229.04 39.3848 229.033 39.2489C229.027 39.1079 228.981 38.9616 228.874 38.8633L228.763 38.778C228.678 38.7286 228.587 38.7039 228.488 38.7036Z" fill="white"/>
<path d="M221.216 37.9764C220.851 37.947 220.47 38.1562 220.299 38.4805C220.126 38.8082 220.124 39.1918 220.299 39.5193C220.342 39.5984 220.4 39.6724 220.463 39.7364C220.527 39.8026 220.604 39.8617 220.685 39.9066C220.871 40.0097 221.099 40.0673 221.312 40.0573C221.416 40.0525 221.527 40.0413 221.625 40.005C221.779 39.9481 221.869 39.8967 221.994 39.7913C222.015 39.7739 222.033 39.7543 222.05 39.7333C222.092 39.6803 222.141 39.6262 222.171 39.5639C222.24 39.4218 222.273 39.3095 222.28 39.1502C222.283 39.0721 222.268 38.992 222.254 38.9159C222.248 38.8788 222.236 38.8432 222.223 38.8083C222.192 38.7301 222.161 38.6494 222.116 38.5774C222.068 38.4996 222.009 38.4274 221.952 38.3571C221.873 38.2603 221.77 38.1754 221.664 38.1109C221.52 38.0232 221.38 37.9936 221.216 37.9764C221.085 37.9627 220.919 38.047 220.83 38.1361C220.736 38.2307 220.664 38.3859 220.67 38.5218C220.677 38.6628 220.723 38.8091 220.83 38.9074L220.941 38.9927C221.026 39.0421 221.117 39.0669 221.216 39.0672L221.226 39.0682L221.081 39.0487C221.117 39.0536 221.151 39.0633 221.185 39.0773L221.055 39.0223C221.093 39.0394 221.128 39.0608 221.161 39.0859L221.051 39.0006C221.108 39.0455 221.157 39.0983 221.202 39.1556L221.117 39.0452C221.157 39.0989 221.193 39.1547 221.221 39.2162L221.166 39.0859C221.185 39.1321 221.199 39.1792 221.206 39.2288L221.186 39.0838C221.19 39.1166 221.19 39.149 221.186 39.1819L221.206 39.0369C221.201 39.0674 221.194 39.0967 221.183 39.1254L221.238 38.9951C221.226 39.0227 221.211 39.0483 221.193 39.0724L221.278 38.962C221.257 38.9887 221.234 39.0119 221.207 39.0327L221.317 38.9474C221.288 38.9685 221.258 38.9857 221.225 38.9999L221.356 38.945C221.313 38.9625 221.269 38.974 221.223 38.9809L221.368 38.9614C221.308 38.9691 221.248 38.9683 221.188 38.9609L221.333 38.9804C221.272 38.9717 221.212 38.9575 221.155 38.9339L221.285 38.9888C221.246 38.9718 221.21 38.9509 221.175 38.9253L221.286 39.0106C221.252 38.9844 221.222 38.9547 221.196 38.9209L221.281 39.0313C221.257 38.9984 221.237 38.9633 221.221 38.9255L221.276 39.0558C221.258 39.0131 221.247 38.9689 221.241 38.9232L221.26 39.0682C221.255 39.0227 221.255 38.9774 221.26 38.9319L221.241 39.0769C221.247 39.0292 221.259 38.9831 221.278 38.9386L221.223 39.0688C221.24 39.0302 221.26 38.9943 221.286 38.9609L221.201 39.0712C221.223 39.0427 221.249 39.0172 221.278 38.9946L221.167 39.0798C221.197 39.0572 221.229 39.0387 221.264 39.024L221.133 39.079C221.168 39.0653 221.203 39.056 221.239 39.0504L221.094 39.0698C221.135 39.0645 221.175 39.0639 221.216 39.0672C221.348 39.0778 221.51 38.9986 221.601 38.9074C221.696 38.8128 221.767 38.6576 221.761 38.5217C221.755 38.3806 221.709 38.2343 221.601 38.136L221.491 38.0508C221.406 38.0014 221.314 37.9767 221.216 37.9764Z" fill="white"/>
<path d="M227.254 48.582C227.404 48.2663 227.488 47.9578 227.524 47.6108C227.555 47.3145 227.523 47.0067 227.45 46.7188C227.274 46.9489 227.099 47.1791 226.924 47.4092C227.175 47.4255 227.436 47.3931 227.677 47.3215C227.95 47.2406 228.15 46.9347 228.058 46.6506C227.968 46.3739 227.68 46.1828 227.387 46.2697C227.297 46.2963 227.206 46.3158 227.114 46.3285L227.259 46.309C227.147 46.3225 227.036 46.3257 226.924 46.3184C226.56 46.2948 226.316 46.6849 226.398 47.0088C226.417 47.0857 226.433 47.1633 226.444 47.2419L226.425 47.0969C226.45 47.2898 226.451 47.4834 226.426 47.6763L226.445 47.5313C226.419 47.7152 226.371 47.8936 226.301 48.0653L226.356 47.935C226.342 47.9674 226.327 47.9995 226.312 48.0314C226.248 48.1664 226.216 48.303 226.257 48.4517C226.292 48.5782 226.39 48.7153 226.508 48.7776C226.635 48.8445 226.788 48.878 226.928 48.8326C227.057 48.7911 227.194 48.7088 227.254 48.582Z" fill="white"/>
<path d="M153.56 13.1578C154.896 12.067 156.231 10.9762 157.567 9.88544C157.9 9.61362 157.871 9.0068 157.567 8.72842C157.214 8.40375 156.766 8.43844 156.41 8.72842C155.074 9.81918 153.739 10.91 152.403 12.0008C152.07 12.2726 152.099 12.8794 152.403 13.1578C152.756 13.4824 153.204 13.4478 153.56 13.1578Z" fill="#0EA5E9"/>
<path d="M142.137 1.05069C142.054 1.80361 141.97 2.55654 141.886 3.30946C141.865 3.50425 141.993 3.75528 142.126 3.88797C142.268 4.02985 142.501 4.13674 142.704 4.12761C142.916 4.11814 143.135 4.04862 143.283 3.88797C143.439 3.71836 143.497 3.53719 143.523 3.30946C143.606 2.55654 143.69 1.80361 143.774 1.05069C143.795 0.855897 143.667 0.604864 143.534 0.472176C143.392 0.330293 143.159 0.223411 142.955 0.232538C142.744 0.242009 142.524 0.311524 142.377 0.472176C142.221 0.641784 142.163 0.822957 142.137 1.05069Z" fill="#0EA5E9"/>
<path d="M157.044 25.4313C157.629 25.515 158.215 25.5986 158.8 25.6823C158.909 25.7164 159.018 25.7213 159.127 25.6969C159.236 25.6919 159.337 25.6596 159.431 25.5998C159.601 25.5005 159.762 25.3059 159.807 25.1109C159.854 24.9014 159.844 24.6663 159.724 24.4804C159.617 24.3145 159.44 24.1337 159.235 24.1045C158.65 24.0208 158.064 23.9372 157.478 23.8535C157.37 23.8194 157.261 23.8145 157.152 23.8389C157.043 23.8438 156.942 23.8762 156.848 23.936C156.678 24.0353 156.517 24.2298 156.472 24.4249C156.424 24.6344 156.435 24.8694 156.555 25.0553C156.662 25.2212 156.839 25.402 157.044 25.4313Z" fill="#0EA5E9"/>
<path d="M5.2341 6.94943C6.56448 9.19692 8.22281 11.2596 10.4014 12.7339V11.321C8.1244 12.4667 6.21517 14.2724 4.92121 16.4665H6.33406C5.03533 14.4899 3.59313 12.4797 1.44228 11.3652V12.7781C2.79265 11.7976 4.12666 10.7626 5.15995 9.44291C5.57301 8.91535 5.9838 8.3789 6.33053 7.80457C6.65005 7.2753 6.91405 6.73055 6.64693 6.1236C6.46891 5.71912 5.87784 5.6252 5.52758 5.83008C5.11047 6.07405 5.0554 6.54341 5.2341 6.94943C5.19557 6.86194 5.15663 6.29985 5.13374 6.5817C5.12592 6.67788 5.10042 6.65335 5.14232 6.5678C5.1231 6.60699 5.10516 6.647 5.08412 6.68529C4.96852 6.89594 4.84541 7.10068 4.71258 7.301C4.40607 7.76333 4.09935 8.17031 3.79544 8.54744C2.90688 9.65012 1.75661 10.5373 0.616369 11.3652C0.153937 11.701 0.0233086 12.4708 0.616369 12.7781C2.52069 13.7649 3.77152 15.5426 4.92114 17.2923C5.25438 17.7995 6.00984 17.8419 6.334 17.2923C7.49476 15.3241 9.18765 13.7601 11.2272 12.7339C11.8123 12.4394 11.701 11.6417 11.2272 11.321C9.28616 10.0075 7.82952 8.12142 6.64693 6.1236C6.11096 5.21812 4.69598 6.04032 5.2341 6.94943Z" fill="#0EA5E9"/>
<path d="M16.532 21.2107C17.5453 22.9203 18.8065 24.4778 20.462 25.6012V24.1883C18.7318 25.0615 17.284 26.4354 16.2985 28.1021H17.7114C16.7218 26.5966 15.623 25.0731 13.9869 24.2213V25.6342C15.0075 24.8923 16.0201 24.1128 16.8016 23.1148C17.1165 22.7126 17.4314 22.3048 17.6973 21.8678C17.9095 21.5189 18.2019 20.9994 18.0273 20.5802C17.8576 20.1726 17.4853 19.8812 17.0209 20.0088C16.6361 20.1146 16.2786 20.6048 16.4495 21.0152C16.4705 21.0655 16.4697 20.6486 16.4405 20.7638C16.4161 20.8598 16.5329 20.612 16.4176 20.8088C16.334 20.9514 16.2538 21.0945 16.163 21.2329C15.9266 21.5933 15.7019 21.8889 15.5058 22.133C14.8494 22.95 14.0047 23.608 13.161 24.2213C12.6981 24.5578 12.5686 25.3257 13.161 25.6341C14.5504 26.3575 15.4583 27.6497 16.2985 28.9279C16.6322 29.4355 17.3866 29.4771 17.7114 28.9279C18.5631 27.4875 19.7954 26.3543 21.2879 25.6012C21.873 25.3059 21.7615 24.5097 21.2879 24.1883C19.8699 23.2261 18.8101 21.8446 17.9448 20.3848C17.4083 19.4796 15.9933 20.3019 16.532 21.2107Z" fill="#0EA5E9"/>
</g>
<defs>
<clipPath id="clip0_60_2667">
<rect width="327" height="178.426" fill="white"/>
</clipPath>
</defs>
</svg>
