<?xml version="1.0" encoding="utf-8"?>
<!-- Generator: Adobe Illustrator 27.2.0, SVG Export Plug-In . SVG Version: 6.00 Build 0)  -->
<svg version="1.1" id="Ebene_1" xmlns="http://www.w3.org/2000/svg" xmlns:xlink="http://www.w3.org/1999/xlink" x="0px" y="0px"
	 viewBox="0 0 327 245" style="enable-background:new 0 0 327 245;" xml:space="preserve">
<style type="text/css">
	.st0{fill:#1EB2A6;}
	.st1{fill:#FFFFFF;}
	.st2{fill:#EB00B7;}
	.st3{fill:#FACC15;}
	.st4{fill:#1D232A;}
</style>
<g>
	<path class="st0" d="M160.5,78.2l26.8-48.6l26,7.7l-4.1,55.4c-0.3,4.2-4.4,7-8.4,5.8l-36.4-10.8C160.3,86.4,158.4,81.8,160.5,78.2z
		"/>
	<path class="st0" d="M213.3,31.3l-0.8-0.2c-0.7-0.2-1.2-1-0.9-1.7c1.3-4.4-1.2-9-5.6-10.3l-2.7-0.8c-4.4-1.3-9,1.2-10.3,5.6
		c-0.2,0.7-1,1.2-1.7,0.9l-0.8-0.2c-1.7-0.5-3.6,0.5-4.1,2.2c-0.5,1.7,0.5,3.6,2.2,4.1l22.8,6.8c1.7,0.5,3.6-0.5,4.1-2.2
		C216,33.7,215,31.8,213.3,31.3z"/>
	<path class="st0" d="M243.5,60.9c0.2-4.6-0.9-8.4-2.5-8.5c-0.7,0-1.3,0.7-1.9,2c-1.1,2.6-3.4,4.5-6.1,5.1l-39.4,8.7l8.4,13.7
		l29.8-13.5c2.7-1.2,5.7-0.9,8.2,0.6c0.2,0.1,0.3,0.1,0.5,0.2C242,69.2,243.4,65.5,243.5,60.9z"/>
	<path class="st1" d="M98.1,26.1c-0.2,0.3-0.3,0.7-0.2,1.1c0.1,0.3,0.3,0.6,0.5,0.7c0.4,0.4,0.9,0.5,1.4,0.8c0.1,0,0.1,0.1,0.2,0.1
		c0,0,0.2,0.1,0.1,0.1c0,0,0.1,0.1,0.1,0.1c0,0,0,0.1,0,0c0,0,0,0.1,0.1,0.1c0-0.1,0-0.1,0,0c0-0.1,0-0.1,0,0c0-0.1,0-0.1,0,0
		c0,0,0-0.1,0-0.1c0.1,0,0.1,0,0,0l0,0c0.1,0,0.1,0,0,0c0,0-0.1,0-0.1,0c-0.5,0.2-1,0.2-1.6,0c-0.3-0.1-0.6,0.1-0.7,0.4
		c-0.1,0.3,0.1,0.6,0.4,0.7c0.5,0.2,1.1,0.2,1.6,0.1c0.6-0.1,1.2-0.2,1.4-0.8c0.2-0.6-0.2-1.1-0.7-1.5c-0.4-0.2-0.8-0.4-1.2-0.6
		c-0.1-0.1-0.2-0.1-0.3-0.2c0.1,0.1,0,0-0.1-0.1c0,0-0.1-0.1-0.1-0.1c0,0,0,0,0-0.1c0,0-0.1-0.1,0,0c0,0.1,0,0,0,0c0-0.1,0,0,0,0
		c0-0.1,0,0,0,0c0,0,0-0.1,0-0.1c0,0,0,0.1,0,0c0,0,0-0.1,0.1-0.1c0.2-0.2,0.1-0.6-0.2-0.7C98.6,25.8,98.3,25.9,98.1,26.1z"/>
	<path class="st1" d="M182.7,92.7c-2.1-1.3-4.1-2.7-6.2-4c-0.3-0.2-0.6-0.4-0.9-0.6c-0.9-0.6-1.7,0.8-0.8,1.4c2.1,1.3,4.1,2.7,6.2,4
		c0.3,0.2,0.6,0.4,0.9,0.6C182.7,94.7,183.6,93.3,182.7,92.7z"/>
	<path class="st1" d="M180.6,96.2c-2.1-1.3-4.1-2.7-6.2-4c-0.3-0.2-0.6-0.4-0.9-0.6c-0.9-0.6-1.7,0.8-0.8,1.4c2.1,1.3,4.1,2.7,6.2,4
		c0.3,0.2,0.6,0.4,0.9,0.6C180.7,98.2,181.5,96.8,180.6,96.2z"/>
	<path class="st1" d="M178.5,99.6c-2.1-1.3-4.1-2.7-6.2-4c-0.3-0.2-0.6-0.4-0.9-0.6c-0.9-0.6-1.7,0.8-0.8,1.4c2.1,1.3,4.1,2.7,6.2,4
		c0.3,0.2,0.6,0.4,0.9,0.6C178.6,101.6,179.4,100.2,178.5,99.6z"/>
	<path class="st1" d="M96.2,38.4c0,0-3.1,0.2-5.7-1.2c1.2,2,4,3.6,4.9,3.6C94.2,38.4,96.2,38.5,96.2,38.4z"/>
	<path class="st1" d="M96.2,37.6c-0.6,0-1.2,0-1.8-0.1c-0.1,0-0.1,0-0.2,0c0,0-0.3,0-0.1,0c-0.1,0-0.3,0-0.4-0.1
		c-0.3-0.1-0.6-0.1-0.9-0.2c-0.7-0.2-1.3-0.4-1.9-0.7c-0.3-0.2-0.7-0.1-1,0.1c-0.3,0.3-0.3,0.7-0.1,1c0.7,1.1,1.7,2.1,2.8,2.8
		c0.4,0.3,0.9,0.6,1.4,0.8c0.4,0.2,0.9,0.4,1.4,0.4c0.7,0,1-0.7,0.7-1.2c-0.1-0.2-0.1-0.1-0.1-0.3c0-0.1-0.1-0.2-0.1-0.4
		c0,0,0-0.1,0-0.1c0-0.2,0,0.1,0,0c0-0.1,0-0.2,0-0.3c0-0.1-0.1,0.2,0,0.1c0,0,0-0.1,0-0.1c0-0.2-0.1,0.1,0,0c0.1-0.2-0.1,0.1,0,0
		c0,0,0,0,0.1-0.1c0,0-0.2,0.1-0.1,0.1c0,0,0.1,0,0.1-0.1c0.1-0.1-0.2,0.1,0,0c0.1,0,0.2,0,0.2-0.1c0.2,0,0.4-0.1,0.6-0.3
		c0.3-0.3,0.3-0.9,0-1.2c-0.3-0.3-0.8-0.3-1.2,0c0.3-0.2,0.5-0.2,0.2-0.2c-0.1,0-0.2,0-0.3,0.1c-0.3,0.1-0.6,0.3-0.9,0.5
		c-0.8,0.8-0.5,2.1,0,3.1c0.2-0.4,0.5-0.8,0.7-1.2c0,0-0.1,0-0.1,0c0,0,0.2,0,0.1,0c-0.1,0-0.2,0-0.2-0.1c-0.1,0-0.2-0.1-0.2-0.1
		c0,0-0.2-0.1,0,0c0,0-0.1,0-0.1-0.1c-0.5-0.2-0.9-0.5-1.3-0.7c-0.1-0.1-0.2-0.1-0.3-0.2c0,0-0.2-0.2-0.1-0.1
		c-0.1,0-0.1-0.1-0.2-0.1c-0.2-0.2-0.4-0.4-0.6-0.6c-0.2-0.2-0.4-0.4-0.6-0.7c0-0.1-0.1-0.1-0.1-0.2c-0.1-0.1,0,0.1,0-0.1
		c-0.1-0.1-0.2-0.3-0.3-0.4L90.1,38c1.3,0.7,2.7,1,4.2,1.2c0.6,0.1,1.3,0.1,1.9,0.1c0.4,0,0.8-0.4,0.8-0.8
		C97,38,96.7,37.6,96.2,37.6z"/>
	<path class="st1" d="M83.1,34.9c-0.2,0.4-0.5,0.7-0.7,1c-5.7,6.9-15.4,8.8-22.9,13.7c-6.7,4.4-11.6,11.2-18.7,14.7
		c-2.2,1.1-4.7,1.9-7.2,1.7c-4.3-0.3-8.2-3.7-8.7-7.9s3-8.6,7.3-8.8c0.4,0,0.8,0,1.1,0.2c1,0.6,0.3,2.2-0.7,2.8
		c-1.5,0.9-3.3,0.7-4.9,0c-1.5-0.8-2.7-2.1-3.5-3.6c-1.7-2.9-2.4-6.6-1.1-9.7c0.7-1.6,1.9-3,3.2-4.2c4.2-3.8,9.6-6.1,15.1-7.3
		c5.5-1.2,11.2-1.4,16.9-1.5c2.7,0,5.6,0,7.8-1.5c4.6-3.1,4.6-10.1,6.7-14.7c1.8-4,5.4-7.3,9.7-8.5c4.2-1.2,8.7-0.3,12.7,1.4
		c2.8,1.3,5.5,3,7.5,5.4c2,2.4,3.1,5.5,2.9,8.6c-0.1,1.2-0.4,2.4-1.3,3.3c-1.3,1.5-3.6,1.6-5.6,1.4c-2.6-0.3-6-1.4-8.5-0.6
		c-2.3,0.7-2.5,3.3-2.4,5.4c0.8-2.9-2.2-6.8-5-4.1c-0.5,0.5-0.8,1.1-1,1.8c-0.3,1-0.3,2.2,0.1,3.2c0.6,1.7,2.2,2.3,2.3,4.2
		C84.2,32.7,83.8,33.9,83.1,34.9z"/>
	<path class="st1" d="M82.4,34.5c-2,3.1-5.3,5.2-8.5,6.9c-3.3,1.8-6.8,3.2-10.2,4.8c-1.7,0.8-3.3,1.7-4.8,2.7
		c-1.7,1.1-3.2,2.4-4.8,3.7c-3,2.6-5.8,5.5-9,7.9C42,63,38,65.4,33.8,65.2c-3.3-0.1-6.5-2.4-7.7-5.5c-1.2-3.1,0.2-6.8,3-8.6
		c0.7-0.4,1.4-0.7,2.1-0.9c0.4-0.1,0.8-0.1,1.2-0.1c0.2,0,0.3,0,0.5,0.1c0,0,0.1,0.1,0,0.1c0-0.1,0,0.1,0,0.2c0,0.1-0.1,0.5-0.2,0.7
		c-0.2,0.3-0.5,0.5-0.9,0.7c-0.8,0.4-1.7,0.4-2.6,0.2c-1.9-0.5-3.3-2-4.3-3.7c-1-1.7-1.6-3.6-1.6-5.6c0-2,0.7-3.9,1.9-5.4
		c1.3-1.6,3-3,4.7-4.2c7.4-5,16.6-6.1,25.4-6.3c4.1-0.1,8.8,0.5,12.2-2.3c2.6-2.1,3.6-5.6,4.4-8.7c0.4-1.6,0.8-3.2,1.4-4.7
		c0.6-1.6,1.4-3.1,2.5-4.4C78.1,4,81.6,2,85.4,1.7c4.3-0.3,8.6,1,12.2,3.2c3.5,2.1,6.4,5.3,7.1,9.5c0.3,1.7,0.3,4.1-1.1,5.4
		c-1.3,1.2-3.3,1.2-4.9,1c-2-0.2-4-0.8-6-0.9c-1.8-0.1-3.8,0.4-4.8,2c-0.8,1.3-0.9,3-0.8,4.5c0.1,0.9,1.4,1.1,1.6,0.2
		c0.7-2.7-1.4-6.6-4.5-6c-1.9,0.4-3,2.2-3.2,4c-0.2,1-0.1,2.1,0.3,3.1c0.3,0.7,0.8,1.3,1.3,1.9c0.4,0.5,0.8,1,0.9,1.7
		C83.5,32.5,83,33.6,82.4,34.5c-0.6,0.9,0.9,1.7,1.4,0.8c0.9-1.4,1.6-3.3,0.9-5c-0.5-1.2-1.6-1.9-2.1-3.1c-0.6-1.4-0.3-3.5,0.9-4.5
		c0.4-0.4,0.9-0.5,1.4-0.5c0.3,0,0.8,0.3,1.1,0.6c0.9,0.8,1.3,2.2,1,3.4c0.5,0.1,1.1,0.1,1.6,0.2c-0.1-1.4-0.1-3.2,1-4.2
		c0.6-0.5,1.6-0.6,2.4-0.7c1,0,2.1,0.1,3.1,0.3c2,0.4,4,0.8,6.1,0.6c1-0.1,2-0.4,2.9-1c0.9-0.6,1.6-1.5,1.9-2.6
		c0.7-2,0.5-4.4-0.1-6.5c-0.7-2.1-1.9-4.1-3.4-5.7c-3-3.2-7.3-5.3-11.6-6.2c-4.3-0.9-8.9-0.5-12.6,2c-3.3,2.1-5.6,5.3-6.8,9
		c-1.1,3.2-1.5,6.7-3.2,9.7c-0.9,1.5-2.1,2.7-3.7,3.3c-2,0.8-4.2,0.7-6.3,0.7c-9.5,0.1-19.4,0.7-27.7,5.6c-1.9,1.1-3.6,2.4-5.2,3.9
		c-1.6,1.6-3,3.5-3.4,5.7c-0.4,2.1-0.2,4.3,0.5,6.3c0.7,2,1.9,4,3.6,5.3c1.7,1.3,4,2.1,6.1,1.3c1-0.3,1.8-0.9,2.2-1.9
		c0.4-0.9,0.4-1.9-0.4-2.6c-0.8-0.7-2.1-0.6-3.1-0.4c-0.9,0.2-1.7,0.5-2.5,1c-1.6,1-2.8,2.4-3.6,4.1c-0.8,1.8-1,3.7-0.5,5.6
		c0.5,1.8,1.5,3.4,2.9,4.7c1.4,1.3,3.2,2.2,5,2.6c2.2,0.4,4.5,0.1,6.6-0.6c8.2-2.9,13.4-10.4,20.3-15.2c6.5-4.5,14.5-6.3,20.7-11.2
		c1.5-1.2,3-2.6,4-4.3C84.4,34.4,83,33.6,82.4,34.5z"/>
	<path class="st1" d="M89.6,181.5c1.6,8.7,2.5,17.5,3,26.3c0.2,4.1,0.4,8.3,0.4,12.4c0,4.1-0.4,8.3,0.1,12.5c0.4,3.3,1.4,7,4.7,8.5
		c2.4,1.1,7.8,1.5,8.3-2c0.2-1.2-0.7-2.6-2-2.7c-1.3-0.1-2.3,1.1-2.3,2.3c-0.2,3,4.1,4.3,6.4,4.9c6.4,1.6,13.5,0.6,19.6-1.5
		c2.9-1,6-2.3,8.1-4.7c2.2-2.5,2-5.5,0.1-8.1c-1-1.3-2.1-2.4-2.9-3.9c-0.9-1.7-1.5-3.7-2-5.5c-0.9-3.8-1.5-7.6-2.2-11.4
		c-1.4-7.9-2.9-15.8-4.5-23.6c-3.3-15.5-7.5-30.9-14.2-45.4c-1.7-3.7-3.6-7.4-5.7-10.9c-2-3.5-4.1-6.9-5.9-10.5
		c-1.6-3.3-3-6.8-3.4-10.5c-0.3-2.9,0-5.8,0.8-8.6c1.5-5.4,4.4-10.3,6.8-15.4c1.1-2.5,2.2-5.1,2.8-7.8c0.3-1.4,0.5-2.8,0.6-4.2
		c0.1-1.4,0.3-3.2-0.2-4.5c-0.8-2.5-4.6-2.7-5.9-0.5c-1.4,2.3-0.1,5.2,2.2,6.2c2.3,1.1,5,1.1,7.5,1c2.6-0.1,5.3-0.4,7.9-0.7
		c7.7-0.9,15-2.6,22.1-5.7c7.7-3.4,14.7-8.3,22-12.4c3.8-2.1,7.6-4.1,11.5-5.9c2.9-1.4,5.8-2.9,8.7-4.3c2.7-1.3,6.2-2.8,9.2-2
		c1.7,0.4,3.2,1.6,4.5,2.8c1.1,1,2.3,2.6,3.8,3c2.9,0.8,4.8-2.8,2.7-4.9l-1,1.3c2.9,2.1,6.1-2,3.6-4.4c-0.3,0.4-0.7,0.9-1,1.3
		c2.9,2.1,6.1-2,3.6-4.4l-1,1.3c2.8,2,6.1-1.7,3.8-4.3c-0.7-0.7-1.5-1.3-2.3-2c-0.9-0.8-1.8-1.6-2.7-2.4c-1.7-1.5-3.4-3-5.1-4.4
		c-2.8-2.2-5.7-3.7-9.2-4.2c-3.4-0.5-6.8-0.4-10.2,0.1c-8.2,1.3-15.6,5.3-22.7,9.3c-7.8,4.4-15.7,9.1-24.4,11.6
		c-8.9,2.6-18.3,1.9-27.4,1c-3.8-0.4-7.5-1.2-11.1,0.5c-1,0.5-2.3,1.2-2.6,2.5c-0.3,1.1,0.4,2.5,1.4,3c1.5,0.6,2.4-1,2.6-2.3
		c0.1-0.7,0-1.5-0.1-2.3c-0.1-1.2-0.2-2.4-0.2-3.6c0-0.2,0.1-2.4,0-2.5c0.1,0.1-0.8,0.4,0,0.3c0.3,0,0.6-0.1,0.9-0.2
		c0.6-0.1,1.1-0.3,1.6-0.6c1-0.5,1.9-1.3,2.6-2.1c1.6-1.9,2.4-4.3,2.7-6.7c0.7-5.5-1-10.9-5.8-13.9c-5.7-3.5-15-2.9-17.4,4.3
		c-0.6,1.7-0.7,3.5-0.9,5.3c-0.1,1.7-0.2,3.5-0.4,5.2c-0.1,1.7-0.2,3.5-0.7,5.1c-0.6,1.8-1.8,3-3.3,4c-3.2,2-6.9,3-10.2,4.9
		c-3.4,2-6.1,5.2-8.4,8.4c-8,11.2-10.2,25.9-5.9,39c2.1,6.4,5.8,12.2,10.9,16.7c5.4,4.7,11.9,7.9,18.8,9.7c15.2,3.8,31.1,1,45.7-3.8
		c8.6-2.9,17-6.5,25.3-10.3c2-0.9,4-1.9,6.1-2.8c2-0.9,4.1-1.8,6.4-2c2.2-0.2,4.2,0.4,6.1,1.6c1.6,1,3,2.6,4.7,3.3
		c3,1.3,5.5-2.8,2.9-4.9l-1,1.3c3.1,1.7,6.1-2.5,3.3-4.7c-0.3,0.4-0.7,0.9-1,1.3c3.1,1.7,6.1-2.5,3.3-4.7c-0.3,0.4-0.7,0.9-1,1.3
		c2.7,1.5,5.7-1.6,3.8-4.1c-0.6-0.8-1.7-1.4-2.5-1.9c-3.4-2.3-6.9-4.6-10.3-6.9c-1-0.7-2-1.3-2.9-2v1.4c1.6-0.8,4.1-1.4,4.9-3.1
		c0.3-0.6,0.4-1.3,0.3-2c-0.2-0.7-1-1.2-1.6-1.5c-1.4-0.7-3-1-4.6-1c-8,0-15.2,4.8-22.1,8.4c-16,8.3-35.2,15.2-53.2,9.2
		c-4.5-1.5-9-3.9-11.8-7.8c-2.7-3.8-3.3-8.9-0.5-12.8c0.6-0.9-0.8-1.7-1.4-0.8c-2.2,3-2.6,7.1-1.4,10.6c1.2,3.5,3.7,6.4,6.6,8.5
		c7,5,16.4,6.6,24.8,6.2c9.2-0.4,18.1-3,26.5-6.5c4.1-1.7,8.1-3.5,12-5.6c3.9-2.1,7.6-4.3,11.7-5.8c3.5-1.3,7.9-2.6,11.6-1.4
		c1,0.3,2.2,0.8,1.3,2c-0.3,0.4-0.8,0.6-1.3,0.8c-0.9,0.4-1.8,0.8-2.8,1.3c-0.6,0.3-0.5,1.1,0,1.4c4.7,3.1,9.4,6.3,14,9.4
		c0.3,0.2,0.7,0.4,0.9,0.6c1.2,1,0.1,2.9-1.3,2.1c-0.8-0.4-1.7,0.7-1,1.3c1.3,1,0.2,3-1.3,2.1c-0.8-0.4-1.7,0.7-1,1.3
		c1.3,1,0.2,3-1.3,2.1c-0.8-0.4-1.7,0.7-1,1.3c0.7,0.6,1,1.6,0.1,2.2c-0.9,0.5-1.8-0.4-2.4-0.8c-1.5-1.1-2.9-2.3-4.5-3.1
		c-3.3-1.7-7.1-1.2-10.4,0.1c-3.7,1.4-7.3,3.3-10.9,4.9c-3.9,1.8-7.8,3.5-11.8,5.1c-13.9,5.6-28.8,10.1-44,9.4
		c-13-0.6-26.4-5.4-34.5-16.2c-7.5-10-9.5-23.6-6.2-35.6c1.8-6.5,5.3-12.7,10.1-17.6c2.6-2.7,5.7-4.2,9.2-5.7c2.8-1.2,6.1-2.5,8-5.1
		c1.8-2.4,1.8-5.7,2-8.5c0.2-3.2,0.1-6.8,1.2-9.8c2.8-7.1,13.1-5.6,17.3-1c3.2,3.4,3.4,8.9,1.9,13.1c-0.7,2-2,3.9-3.9,4.8
		c-0.5,0.2-0.9,0.4-1.4,0.5c-0.5,0.1-1.1,0-1.4,0.3c-0.5,0.4-0.5,1.1-0.5,1.7c-0.1,2,0.2,4.1,0.3,6.1c0,0.4,0.2,2.5-0.4,2.2
		c-0.6-0.3-0.3-1.1,0-1.4c0.5-0.5,1.2-0.8,1.8-1.1c3.4-1.4,7.3-0.4,10.9-0.1c4.2,0.4,8.5,0.7,12.8,0.7c4,0,7.9-0.2,11.8-1.2
		c3.8-0.9,7.5-2.3,11-3.9c7.5-3.4,14.4-7.8,21.7-11.6c6.4-3.4,13.2-6.1,20.6-6.4c3.2-0.1,6.5,0.1,9.5,1.3c3.4,1.3,6.1,4.1,8.8,6.4
		c1.5,1.3,2.9,2.6,4.4,3.9c0.6,0.5,1.7,1.1,1.6,2.1c-0.1,1.2-1.3,1.3-2.1,0.8c-0.8-0.5-1.6,0.6-1,1.3c1.2,1.2-0.3,2.8-1.6,1.8
		c-0.8-0.5-1.6,0.6-1,1.3c1.2,1.2-0.2,2.8-1.6,1.8c-0.8-0.5-1.6,0.6-1,1.3c0.6,0.6,0.7,1.7-0.2,2.1c-0.9,0.4-1.6-0.4-2.2-1
		c-1.2-1.1-2.3-2.2-3.5-3.1c-2.2-1.7-4.6-2.2-7.4-1.8c-2.9,0.5-5.6,1.7-8.1,3c-2.7,1.3-5.4,2.7-8.1,3.9c-7,3.3-13.7,7.2-20.3,11.2
		c-6.5,3.9-13.2,7.5-20.5,9.7c-5.7,1.7-11.7,2.5-17.7,3c-2.5,0.2-5.1,0.4-7.6,0c-2-0.3-5.2-1.4-4.2-4.2c0.4-1.2,2.4-1.7,3.1-0.4
		c0.6,1.1,0.3,3.1,0.2,4.4c-0.2,2.6-0.9,5.1-1.7,7.5c-1.7,4.8-4.4,9.3-6.4,14c-2,4.6-3.4,9.5-2.8,14.6c0.7,6.7,4.2,12.6,7.5,18.3
		c3.7,6.3,7.2,12.8,10,19.6c2.7,6.6,5,13.3,7,20.2c3.9,13.8,6.5,27.9,9,42.1c0.6,3.5,1.2,7,1.9,10.5c0.7,3.1,1.5,6.5,3.4,9.1
		c1.6,2.2,4.6,4.7,3,7.6c-1.4,2.6-4.6,4-7.3,5c-5.6,2.1-12.1,3.2-18.1,2.1c-1.4-0.3-2.8-0.6-4.1-1.2c-0.7-0.3-1.4-0.6-1.9-1.1
		c-0.3-0.3-0.6-0.6-0.6-1c0-0.5,0.3-1.2,0.9-0.8c0.9,0.7-0.4,1.8-1.1,1.9c-0.9,0.3-1.9,0.2-2.7,0c-1.9-0.2-3.4-1.1-4.4-2.8
		c-1.8-3.1-1.7-7.4-1.5-10.9c0.2-3.7,0.1-7.3,0-11c-0.2-7.8-0.8-15.6-1.7-23.3c-0.5-3.7-1-7.4-1.7-11.1
		C91,180.1,89.4,180.5,89.6,181.5L89.6,181.5z"/>
	<path class="st1" d="M62.6,64.3c-8,9.9-16.1,20-21,31.8c-2.4,5.8-3.6,11.9-3.6,18.2c0,6,1.2,12,3.1,17.6c2,5.8,4.7,11.4,7.8,16.7
		c1.6,2.7,3.2,5.3,4.9,7.9c1.7,2.5,3.3,5.2,5.2,7.5c0.9,1.1,1.9,2.1,3.4,2.2c1.1,0.1,2.4-0.3,3-1.3c1.8-2.8-2-5-3.9-6
		c-5.8-3.2-11.8-6.2-17.8-8.9c-6.1-2.7-12.2-5.2-18.5-7.3c-3.1-1.1-6.3-2.2-9.5-3c-1.5-0.4-3-0.4-4.3,0.6c-1.2,0.9-1.9,2.3-2.6,3.6
		c-3.2,5.5-5.6,11.4-7,17.6c-0.6,2.6-0.9,5.3-1.3,8c-0.2,1.7-0.5,3.6,0,5.3c0.5,1.8,1.9,2.7,3.8,2.9c3,0.2,5.7-1.5,8.5-2.1
		c5.9-1.3,11.2,3.5,15.7,6.5c10.2,6.6,22.7,10.3,34.8,9.5c5.7-0.4,11.6-1.7,16.4-4.8c4.9-3.2,8.1-8.3,9.8-13.8
		c3.7-12.3,0.6-25.2-4.2-36.7c-1.2-2.9-2.5-5.8-3.9-8.7c-0.4-1-1.9-0.1-1.4,0.8c5.1,11,10.1,22.6,9.5,34.9
		c-0.3,5.6-1.6,11.4-4.7,16.2c-3.1,4.7-7.9,7.6-13.3,9.1c-11,3.1-23.3,1.2-33.7-3.3c-2.7-1.2-5.3-2.5-7.7-4.1
		c-2.4-1.5-4.7-3.3-7.2-4.7c-2.4-1.4-5-2.5-7.7-2.7c-3.1-0.1-5.6,1.4-8.5,2.1c-1.5,0.3-3.5,0.6-4.3-0.9c-0.7-1.3-0.5-3.1-0.3-4.5
		c0.6-5.4,1.6-10.7,3.5-15.8c1-2.9,2.3-5.6,3.8-8.3c0.7-1.3,1.4-2.6,2.3-3.7c0.4-0.5,0.8-1,1.4-1.3c0.7-0.3,1.5-0.1,2.2,0
		c3,0.7,6,1.8,8.9,2.8c3,1,6,2.1,9,3.3c5.9,2.3,11.8,4.9,17.5,7.7c2.8,1.4,5.6,2.8,8.4,4.4c0.9,0.5,6.8,3.1,5,4.9
		c-0.8,0.8-2.1,0.3-2.8-0.4c-1-0.9-1.7-2.1-2.5-3.3c-1.7-2.5-3.4-4.9-5-7.5c-3.2-5-6.1-10.2-8.5-15.6c-4.6-10.5-6.9-22.2-4.3-33.5
		c1.4-6,4-11.6,7.1-16.9c3-5.2,6.6-10.1,10.3-14.8c1.8-2.3,3.7-4.7,5.6-7C64.4,64.7,63.2,63.5,62.6,64.3z"/>
	<path class="st1" d="M207.7,37.6c-1.9-1.6-3.8-3.1-5.8-4.7c-0.3-0.2-0.5-0.4-0.8-0.7c-0.3-0.3-0.8-0.3-1.2,0
		c-0.3,0.3-0.3,0.9,0,1.2c1.9,1.6,3.8,3.1,5.8,4.7c0.3,0.2,0.5,0.4,0.8,0.7c0.3,0.3,0.8,0.3,1.2,0C208,38.4,208.1,37.8,207.7,37.6z"
		/>
	<path class="st1" d="M205.3,40.9c-1.9-1.6-3.8-3.1-5.8-4.7c-0.3-0.2-0.5-0.4-0.8-0.7c-0.3-0.3-0.8-0.3-1.2,0
		c-0.3,0.3-0.3,0.9,0,1.2c1.9,1.6,3.8,3.1,5.8,4.7c0.3,0.2,0.5,0.4,0.8,0.7c0.3,0.3,0.8,0.3,1.2,0C205.6,41.7,205.6,41.1,205.3,40.9
		z"/>
	<path class="st1" d="M202.8,44c-1.9-1.6-3.8-3.1-5.8-4.7c-0.3-0.2-0.5-0.4-0.8-0.7c-0.3-0.3-0.8-0.3-1.2,0c-0.3,0.3-0.3,0.9,0,1.2
		c1.9,1.6,3.8,3.1,5.8,4.7c0.3,0.2,0.5,0.4,0.8,0.7c0.3,0.3,0.8,0.3,1.2,0C203.1,44.9,203.2,44.3,202.8,44z"/>
	<path class="st1" d="M95.7,31.8c-0.1,0-0.3-0.1-0.4-0.1c-0.1,0-0.1,0-0.2-0.1c-0.1,0,0.1,0,0,0c0,0-0.1,0-0.1,0
		c-0.1-0.1-0.2-0.1-0.3-0.2c-0.1,0-0.1-0.1-0.2-0.1c0,0-0.1,0-0.1-0.1c0,0-0.1-0.1,0,0c0.1,0.1,0,0,0,0c0,0,0,0-0.1-0.1
		c0,0-0.1-0.1-0.1-0.1c-0.1-0.1-0.2-0.2-0.3-0.3c0,0,0,0-0.1-0.1c0-0.1,0,0,0,0c0-0.1-0.1-0.1-0.1-0.2c-0.1-0.1-0.1-0.2-0.2-0.3
		c-0.1-0.3-0.5-0.4-0.7-0.2c-0.3,0.2-0.3,0.5-0.2,0.7c0.6,1.1,1.6,1.9,2.8,2.1c0.3,0.1,0.6-0.1,0.7-0.4C96.2,32.2,96,31.9,95.7,31.8
		z"/>
	<path class="st1" d="M192.9,27c0.6,1.1,1.3,2.1,1.9,3.2c0.4,0.7,0.2,1.6-0.5,2c-0.4,0.2-0.9,0.3-1.3,0.1c-0.6-0.2-0.8-0.7-1.1-1.3
		c-0.4-0.7-0.9-1.4-1.4-2.1c-0.5-0.6-1-1.1-1.6-1.3c-0.4-0.2-0.9,0.2-1,0.6c-0.1,0.5,0.2,0.8,0.6,1c-0.2-0.1,0,0,0,0
		c0.1,0,0.1,0.1,0.2,0.1c0.1,0.1-0.1-0.1,0.1,0c0.1,0.1,0.1,0.1,0.2,0.2c0.2,0.2,0.4,0.5,0.6,0.7c0.5,0.6,0.9,1.3,1.2,1.9
		c0.4,0.7,1,1.3,1.8,1.6c0.7,0.3,1.5,0.2,2.2,0c1.4-0.6,2.3-2.2,1.9-3.7c-0.2-0.7-0.7-1.4-1.1-2c-0.4-0.7-0.8-1.3-1.2-2
		C193.8,25.3,192.3,26.1,192.9,27z"/>
	<path class="st2" d="M309.5,239c-5.3-1.4-6.9-8.4-7.4-14.1c-3.4-36.7-3.9-73.8-11.3-109.8c-2.6-12.6-6.1-25.2-13-35.9
		c-6.9-10.6-24.1-19.1-36.3-20.4v7c0,0,16,5.4,12,63.2c-2.9,42-13.9,72.5-18.5,92.3c-2.2,9.4,4.5,18.5,13.7,18.6
		C269.7,240.1,309.5,239,309.5,239z"/>
	<path class="st3" d="M245.6,218.8c0,0,0.1-2.9,2.9-6.3c3.3-4,5.1-2.9,11.3-7.3C258.9,220.9,245.6,218.8,245.6,218.8z"/>
	<path class="st3" d="M244.3,206.3c0,0-0.1-2.9-2.9-6.3c-3.3-4-5.1-2.9-11.3-7.3C231.1,208.4,244.3,206.3,244.3,206.3z"/>
	<path class="st4" d="M244.2,189.1v43.3c0,2-0.1,4,0,6c0,0,0,0.1,0,0.1c0,1.1,1.6,1.1,1.6,0v-43.3c0-2,0.1-4,0-6c0,0,0-0.1,0-0.1
		C245.9,188,244.2,188,244.2,189.1z"/>
	<path class="st3" d="M289.8,184.5c0,0,0.1-4.8,4.9-10.6c5.5-6.7,8.5-4.9,18.9-12.2C312,187.9,289.8,184.5,289.8,184.5z"/>
	<path class="st3" d="M288.2,208c0,0-0.1-4.5-4.6-9.9c-5.1-6.3-8-4.6-17.7-11.4C267.4,211.2,288.2,208,288.2,208z"/>
	<path class="st3" d="M288.2,165.3c0,0-0.1-3.1-3.1-6.7c-3.5-4.3-5.4-3.1-12-7.7C274.1,167.5,288.2,165.3,288.2,165.3z"/>
	<path class="st4" d="M288.4,141.6v92.9c0,1.3,0,2.5,0,3.8c0,0.1,0,0.1,0,0.2c0,1.1,1.6,1.1,1.6,0v-92.9c0-1.3,0-2.5,0-3.8
		c0-0.1,0-0.1,0-0.2C290.1,140.6,288.4,140.6,288.4,141.6z"/>
	<path class="st3" d="M315.1,103.7c1.4-4.2,0.4-9-2.9-12.3c-3.3-3.3-8.1-4.3-12.3-2.9c-2-4-6-6.7-10.8-6.7s-8.8,2.7-10.8,6.7
		c-4.2-1.4-9-0.4-12.3,2.9c-3.3,3.3-4.3,8.1-2.9,12.3c-4,2-6.7,6-6.7,10.8s2.7,8.8,6.7,10.8c-1.4,4.2-0.4,9,2.9,12.3
		c3.3,3.3,8.1,4.3,12.3,2.9c2,4,6,6.7,10.8,6.7s8.8-2.7,10.8-6.7c4.2,1.4,9,0.4,12.3-2.9c3.3-3.3,4.3-8.1,2.9-12.3
		c4-2,6.7-6,6.7-10.8S319,105.7,315.1,103.7z"/>
	<path class="st4" d="M289.1,129.2c8.1,0,14.7-6.6,14.7-14.7c0-8.1-6.6-14.7-14.7-14.7s-14.7,6.6-14.7,14.7
		C274.4,122.6,281,129.2,289.1,129.2z"/>
	<path class="st3" d="M263.9,157.5c1-3,0.3-6.5-2.1-8.9c-2.4-2.4-5.9-3.1-8.9-2.1c-1.4-2.9-4.4-4.8-7.8-4.8c-3.4,0-6.4,2-7.8,4.8
		c-3-1-6.5-0.3-8.9,2.1c-2.4,2.4-3.1,5.9-2.1,8.9c-2.9,1.4-4.8,4.4-4.8,7.8c0,3.4,2,6.4,4.8,7.8c-1,3-0.3,6.5,2.1,8.9
		c2.4,2.4,5.9,3.1,8.9,2.1c1.4,2.9,4.4,4.8,7.8,4.8c3.4,0,6.4-2,7.8-4.8c3,1,6.5,0.3,8.9-2.1c2.4-2.4,3.1-5.9,2.1-8.9
		c2.9-1.4,4.8-4.4,4.8-7.8C268.8,161.9,266.8,158.9,263.9,157.5z"/>
	<path class="st4" d="M245.1,176c5.9,0,10.7-4.8,10.7-10.7c0-5.9-4.8-10.7-10.7-10.7c-5.9,0-10.7,4.8-10.7,10.7
		C234.4,171.2,239.2,176,245.1,176z"/>
	<path class="st4" d="M249.5,233.7c-3.8-7.8-10.8-8.5-14.9-8.2c0.3,7.7,6.3,14.2,14.1,14.3c3.9,0,8.4,0,13.2,0
		C260.5,236.8,256.7,231,249.5,233.7z"/>
	<path class="st4" d="M278.4,239.9c0,0,0.9-12.2,10.8-8.9c3.3-5.5,11.9-10.8,17.4-0.5c6.7-5.2,15.1,9.4,15.1,9.4H278.4z"/>
	<path class="st4" d="M224,131.7c-0.1-1.5,0.5-3,1.7-3.9c1-0.7,2.3-1.1,3.3-0.8c0.4,0.1,0.8,0.5,1,0.9c0.3,0.6,0.2,1.4,0.1,2
		c-0.2,0.7-0.6,1.3-1.1,1.8c-0.6,0.8-1.3,1.5-2,2.3c-1.4,1.5-3,2.8-4.4,4.3l0.9,0.1c-1.2-1.8-2.9-3.4-3.9-5.4c-0.5-0.9-0.8-2-0.7-3
		c0.1-1,0.9-1.9,2-1.5c1.4,0.4,1.8,2,2.1,3.3c0.2,0.7,1.2,0.4,1.1-0.3c-0.4-1.4-0.9-2.9-2.1-3.7c-1.1-0.7-2.6-0.6-3.5,0.5
		c-0.8,1-0.8,2.5-0.5,3.7c0.3,1.3,1.1,2.4,1.9,3.5c0.9,1.2,1.9,2.3,2.7,3.5c0.2,0.3,0.6,0.4,0.9,0.1c1.3-1.5,2.9-2.8,4.3-4.2
		c0.8-0.8,1.6-1.6,2.3-2.5c0.5-0.7,1.1-1.4,1.3-2.2c0.4-1.5,0.1-3.3-1.4-4.1c-1.3-0.7-3-0.3-4.2,0.5c-1.7,1.1-2.7,3-2.6,5.1
		C222.9,132.4,224,132.4,224,131.7z"/>
	<path class="st4" d="M298.9,70.7c0-1,0.7-1.9,1.6-2.1c0.9-0.2,2,0.3,2.5,1.1c0.6,1.1,0.1,2.4-0.4,3.4c-0.6,1-1.4,1.9-2.2,2.7
		c-0.9,0.9-1.9,1.8-2.6,2.9l0.9-0.1c-1.4-1.8-3.1-3.5-4.2-5.6c-0.5-1-0.9-2.1-1-3.2c0-1.1,0.6-2.4,1.9-2.1c1.5,0.3,2.1,1.9,2.5,3.2
		c0.2,0.7,1.3,0.4,1.1-0.3c-0.5-1.4-1.1-3-2.5-3.7c-1.4-0.6-2.9-0.2-3.6,1.2c-0.6,1.2-0.4,2.8,0.1,4c0.5,1.3,1.2,2.5,2.1,3.6
		c1,1.3,2,2.4,3,3.7c0.2,0.3,0.7,0.1,0.9-0.1c1.6-2.3,4.2-3.9,5.2-6.6c0.5-1.3,0.6-2.9-0.4-4c-0.8-0.9-2.1-1.4-3.3-1.1
		c-1.4,0.4-2.4,1.7-2.4,3.2C297.8,71.4,298.9,71.4,298.9,70.7z"/>
	<path class="st4" d="M321.8,94.2c0.2-0.2,0.5-0.3,0.8-0.4c0.3-0.1,0.5-0.2,0.7-0.3c0.3-0.1,0.6-0.2,0.8-0.3c0.1,0,0.3-0.1,0.4-0.1
		c0.1,0,0.2,0,0.2,0c0,0,0.1,0,0.1,0c0,0,0,0,0,0c0.3,0,0.6-0.2,0.5-0.5c0-0.3-0.2-0.6-0.5-0.5c-1.3,0.2-2.6,0.6-3.7,1.3
		c-0.2,0.2-0.4,0.5-0.2,0.7C321.2,94.3,321.6,94.4,321.8,94.2z"/>
	<path class="st4" d="M323.6,100.1h2.7c0.3,0,0.6-0.3,0.5-0.5c0-0.3-0.2-0.5-0.5-0.5h-2.7c-0.3,0-0.6,0.3-0.5,0.5
		C323.1,99.9,323.3,100.1,323.6,100.1z"/>
	<path class="st4" d="M318.3,88c0,0.1,0,0.1,0,0.2c0,0.1,0,0.1,0,0c0,0,0,0.1,0,0.1c0,0.1,0,0.3-0.1,0.4c-0.1,0.2-0.1,0.5-0.2,0.7
		c0,0.1-0.1,0.2-0.1,0.4c0,0-0.1,0.2,0,0.1c0,0,0,0.1-0.1,0.1c-0.1,0.2-0.2,0.5-0.4,0.7c-0.1,0.2-0.1,0.6,0.2,0.7
		c0.3,0.1,0.6,0.1,0.7-0.2c0.6-1,1-2.2,1.1-3.3c0-0.3-0.3-0.6-0.5-0.5C318.5,87.5,318.3,87.7,318.3,88z"/>
	<path class="st4" d="M212.9,171.2c0.8-0.6,1.6-1.1,2.4-1.7c0.2-0.2,0.4-0.5,0.2-0.7c-0.1-0.2-0.5-0.4-0.7-0.2
		c-0.8,0.6-1.6,1.1-2.4,1.7c-0.2,0.2-0.4,0.5-0.2,0.7C212.3,171.3,212.6,171.4,212.9,171.2z"/>
	<path class="st4" d="M216.7,180.4c0.5-0.5,0.9-0.9,1.4-1.4c0.2-0.2,0.2-0.6,0-0.8c-0.2-0.2-0.6-0.2-0.8,0c-0.5,0.5-0.9,0.9-1.4,1.4
		c-0.2,0.2-0.2,0.6,0,0.8C216.2,180.6,216.5,180.6,216.7,180.4z"/>
	<path class="st4" d="M213,160.8c0.3,0.2,0.7,0.5,1,0.7c0.1,0.1,0.3,0.1,0.4,0.1c0.1,0,0.3-0.1,0.3-0.2c0.1-0.1,0.1-0.3,0.1-0.4
		c0-0.1-0.1-0.2-0.3-0.3c-0.3-0.2-0.7-0.5-1-0.7c-0.1-0.1-0.3-0.1-0.4-0.1c-0.1,0-0.3,0.1-0.3,0.2c-0.1,0.1-0.1,0.3-0.1,0.4
		C212.8,160.6,212.9,160.7,213,160.8z"/>
	<path class="st2" d="M247.2,57.4c3.9-0.2,7.8-0.1,11.7,0.2c0.4,0,0.8-0.4,0.8-0.8c0-0.5-0.4-0.8-0.8-0.8c-3.9-0.3-7.8-0.4-11.7-0.2
		C246.2,55.8,246.2,57.4,247.2,57.4z"/>
	<path class="st2" d="M244.1,75.9c0.9,1.6,1.6,3.2,1.9,5.1c0.1,0.4,0.6,0.7,1,0.6c0.4-0.1,0.7-0.6,0.6-1c-0.4-1.9-1.1-3.8-2.1-5.4
		c-0.2-0.4-0.7-0.5-1.1-0.3C244,75,243.9,75.5,244.1,75.9z"/>
</g>
</svg>
