<svg width="327" height="314" viewBox="0 0 327 314" fill="none" xmlns="http://www.w3.org/2000/svg">
<g clip-path="url(#clip0_69_789)">
<path d="M217.875 27.6885L193.536 0.0405273L13.1291 29.2283C8.86026 29.919 4.73468 31.3092 0.918514 33.343L0 33.8325L217.875 27.6885Z" fill="#FACC15"/>
<path d="M213.149 45.6479L217.875 27.6885L0 33.8325L213.149 45.6479Z" fill="#0EA5E9"/>
<path d="M228.627 37.4953L0.118153 33.7144C2.19697 37.1505 5.44335 39.7233 9.26346 40.9623L204.219 104.191L228.627 37.4953Z" fill="#FB7185"/>
<path d="M228.509 37.6134L265.61 74.5396L7.81112 38.0336C4.79093 37.6059 2.02178 36.1166 0 33.8325L228.509 37.6134Z" fill="#FACC15"/>
<path d="M193.992 151.42C190.162 149.304 186.823 146.506 184.077 143.084C181.668 140.083 179.658 136.369 178.303 132.813C176.956 129.279 176.04 125.59 175.457 121.857C175.422 121.633 175.388 121.41 175.356 121.186C175.341 121.083 175.326 120.981 175.312 120.878C175.304 120.825 175.262 120.521 175.286 120.696C175.227 120.258 175.174 119.82 175.124 119.382C175.028 118.533 174.948 117.682 174.883 116.829C174.766 115.275 174.699 113.717 174.68 112.159C174.651 109.775 174.731 107.387 174.935 105.012C174.994 104.328 175.064 103.645 175.148 102.964C175.162 102.856 175.178 102.748 175.19 102.64C175.16 102.921 175.159 102.863 175.188 102.661C175.198 102.593 175.209 102.526 175.218 102.458C175.326 101.701 174.79 101.31 174.395 100.749C174.043 100.25 173.738 99.7196 173.477 99.1682C172.992 98.1427 172.697 97.0192 172.506 95.904C172.188 94.0463 172.243 92.0206 172.465 90.1005C172.489 89.8915 172.466 90.0842 172.472 90.0357C172.486 89.9426 172.499 89.8496 172.513 89.7567C172.536 89.6023 172.561 89.4481 172.587 89.2942C172.627 89.0652 172.67 88.8366 172.718 88.6091C172.786 88.2862 172.848 88.0146 172.783 87.6728C172.626 86.8588 172.422 86.0511 172.242 85.2422C171.504 81.9257 170.766 78.6092 170.028 75.2927C169.759 74.0826 169.49 72.8725 169.22 71.6623C169.172 71.4467 169.113 71.2304 169.076 71.0125C168.932 70.1708 169.428 69.3625 170.27 69.1479C171.2 68.9109 172.028 69.5539 172.23 70.451C172.455 71.4485 174.017 71.4451 174.244 70.451C174.409 69.7311 174.924 69.1595 175.694 69.0915C176.488 69.0214 177.075 69.5347 177.376 70.221C177.769 71.1141 179.023 70.7304 179.285 69.9715C179.543 69.2248 180.321 68.7694 181.095 68.9125C181.904 69.062 182.265 69.7071 182.431 70.4463C182.531 70.8905 182.996 71.213 183.438 71.213C183.929 71.213 184.278 70.8801 184.446 70.4463C184.755 69.6456 185.711 69.2513 186.497 69.5521C187.054 69.7651 187.372 70.2245 187.512 70.7871C187.688 71.4991 187.836 72.2191 187.998 72.9343C188.613 75.6506 189.228 78.3669 189.843 81.0831C190.005 81.7987 190.167 82.5143 190.329 83.2299C190.499 83.9816 191.555 84.2589 192.074 83.6908C192.767 82.932 193.461 82.1733 194.154 81.4145C194.406 81.138 194.659 80.7928 194.956 80.5607C195.521 80.1197 196.12 80.2406 196.596 80.6573C196.827 80.8597 197.006 81.1088 197.122 81.3947C197.263 81.7403 197.272 81.996 197.213 82.2613C197.032 83.0792 196.512 83.8098 196.017 84.5061C195.487 85.252 194.906 85.966 194.427 86.7474C193.953 87.5221 193.677 88.3695 193.503 89.2573C192.681 93.4497 193.508 97.8066 193.85 102.008C194.201 106.313 194.85 110.649 196.434 114.69C198.074 118.875 200.652 122.512 203.846 125.658C205.471 127.259 207.302 128.738 209.398 129.672C211.227 130.487 213.183 130.88 215.185 130.843C219.008 130.773 222.858 129.358 225.915 127.081C227.472 125.921 228.854 124.558 229.931 122.935C230.479 122.11 230.866 121.202 231.376 120.356C232.067 119.21 232.464 117.989 232.909 116.736C232.972 116.56 233.145 116.301 233.148 116.127C233.152 115.926 233.197 116.118 233.157 116.054L232.725 116.057L232.722 116.056C232.371 115.741 232.829 115.772 232.534 115.831C232.525 115.832 232.141 115.945 232 115.97C231.145 116.12 230.208 116.077 229.345 116.009C227.509 115.865 225.829 114.928 224.897 113.385C224.057 111.993 223.775 110.315 223.701 108.701C223.661 107.83 223.678 106.958 223.727 106.089C223.773 105.256 223.966 104.366 223.911 103.535C223.868 102.899 223.471 102.465 222.917 102.207C222.669 102.092 222.421 101.977 222.198 101.815C222.133 101.768 222.093 101.736 222.021 101.675L221.901 101.564C221.739 101.374 221.736 101.416 221.892 101.692C221.844 101.868 221.797 102.043 221.749 102.219C221.844 101.997 222.097 101.85 222.275 101.682C222.506 101.464 222.727 101.236 222.94 101C223.383 100.506 223.791 99.9772 224.171 99.4337C224.892 98.402 225.493 97.2936 226.078 96.1811C227.209 94.0292 228.295 91.7865 230.073 90.0817C231.874 88.3547 234.239 87.2712 236.711 86.9592C239.211 86.6438 241.708 87.1013 244.052 87.9695C246.038 88.7048 248.283 89.8754 249.33 91.8125C249.357 91.8633 249.381 91.9171 249.409 91.9671C249.515 92.1522 249.335 91.7294 249.399 91.9366C249.429 92.0353 249.47 92.131 249.499 92.2302C249.537 92.3555 249.568 92.4826 249.595 92.6105C249.609 92.6773 249.619 92.7449 249.633 92.8116C249.695 93.1103 249.626 92.692 249.645 92.8845C249.706 93.4956 249.709 94.1069 249.674 94.7198C249.627 95.5341 249.544 96.1474 249.448 96.7679C249.322 97.5865 249.17 98.4009 249.01 99.2134C248.682 100.872 248.316 102.522 248.007 104.184C247.718 105.739 247.453 107.318 247.406 108.901C247.368 110.167 247.467 111.545 248.106 112.67C248.75 113.803 249.895 114.374 251.165 114.456C252.11 114.517 252.975 114.266 253.901 114.629C254.976 115.051 255.841 115.918 256.564 116.792C262.612 124.116 262.826 134.435 261.079 143.316C259.208 152.827 255.292 161.844 250.933 170.452C250.47 171.366 250.001 172.276 249.527 173.184C248.905 174.375 250.707 175.432 251.33 174.239C255.976 165.338 260.263 156.069 262.577 146.258C264.845 136.637 265.172 125.787 259.463 117.243C257.962 114.996 255.99 112.6 253.107 112.321C252.605 112.272 252.124 112.353 251.625 112.372C251.471 112.378 251.318 112.377 251.164 112.367C251.093 112.363 251.022 112.355 250.95 112.348C251.272 112.383 250.963 112.347 250.894 112.328C250.771 112.294 250.651 112.258 250.53 112.219C250.322 112.152 250.744 112.337 250.558 112.228C250.508 112.199 250.454 112.175 250.403 112.145C250.353 112.115 250.307 112.081 250.257 112.051C250.079 111.943 250.436 112.22 250.288 112.074C250.193 111.981 250.101 111.888 250.01 111.79C250.237 112.036 249.991 111.754 249.94 111.668C249.883 111.572 249.837 111.472 249.786 111.373C249.721 111.247 249.874 111.628 249.807 111.421C249.787 111.36 249.762 111.301 249.742 111.24C249.693 111.092 249.653 110.941 249.619 110.788C249.587 110.65 249.564 110.51 249.541 110.371C249.594 110.688 249.526 110.21 249.519 110.127C249.491 109.776 249.484 109.424 249.491 109.072C249.504 108.307 249.579 107.542 249.68 106.783C249.649 107.016 249.694 106.69 249.697 106.669C249.712 106.57 249.727 106.47 249.742 106.371C249.772 106.17 249.805 105.969 249.839 105.767C249.914 105.32 249.995 104.873 250.08 104.427C250.716 101.085 251.681 97.7102 251.782 94.2925C251.823 92.8828 251.649 91.4664 250.836 90.2786C249.37 88.1375 246.988 86.8368 244.607 85.9554C239.386 84.0217 233.435 84.4266 229.098 88.1501C227.033 89.9222 225.736 92.3319 224.494 94.7068C223.887 95.8682 223.276 97.0321 222.544 98.1211C222.214 98.6127 221.859 99.0819 221.462 99.5226C221.01 100.026 220.336 100.456 219.997 101.045C219.544 101.83 219.93 102.609 220.544 103.152C220.814 103.391 221.109 103.614 221.422 103.793C221.608 103.9 221.988 104.022 222.079 104.135L221.811 103.674C221.909 103.954 221.757 104.494 221.73 104.808C221.691 105.256 221.658 105.705 221.634 106.155C221.585 107.07 221.571 107.988 221.622 108.903C221.726 110.736 222.066 112.601 222.967 114.221C223.96 116.006 225.653 117.293 227.624 117.818C228.704 118.106 229.843 118.16 230.956 118.137C231.972 118.117 233.223 118.051 234.016 117.33C234.998 116.437 234.902 114.799 233.66 114.202C233.072 113.919 232.399 114 231.892 114.406C231.389 114.809 231.176 115.411 230.961 115.997C230.736 116.61 230.549 117.236 230.318 117.847C230.1 118.422 229.79 118.937 229.474 119.463C228.963 120.316 228.579 121.227 228.013 122.05C225.9 125.126 222.405 127.249 218.847 128.213C217.076 128.693 215.219 128.893 213.391 128.671C211.309 128.419 209.36 127.471 207.665 126.224C205.836 124.879 204.235 123.163 202.783 121.427C201.363 119.731 200.164 117.85 199.203 115.858C197.339 111.994 196.497 107.712 196.071 103.469C195.855 101.321 195.66 99.1675 195.47 97.0171C195.277 94.8382 195.11 92.5891 195.415 90.4124C195.48 89.9451 195.576 89.4799 195.701 89.0249C195.834 88.5388 195.888 88.3865 196.133 87.9645C196.601 87.1598 197.194 86.4335 197.736 85.6792C198.886 84.079 199.881 82.219 198.899 80.2799C197.953 78.4114 195.55 77.5351 193.785 78.845C192.866 79.5278 192.131 80.5355 191.363 81.3757C191.108 81.6551 190.852 81.9345 190.597 82.2139C191.179 82.3675 191.761 82.5211 192.343 82.6747C191.856 80.5257 191.37 78.3767 190.883 76.2277C190.555 74.7784 190.227 73.329 189.899 71.8796C189.722 71.0994 189.607 70.2532 189.278 69.5184C188.698 68.2222 187.355 67.3635 185.935 67.362C184.305 67.3603 183.002 68.4138 182.431 69.8911H184.446C184.097 68.3426 182.986 67.0943 181.37 66.8517C179.526 66.5748 177.871 67.6811 177.271 69.4163C177.908 69.3331 178.544 69.25 179.18 69.1668C178.546 67.7255 176.973 66.8499 175.417 67.0356C173.859 67.2214 172.581 68.362 172.23 69.8958H174.244C173.879 68.2739 172.445 67.104 170.796 67.0168C169.094 66.9269 167.487 68.1371 167.075 69.7825C166.774 70.9805 167.221 72.2855 167.483 73.46C168.338 77.3058 169.194 81.1516 170.05 84.9974C170.293 86.09 170.536 87.1825 170.779 88.2751V87.7198C170.481 88.9066 170.339 90.1513 170.253 91.3687C170.081 93.8128 170.258 96.3602 171.051 98.6913C171.582 100.253 172.379 101.68 173.473 102.917C173.384 102.579 173.294 102.24 173.204 101.901C172.994 103.225 172.873 104.567 172.776 105.903C172.546 109.066 172.524 112.245 172.701 115.411C172.941 119.689 173.541 123.967 174.619 128.117C175.818 132.729 177.63 137.228 180.208 141.246C183.031 145.647 186.76 149.413 191.192 152.197C191.764 152.556 192.347 152.897 192.938 153.224C194.115 153.875 195.17 152.071 193.992 151.42Z" fill="black"/>
<path d="M230.496 128.725C228.778 133.241 224.138 134.996 219.954 136.549C215.796 138.092 211.337 139.714 208.745 143.552C205.018 149.068 207.843 156.3 204.481 161.944C201.167 167.507 194.487 169.845 188.383 170.615C174.858 172.321 161.694 166.421 152.615 156.555C143.398 146.539 138.358 133.473 135.637 120.313C133.874 111.791 133.012 103.119 132.281 94.458C131.903 89.9725 131.546 85.4851 131.181 80.9985C130.996 78.7275 130.794 76.4573 130.626 74.185C130.567 73.3791 130.44 72.4606 130.712 71.6843C130.84 71.322 132.044 69.947 132.382 70.9178C132.519 71.3093 132.922 71.7424 133.389 71.6846C138.117 71.0986 143.665 69.6374 147.527 73.2809C150.374 75.9675 151.589 80.1677 150.158 83.8655C149.813 84.7568 150.959 85.4575 151.692 85.045C154.073 83.7055 156.455 82.3661 158.836 81.0267L157.302 79.8472C151.151 102.849 156.057 128.741 171.029 147.399C174.626 151.883 178.867 155.883 183.704 159.008C188.83 162.32 194.596 164.421 200.543 165.702C206.633 167.014 212.854 167.568 219.042 168.196C222.404 168.538 225.767 168.894 229.106 169.418C231.797 169.841 234.574 170.307 237.072 171.446C239.493 172.55 241.589 174.326 242.317 176.977C243.037 179.596 242.097 182.286 240.741 184.528C237.473 189.932 231.852 193.504 226.799 197.052C215.878 204.72 204.462 211.644 193.08 218.596C171.911 231.524 150.606 244.787 133.206 262.688C125.12 271.007 117.933 280.283 112.467 290.537C111.073 293.15 109.801 295.825 108.641 298.551C107.469 301.304 106.365 304.141 104.632 306.603C102.997 308.926 100.64 310.847 97.7877 311.382C95.3356 311.841 92.8288 311.032 91.6856 308.708C90.8258 306.961 90.7825 304.503 92.5408 303.298L91.2752 301.658C86.0109 305.829 78.6415 304.369 73.1972 301.417C70.1753 299.778 67.4165 297.701 64.6911 295.62C62.1535 293.681 59.2865 291.522 58.092 288.439C57.0619 285.781 57.3932 282.366 60.0957 280.86C62.6465 279.438 65.9109 279.857 68.7081 279.419C74.2915 278.545 78.814 274.849 82.3834 270.668C86.188 266.211 89.2384 261.162 92.6576 256.417C96.2668 251.408 100.087 246.552 104.104 241.864C112.245 232.362 121.189 223.529 130.908 215.644C150.155 200.029 172.88 187.967 197.539 184.005C206.469 182.57 216.804 182.228 224.73 187.326C228.569 189.795 231.132 193.589 232.069 198.05C233.161 203.247 232.005 208.616 232.776 213.851C233.548 219.094 237.199 223.278 242.843 222.985C246.002 222.82 249.022 221.504 251.743 219.971C254.733 218.287 257.605 216.363 260.378 214.346C265.866 210.354 270.831 205.816 275.513 200.915C279.435 196.81 284.079 191.695 290.012 190.839C291.433 190.634 293.013 190.689 294.378 191.166C295.021 191.391 295.83 191.772 296.151 192.427C296.487 193.111 296.188 194.118 295.32 194.046L296.327 195.368C297.018 191.869 303.958 194.904 305.717 195.599C309.861 197.235 313.802 199.511 317.29 202.285C319.02 203.66 320.672 205.155 322.177 206.775C323.601 208.306 325.532 210.752 324.325 212.933C323.465 214.485 321.425 215.078 319.846 215.552C317.784 216.171 315.743 216.806 313.745 217.611C305.698 220.853 298.537 225.8 291.75 231.135C285.765 235.839 280.159 241.08 273.932 245.465C265.014 251.744 254.848 256.464 244.234 259.009C234.701 261.294 223.963 261.97 214.792 257.91C204.813 253.492 199.398 244.006 197.488 233.591C197.181 231.918 196.964 230.233 196.806 228.539C196.683 227.212 194.593 227.199 194.717 228.539C195.807 240.263 200.264 252.104 210.909 258.273C220.232 263.676 231.695 263.681 241.984 261.638C253.473 259.356 264.585 254.427 274.221 247.801C280.779 243.292 286.634 237.817 292.873 232.891C300.324 227.008 308.343 221.507 317.418 218.476C320.71 217.377 325.629 216.718 326.641 212.714C327.727 208.415 323.142 204.546 320.3 202.081C316.775 199.024 312.816 196.468 308.561 194.551C305.259 193.064 300.979 190.983 297.261 191.941C295.8 192.318 294.613 193.292 294.313 194.812C294.174 195.517 294.611 196.075 295.32 196.134C298.146 196.37 299.136 192.76 297.588 190.852C295.833 188.689 292.391 188.426 289.827 188.773C283.62 189.614 278.743 194.543 274.605 198.843C269.613 204.032 264.434 208.901 258.559 213.093C255.551 215.24 252.415 217.375 249.095 219.012C246.045 220.516 242.141 221.811 238.894 220.133C233.687 217.442 234.546 210.129 234.617 205.255C234.692 200.13 234.206 194.979 231.181 190.658C225.645 182.751 215.023 180.756 205.975 181.028C200.195 181.203 194.396 182.293 188.782 183.617C182.402 185.123 176.15 187.16 170.082 189.638C157.957 194.59 146.579 201.232 136.065 209.022C125.459 216.88 115.7 225.854 106.829 235.623C102.433 240.464 98.2592 245.503 94.3009 250.707C90.4432 255.779 87.0293 261.157 83.2286 266.266C79.6973 271.012 75.2921 275.828 69.2897 277.189C66.282 277.872 63.0569 277.426 60.1413 278.553C57.4706 279.586 55.7851 281.855 55.5034 284.694C54.8322 291.46 61.3223 295.756 66.0717 299.256C71.4545 303.223 77.6858 306.856 84.6275 306.272C87.6299 306.019 90.3851 305.01 92.7523 303.135C93.6759 302.403 92.4628 300.825 91.4867 301.494C87.8546 303.984 88.5407 309.506 91.7504 312.076C96.0967 315.556 102.402 312.664 105.484 308.912C107.413 306.566 108.665 303.802 109.843 301.027C111.034 298.222 112.269 295.446 113.668 292.738C116.439 287.375 119.689 282.265 123.297 277.428C138.443 257.125 159.366 242.119 180.588 228.763C192.305 221.389 204.256 214.391 215.89 206.884C221.735 203.113 227.499 199.213 233.098 195.083C237.624 191.745 242.397 187.669 244.142 182.107C245.803 176.814 243.005 171.88 238.126 169.642C232.729 167.167 226.284 166.858 220.459 166.253C207.494 164.905 194.144 163.898 183.16 156.124C173.064 148.978 165.855 137.931 161.589 126.455C157.24 114.754 155.766 101.977 157.45 89.6002C157.872 86.4971 158.507 83.4272 159.316 80.4024C159.554 79.5141 158.575 78.7767 157.782 79.223C155.401 80.5624 153.019 81.9018 150.638 83.2412L152.172 84.4207C153.819 80.1667 152.406 75.2163 149.246 72.0394C144.872 67.6424 138.946 68.9069 133.389 69.5956L134.397 70.3624C133.483 67.7434 129.976 68.2996 128.932 70.516C128.209 72.052 128.512 73.8704 128.644 75.4952C128.822 77.679 129 79.8628 129.178 82.0466C129.871 90.5668 130.462 99.106 131.501 107.593C133.353 122.733 136.891 138.039 145.513 150.87C153.467 162.705 165.536 171.434 179.986 172.808C186.717 173.448 194.331 172.565 200.192 168.974C202.901 167.314 205.315 165.007 206.752 162.144C208.335 158.989 208.4 155.525 208.593 152.075C208.778 148.784 209.334 145.551 211.778 143.154C213.533 141.432 215.834 140.367 218.095 139.475C222.525 137.729 227.657 136.428 230.733 132.506C231.505 131.522 232.066 130.447 232.51 129.28C232.988 128.022 230.97 127.479 230.496 128.725Z" fill="black"/>
<path d="M143.114 71.806C143.717 74.4554 144.32 77.1046 144.913 79.7562C145.005 80.1662 145.118 80.5787 145.184 80.9941C145.272 81.5517 145.969 81.8609 146.468 81.7235C147.063 81.5602 147.286 80.9981 147.198 80.4388C147.028 79.358 146.721 78.2833 146.481 77.2169C146.116 75.6001 145.749 73.9836 145.382 72.3673C145.297 71.9951 145.213 71.6229 145.128 71.2507C145.003 70.7005 144.369 70.3766 143.843 70.5212C143.278 70.6766 142.988 71.2542 143.114 71.806Z" fill="black"/>
<path d="M137.993 71.4459C138.596 74.0952 139.199 76.7445 139.792 79.3961C139.884 79.8061 139.998 80.2186 140.063 80.6339C140.151 81.1916 140.848 81.5008 141.348 81.3634C141.943 81.2001 142.166 80.638 142.078 80.0787C141.907 78.9979 141.601 77.9232 141.36 76.8568C140.995 75.24 140.629 73.6235 140.261 72.0071C140.177 71.635 140.092 71.2628 140.008 70.8906C139.882 70.3404 139.249 70.0165 138.723 70.1611C138.158 70.3165 137.868 70.894 137.993 71.4459Z" fill="black"/>
<path d="M132.96 72.0203C133.563 74.6697 134.166 77.319 134.759 79.9706C134.851 80.3806 134.964 80.793 135.03 81.2084C135.118 81.7661 135.815 82.0753 136.315 81.9379C136.909 81.7745 137.132 81.2124 137.044 80.6531C136.874 79.5723 136.568 78.4977 136.327 77.4312C135.962 75.8144 135.595 74.198 135.228 72.5816C135.143 72.2094 135.059 71.8372 134.974 71.465C134.849 70.9149 134.216 70.591 133.689 70.7356C133.124 70.8909 132.834 71.4685 132.96 72.0203Z" fill="black"/>
<path d="M182.371 70.1356C182.973 72.7849 183.577 75.4342 184.17 78.0858C184.261 78.4958 184.375 78.9083 184.441 79.3236C184.528 79.8813 185.225 80.1905 185.725 80.0531C186.32 79.8898 186.543 79.3277 186.455 78.7684C186.284 77.6876 185.978 76.6129 185.737 75.5465C185.372 73.9297 185.006 72.3132 184.638 70.6968C184.554 70.3247 184.469 69.9525 184.385 69.5803C184.26 69.0301 183.626 68.7062 183.1 68.8508C182.535 69.0062 182.245 69.5837 182.371 70.1356Z" fill="black"/>
<path d="M177.25 69.7755C177.853 72.4248 178.456 75.0741 179.049 77.7257C179.141 78.1357 179.255 78.5482 179.32 78.9635C179.408 79.5212 180.105 79.8304 180.605 79.693C181.199 79.5297 181.422 78.9675 181.334 78.4083C181.164 77.3275 180.858 76.2528 180.617 75.1864C180.252 73.5695 179.885 71.9531 179.518 70.3367C179.434 69.9646 179.349 69.5923 179.264 69.2202C179.139 68.67 178.506 68.3461 177.98 68.4907C177.414 68.6461 177.125 69.2236 177.25 69.7755Z" fill="black"/>
<path d="M172.217 70.3499C172.819 72.9993 173.423 75.6486 174.016 78.3002C174.107 78.7101 174.221 79.1226 174.287 79.538C174.374 80.0956 175.071 80.4049 175.571 80.2674C176.166 80.1041 176.389 79.542 176.301 78.9827C176.131 77.9019 175.824 76.8273 175.584 75.7608C175.219 74.144 174.852 72.5275 174.485 70.9112C174.4 70.539 174.315 70.1668 174.231 69.7946C174.106 69.2445 173.472 68.9206 172.946 69.0652C172.381 69.2205 172.091 69.7981 172.217 70.3499Z" fill="black"/>
<path d="M180.241 87.4903C183.034 84.6388 187.043 83.3185 190.966 83.8285C191.526 83.9014 192.01 83.2964 192.01 82.7841C192.01 82.1593 191.528 81.8128 190.966 81.7397C186.526 81.1625 181.889 82.8229 178.764 86.0133C177.822 86.9743 179.298 88.4526 180.241 87.4903Z" fill="black"/>
<path d="M268.636 103.296C266.288 101.696 264.24 99.7124 262.674 97.3096C260.326 93.7076 259.214 89.4266 256.995 85.7435C254.106 80.9487 249.395 79.2011 244.083 78.7191C239.385 78.2929 234.798 80.1851 230.616 82.3662C227.584 83.9473 225.913 87.5994 229.029 90.1268C230.865 91.616 233.82 91.4639 235.494 89.7942C234.9 89.5973 234.223 89.9537 233.907 90.4927C233.59 91.0318 233.575 91.7009 233.693 92.3149C233.9 93.3939 234.558 94.3344 235.422 94.997C236.436 95.7754 237.206 95.6812 238.363 95.852C240.518 96.1702 239.776 101.085 239.75 102.782C239.703 100.823 240.597 98.8628 242.108 97.615C243.026 96.8566 244.247 96.3484 245.407 96.6166C246.794 96.9371 247.758 98.3454 247.843 99.7662C247.928 101.187 247.267 102.572 246.33 103.643C245.302 104.818 244.982 106.195 245.212 107.765C246.744 118.187 254.884 127.351 264.431 131.294C273.618 135.087 284.185 134.768 293.621 131.644C298.594 129.999 303.455 127.448 307.176 123.708C310.111 120.759 312.424 117.464 312.72 113.177C312.821 111.719 312.297 110.13 311.065 109.344C309.833 108.557 307.883 108.949 307.356 110.312C308.858 108.678 309.348 106.182 308.577 104.101C307.805 102.019 305.807 100.447 303.602 100.186C300.87 99.8635 298.287 101.397 296.057 103.006C295.621 104.395 297.653 105.538 298.928 104.836C300.204 104.135 300.627 102.492 300.592 101.036C300.535 98.6005 299.458 96.1219 297.461 94.7259C295.464 93.3298 292.528 93.2441 290.664 94.8142C289.958 95.4096 289.436 96.1903 288.925 96.9599C283.19 105.584 279.034 110.382 268.636 103.296Z" fill="black"/>
<path d="M269.163 102.394C267.219 101.061 265.445 99.4225 264.068 97.5025C262.583 95.4314 261.567 93.085 260.569 90.7533C259.59 88.466 258.628 86.0926 257.137 84.0802C255.857 82.3518 254.241 80.9147 252.339 79.9001C250.495 78.9161 248.471 78.3088 246.414 77.9705C243.865 77.5514 241.366 77.5125 238.828 78.0502C236.166 78.6141 233.629 79.6898 231.201 80.8972C230.156 81.417 229.144 81.9458 228.291 82.7593C227.532 83.483 226.938 84.3734 226.59 85.3635C225.819 87.557 226.801 89.7606 228.595 91.1017C230.385 92.4404 232.922 92.5049 234.882 91.5147C235.378 91.2641 235.834 90.919 236.232 90.5327C236.797 89.984 236.522 88.9915 235.771 88.7871C234.876 88.5432 233.908 88.8602 233.303 89.5613C232.643 90.3263 232.503 91.3339 232.642 92.3059C232.873 93.9323 234 95.5289 235.479 96.2702C236.232 96.6478 237.009 96.7378 237.835 96.83C237.948 96.8426 238.057 96.8505 238.154 96.8707C238.291 96.8998 238.39 96.982 238.214 96.8688C238.229 96.8783 238.313 96.9087 238.326 96.93C238.431 97.1002 238.247 96.7697 238.292 96.8996C238.313 96.9594 238.511 97.194 238.368 96.9565C238.422 97.0462 238.476 97.1346 238.529 97.2255C238.547 97.2576 238.611 97.4041 238.552 97.2678C238.483 97.1077 238.577 97.3421 238.582 97.3562C238.657 97.5938 238.718 97.833 238.76 98.0787C238.77 98.1366 238.779 98.1947 238.788 98.2527C238.782 98.2122 238.767 98.0387 238.785 98.2432C238.796 98.3661 238.81 98.4886 238.818 98.6118C238.839 98.8972 238.848 99.1834 238.85 99.4695C238.857 100.577 238.727 101.676 238.705 102.782H240.794C240.771 101.05 241.573 99.1904 243.079 98.1865C243.794 97.71 244.665 97.3854 245.477 97.7294C246.04 97.9683 246.536 98.6453 246.717 99.3196C246.924 100.086 246.741 101.041 246.325 101.825C245.843 102.733 245.053 103.415 244.63 104.358C243.756 106.311 244.179 108.415 244.671 110.414C246.511 117.882 251.483 124.378 257.712 128.772C264.697 133.698 273.434 135.574 281.886 135.009C286.348 134.711 290.783 133.788 294.992 132.274C299.088 130.801 302.99 128.755 306.316 125.924C309.347 123.344 312.138 120.031 313.255 116.145C313.812 114.203 314.091 112.014 313.144 110.15C312.264 108.42 310.25 107.439 308.371 108.104C307.406 108.446 306.741 109.096 306.349 110.035C305.94 111.01 307.431 111.789 308.094 111.051C310.1 108.816 310.589 105.446 309.119 102.792C307.66 100.157 304.679 98.778 301.733 99.1903C300.185 99.4069 298.726 100.064 297.394 100.862C297.051 101.067 296.714 101.284 296.383 101.508C296.036 101.742 295.615 101.971 295.319 102.268C294.766 102.821 294.911 103.831 295.221 104.464C295.768 105.576 297.174 106.211 298.372 106.069C299.877 105.891 300.893 104.644 301.337 103.273C302.208 100.584 301.267 97.3468 299.523 95.2198C297.734 93.0374 294.569 92.0001 291.868 92.9644C290.344 93.5084 289.294 94.5773 288.39 95.8867C287.626 96.9946 286.897 98.1247 286.113 99.2194C284.893 100.923 283.551 102.624 281.836 104.007C281.697 104.119 281.922 103.947 281.723 104.093C281.638 104.154 281.554 104.216 281.468 104.275C281.263 104.418 281.053 104.553 280.839 104.68C280.653 104.79 280.464 104.893 280.271 104.989C280.17 105.04 280.065 105.085 279.963 105.135C279.946 105.144 279.815 105.2 279.933 105.15C280.067 105.092 279.849 105.183 279.822 105.193C279.4 105.353 278.969 105.483 278.525 105.57C278.427 105.589 278.329 105.604 278.231 105.621C278.075 105.649 278.411 105.602 278.253 105.619C278.195 105.626 278.138 105.632 278.081 105.638C277.847 105.661 277.612 105.673 277.378 105.675C277.15 105.677 276.923 105.669 276.696 105.653C276.572 105.644 276.448 105.63 276.324 105.618C276.284 105.614 276.12 105.589 276.317 105.618C276.253 105.609 276.19 105.599 276.126 105.588C275.585 105.499 275.051 105.365 274.528 105.199C273.327 104.817 272.261 104.292 271.125 103.634C270.455 103.246 269.803 102.829 269.163 102.394C268.696 102.077 268.005 102.305 267.734 102.769C267.433 103.284 267.641 103.88 268.109 104.198C270.868 106.07 274.155 107.882 277.6 107.759C280.377 107.659 282.744 106.204 284.655 104.273C285.755 103.162 286.72 101.919 287.64 100.657C288.155 99.9495 288.653 99.2298 289.144 98.505C289.674 97.7215 290.157 96.8777 290.783 96.166C291.89 94.9085 293.464 94.4674 295.029 94.8033C296.698 95.1615 297.981 96.3027 298.766 97.843C299.174 98.6456 299.448 99.6468 299.52 100.514C299.561 101.004 299.571 101.507 299.502 101.995C299.47 102.22 299.293 102.856 299.184 103.067C298.998 103.424 298.783 103.708 298.503 103.875C298.283 104.007 298.088 104.052 297.863 103.99C297.801 103.973 297.733 103.953 297.669 103.939C297.554 103.897 297.544 103.897 297.64 103.94C297.579 103.913 297.52 103.884 297.463 103.852C297.405 103.821 297.351 103.785 297.296 103.751C297.196 103.681 297.19 103.677 297.279 103.739C297.231 103.698 297.187 103.654 297.144 103.608C297.107 103.574 297.042 103.456 297.135 103.604C297.102 103.555 297.071 103.503 297.044 103.45C297.082 103.551 297.089 103.565 297.065 103.494C297.025 103.437 297.037 103.243 297.044 103.468C297.04 103.407 297.041 103.347 297.046 103.286C297.03 103.41 297.036 103.409 297.064 103.284C296.904 103.492 296.744 103.7 296.584 103.908C297.714 103.096 298.897 102.293 300.191 101.766C301.405 101.272 302.798 101.026 303.99 101.313C306.164 101.838 307.84 103.77 307.892 106.012C307.922 107.3 307.495 108.595 306.617 109.574C307.199 109.912 307.781 110.251 308.363 110.59C308.286 110.772 308.439 110.485 308.445 110.476C308.352 110.618 308.467 110.449 308.501 110.415C308.561 110.357 308.618 110.296 308.684 110.245C308.524 110.369 308.795 110.188 308.805 110.182C309.025 110.059 309.335 109.991 309.568 109.987C310.12 109.976 310.637 110.19 311.027 110.692C311.538 111.348 311.705 112.138 311.687 112.933C311.667 113.832 311.489 114.722 311.24 115.589C310.204 119.203 307.469 122.258 304.617 124.634C301.48 127.248 297.736 129.125 293.891 130.452C289.828 131.855 285.574 132.729 281.28 132.957C273.158 133.387 265.009 131.501 258.402 126.707C252.621 122.513 248.09 116.266 246.541 109.239C246.159 107.507 245.876 105.817 247.068 104.382C248.43 102.742 249.406 100.546 248.618 98.4132C247.855 96.3478 245.845 95.0849 243.652 95.6461C241.577 96.177 240.004 97.973 239.232 99.8991C238.866 100.811 238.692 101.8 238.705 102.782C238.723 104.126 240.768 104.127 240.794 102.782C240.832 100.875 241.184 98.9055 240.666 97.0294C240.399 96.065 239.799 95.134 238.775 94.8713C238.116 94.7025 237.5 94.7467 236.95 94.6074C236.388 94.4649 235.878 94.0828 235.445 93.5905C235.02 93.1066 234.718 92.4694 234.675 91.8105C234.655 91.5027 234.693 91.1428 234.865 90.9353C234.856 90.9462 235.053 90.7998 234.982 90.8294C235.048 90.8019 235.135 90.7767 235.204 90.7674C235.129 90.7775 235.014 90.7463 235.216 90.8012C235.062 90.2193 234.909 89.6375 234.755 89.0556C233.583 90.1931 231.652 90.437 230.241 89.6793C229.8 89.4425 229.532 89.2222 229.178 88.8373C228.956 88.5954 228.667 88.1354 228.587 87.9198C228.307 87.1649 228.341 86.6079 228.64 85.8193C228.67 85.7403 228.745 85.5843 228.855 85.389C228.945 85.2292 229.045 85.0744 229.15 84.9244C229.216 84.8313 229.336 84.6842 229.485 84.523C229.669 84.3247 229.865 84.1382 230.071 83.964C230.326 83.7484 230.675 83.5223 231.037 83.3246C231.62 83.0059 232.22 82.7138 232.818 82.4248C235.008 81.3671 237.292 80.4718 239.686 80.0027C241.853 79.5779 244.082 79.6678 246.163 80.0367C247.118 80.2059 248.063 80.4317 248.985 80.7327C249.897 81.0301 250.589 81.32 251.439 81.7872C253.061 82.6783 254.456 83.8834 255.521 85.3937C256.86 87.291 257.768 89.4763 258.677 91.6003C259.724 94.0452 260.775 96.5126 262.35 98.6743C263.935 100.851 265.891 102.677 268.109 104.198C268.574 104.517 269.267 104.285 269.538 103.823C269.84 103.306 269.629 102.714 269.163 102.394Z" fill="black"/>
<path d="M299.498 216.753C299.166 216.793 298.954 216.709 298.769 216.409C298.573 216.092 298.556 215.86 298.701 215.477C299.018 214.639 299.939 214.081 300.807 213.941C301.122 213.89 301.592 213.92 301.904 214.061C302.052 214.129 302.186 214.233 302.309 214.36C302.181 214.228 302.348 214.419 302.369 214.456C302.4 214.509 302.477 214.72 302.423 214.553C302.453 214.645 302.475 214.738 302.5 214.831C302.522 214.954 302.523 214.957 302.503 214.839C302.508 214.887 302.51 214.935 302.51 214.983C302.508 215.032 302.477 215.362 302.516 215.133C302.5 215.226 302.471 215.315 302.451 215.407C302.403 215.626 302.535 215.311 302.415 215.496C302.393 215.529 302.232 215.74 302.375 215.58C302.325 215.636 302.176 215.757 302.322 215.655C302.272 215.69 302.221 215.721 302.167 215.748C302.277 215.706 302.273 215.705 302.156 215.745C302.597 216.08 303.037 216.416 303.478 216.752C303.49 215.177 304.645 213.66 306.238 213.288C306.92 213.129 307.824 213.249 308.47 213.575C309.263 213.974 309.801 214.487 310.193 215.272C310.445 215.776 311.158 215.918 311.622 215.647C312.135 215.346 312.249 214.724 311.996 214.218C310.866 211.954 308.138 210.705 305.683 211.274C303.214 211.846 301.409 214.25 301.389 216.752C301.384 217.411 302.064 217.963 302.711 217.759C303.906 217.382 304.597 216.259 304.6 215.031C304.602 213.762 303.875 212.649 302.71 212.15C300.171 211.063 296.69 212.96 296.533 215.803C296.446 217.37 297.85 219.04 299.498 218.842C300.058 218.774 300.542 218.41 300.542 217.797C300.542 217.285 300.061 216.685 299.498 216.753Z" fill="black"/>
<path d="M72.5218 283.048C73.8007 285.092 76.4475 286.01 78.7488 285.345C81.1312 284.655 82.5909 282.263 82.3569 279.826C82.2262 278.465 81.6781 277.149 80.6276 276.241C80.0728 275.761 79.4122 275.894 78.9873 276.453C78.1955 277.494 78.3927 279.012 79.1285 280.025C80.0214 281.255 81.4558 281.764 82.935 281.401C84.3566 281.051 85.5756 279.937 86.2212 278.646C86.9656 277.157 87.1361 275.511 87.28 273.876C87.3296 273.313 86.7646 272.832 86.2356 272.832C85.6295 272.832 85.2409 273.312 85.1912 273.876C85.02 275.821 84.7621 278.388 82.7858 279.257C82.4379 279.41 82.0213 279.478 81.7083 279.421C81.6669 279.413 81.4169 279.341 81.4867 279.367C81.5553 279.393 81.3246 279.281 81.2864 279.26C81.2415 279.234 81.1978 279.206 81.1553 279.176C81.2137 279.225 81.2157 279.226 81.161 279.179C81.0805 279.112 81.0085 279.036 80.9361 278.961C80.8342 278.854 80.8072 278.808 80.6849 278.573C80.6533 278.507 80.6532 278.512 80.6844 278.588C80.6656 278.54 80.6487 278.492 80.6338 278.443C80.624 278.409 80.554 278.133 80.5724 278.239C80.5907 278.344 80.5655 278.07 80.5638 278.033C80.5636 277.984 80.5658 277.935 80.5706 277.886C80.5562 277.987 80.5567 277.999 80.5722 277.924C80.5823 277.876 80.5951 277.829 80.6106 277.783C80.5696 277.864 80.5658 277.872 80.5993 277.805C80.6515 277.697 80.7188 277.602 80.7909 277.507L79.1506 277.718C79.2611 277.814 79.3682 277.912 79.4684 278.019C79.61 278.169 79.5713 278.121 79.647 278.228C79.7305 278.345 79.8065 278.468 79.8763 278.594C79.8953 278.629 80.0574 278.968 80.0021 278.835C80.2342 279.393 80.2874 279.757 80.2901 280.264C80.2953 281.237 79.9691 282.157 79.1856 282.825C78.5769 283.343 77.4406 283.579 76.672 283.436C76.0848 283.326 75.7615 283.22 75.3135 282.953C74.8919 282.701 74.5736 282.39 74.3254 281.993C73.6141 280.856 71.8062 281.904 72.5218 283.048Z" fill="black"/>
<path d="M228.261 95.1384C228.536 95.1296 228.81 95.1433 229.083 95.1791L228.898 95.1543C229.17 95.1924 229.439 95.2511 229.701 95.3334C229.826 95.3724 229.948 95.4173 230.069 95.4651C230.208 95.5198 229.963 95.4161 230.042 95.454C230.075 95.4696 230.108 95.4836 230.141 95.499C230.206 95.5297 230.271 95.5621 230.335 95.5955C230.658 95.7635 231.106 95.6893 231.287 95.3457C231.457 95.0256 231.383 94.5727 231.038 94.3931C230.183 93.9483 229.226 93.7149 228.261 93.7459C227.898 93.7576 227.548 94.0578 227.565 94.4422C227.582 94.8094 227.871 95.1509 228.261 95.1384Z" fill="black"/>
<path d="M228.332 98.0452C228.381 98.0372 228.431 98.0298 228.48 98.0229L228.295 98.0478C228.732 97.9901 229.174 97.9894 229.611 98.0457L229.426 98.0208C229.456 98.0248 229.485 98.029 229.515 98.0333C229.608 98.0624 229.7 98.0665 229.793 98.0458C229.885 98.0416 229.972 98.014 230.052 97.9631C230.196 97.8786 230.334 97.713 230.372 97.547C230.412 97.3688 230.403 97.1687 230.301 97.0105C230.21 96.8689 230.06 96.7163 229.885 96.6906C229.566 96.6435 229.246 96.6081 228.923 96.6107C228.6 96.6133 228.28 96.6507 227.962 96.7025C227.8 96.7288 227.625 96.8871 227.545 97.0225C227.458 97.1717 227.421 97.3917 227.475 97.559C227.53 97.7274 227.634 97.89 227.795 97.9751L227.962 98.0453C228.085 98.0784 228.208 98.0784 228.332 98.0452Z" fill="black"/>
<path d="M226.938 107.273C227.554 107.304 228.159 107.143 228.738 106.947C229.015 106.853 229.291 106.756 229.567 106.66C229.712 106.61 229.856 106.56 230.001 106.51C230.064 106.488 230.127 106.464 230.191 106.444L230.25 106.427C230.331 106.408 230.329 106.407 230.242 106.423C230.138 106.381 230.008 106.365 229.944 106.253C229.868 106.119 229.931 106.218 229.946 106.275C229.959 106.322 229.978 106.382 229.977 106.432C229.98 106.257 229.972 106.421 229.975 106.465C229.981 106.584 229.973 106.701 229.965 106.82C229.959 106.873 229.962 106.856 229.972 106.771C229.968 106.798 229.963 106.825 229.957 106.852C229.944 106.915 229.929 106.977 229.912 107.038C229.897 107.091 229.877 107.143 229.861 107.195C229.819 107.334 229.917 107.09 229.847 107.232C229.798 107.33 229.747 107.427 229.687 107.519C229.653 107.572 229.594 107.649 229.668 107.556C229.634 107.599 229.598 107.64 229.561 107.681C229.474 107.775 229.379 107.86 229.277 107.938C228.988 108.163 229.024 108.69 229.277 108.923C229.584 109.204 229.954 109.163 230.262 108.923C230.756 108.54 231.112 107.958 231.269 107.356C231.428 106.745 231.465 105.869 231.011 105.368C230.419 104.714 229.505 105.21 228.83 105.444C228.502 105.558 228.174 105.678 227.838 105.769C227.683 105.811 227.526 105.848 227.367 105.873C227.502 105.852 227.238 105.882 227.212 105.883C227.121 105.887 227.029 105.885 226.938 105.881C226.574 105.863 226.225 106.214 226.242 106.577C226.259 106.97 226.548 107.254 226.938 107.273Z" fill="black"/>
<path d="M228.83 107.116C228.901 107.161 228.97 107.209 229.036 107.26L228.896 107.152C229.089 107.302 229.263 107.476 229.414 107.669L229.305 107.528C229.403 107.656 229.491 107.791 229.567 107.933C229.682 108.147 229.93 108.278 230.168 108.278C230.294 108.277 230.411 108.246 230.52 108.183C230.624 108.121 230.708 108.038 230.77 107.933C230.919 107.724 231.028 107.478 231.095 107.231C231.163 106.983 231.194 106.713 231.171 106.455C231.154 106.267 231.105 106.101 230.967 105.963C230.846 105.842 230.648 105.751 230.475 105.759C230.295 105.767 230.108 105.826 229.982 105.963C229.864 106.092 229.762 106.274 229.778 106.455C229.79 106.578 229.787 106.701 229.772 106.823L229.797 106.638C229.776 106.789 229.736 106.935 229.678 107.076L229.748 106.91C229.699 107.023 229.639 107.13 229.567 107.23H230.77C230.481 106.693 230.045 106.242 229.533 105.913C229.385 105.818 229.164 105.797 228.997 105.843C228.835 105.888 228.66 106.013 228.581 106.163C228.495 106.325 228.452 106.521 228.51 106.7C228.568 106.877 228.673 107.014 228.83 107.116Z" fill="black"/>
<path d="M2.95126 52.6536C10.5837 56.1248 18.2181 59.5914 25.8548 63.0532C33.4559 66.4989 41.0591 69.94 48.6645 73.3764C56.3053 76.8288 63.9483 80.2766 71.5935 83.7196C79.2386 87.1626 86.8859 90.601 94.5352 94.0346C102.149 97.4522 109.765 100.865 117.383 104.273C118.344 104.704 119.305 105.133 120.266 105.563C120.781 105.793 121.389 105.712 121.695 105.189C121.956 104.743 121.838 103.991 121.321 103.76C113.667 100.337 106.015 96.9089 98.3647 93.4764C90.7504 90.0599 83.1382 86.6387 75.5281 83.2129C67.8824 79.771 60.2389 76.3244 52.5975 72.8731C44.9561 69.4219 37.3168 65.9659 29.6796 62.5052C22.078 59.0606 14.4785 55.6114 6.88105 52.1574C5.92251 51.7217 4.96399 51.2858 4.00551 50.8499C3.49242 50.6165 2.88161 50.7031 2.57658 51.2245C2.3143 51.673 2.43533 52.419 2.95126 52.6536Z" fill="#0EA5E9"/>
<path d="M18.9895 74.7141C25.1991 79.1189 31.4087 83.5236 37.6183 87.9283C43.8279 92.3331 50.0374 96.7378 56.247 101.143C59.7356 103.617 63.2241 106.092 66.7127 108.566C67.173 108.893 67.8746 108.648 68.1416 108.192C68.4478 107.668 68.2283 107.09 67.7669 106.763C61.5573 102.358 55.3477 97.9532 49.1381 93.5485C42.9285 89.1437 36.7189 84.739 30.5093 80.3342C27.0208 77.8597 23.5323 75.3851 20.0437 72.9105C19.5834 72.584 18.8818 72.8287 18.6148 73.2852C18.3086 73.8087 18.5281 74.3869 18.9895 74.7141Z" fill="#0EA5E9"/>
<path d="M243.182 20.3361C244.494 19.3988 245.807 18.4615 247.119 17.5242C247.345 17.3624 247.523 17.1771 247.599 16.9C247.668 16.65 247.637 16.3171 247.494 16.0952C247.21 15.6553 246.54 15.3809 246.065 15.7206C244.752 16.6579 243.44 17.5951 242.128 18.5324C241.901 18.6942 241.724 18.8795 241.648 19.1566C241.579 19.4066 241.61 19.7395 241.753 19.9614C242.037 20.4013 242.707 20.6757 243.182 20.3361Z" fill="#0EA5E9"/>
<path d="M248.841 33.9753C249.966 33.9753 251.091 33.9753 252.215 33.9753C252.762 33.9753 253.285 33.4949 253.26 32.9309C253.234 32.365 252.801 31.8865 252.215 31.8865C251.091 31.8865 249.966 31.8865 248.841 31.8865C248.295 31.8865 247.772 32.3669 247.797 32.9309C247.822 33.4968 248.256 33.9753 248.841 33.9753Z" fill="#0EA5E9"/>
<path d="M232.076 3.96896C231.327 6.40625 230.579 8.84356 229.83 11.2808C229.664 11.8199 230.027 12.4193 230.559 12.5656C231.118 12.7191 231.678 12.3773 231.844 11.8361C232.593 9.39884 233.341 6.96153 234.09 4.52425C234.256 3.98521 233.893 3.38578 233.361 3.23952C232.802 3.08596 232.242 3.42784 232.076 3.96896Z" fill="#0EA5E9"/>
</g>
<defs>
<clipPath id="clip0_69_789">
<rect width="327" height="313.975" fill="white"/>
</clipPath>
</defs>
</svg>
