<?xml version="1.0" encoding="utf-8"?>
<!-- Generator: Adobe Illustrator 27.2.0, SVG Export Plug-In . SVG Version: 6.00 Build 0)  -->
<svg version="1.1" id="Ebene_1" xmlns="http://www.w3.org/2000/svg" xmlns:xlink="http://www.w3.org/1999/xlink" x="0px" y="0px"
	 viewBox="0 0 327 314" style="enable-background:new 0 0 327 314;" xml:space="preserve">
<style type="text/css">
	.st0{clip-path:url(#SVGID_00000129915986899628194230000002182578394398360469_);}
	.st1{fill:#FACC15;}
	.st2{fill:#641AE6;}
	.st3{fill:#FFFFFF;}
</style>
<g>
	<defs>
		<rect id="SVGID_1_" y="0" width="327" height="314"/>
	</defs>
	<clipPath id="SVGID_00000114058570819287446340000012155338553981204894_">
		<use xlink:href="#SVGID_1_"  style="overflow:visible;"/>
	</clipPath>
	<g style="clip-path:url(#SVGID_00000114058570819287446340000012155338553981204894_);">
		<path class="st1" d="M217.9,27.7L193.5,0L13.1,29.2c-4.3,0.7-8.4,2.1-12.2,4.1L0,33.8L217.9,27.7z"/>
		<path class="st2" d="M213.1,45.6l4.7-18L0,33.8L213.1,45.6z"/>
		<path class="st2" d="M228.6,37.5L0.1,33.7c2.1,3.4,5.3,6,9.1,7.2l195,63.2L228.6,37.5z"/>
		<path class="st1" d="M228.5,37.6l37.1,36.9L7.8,38c-3-0.4-5.8-1.9-7.8-4.2L228.5,37.6z"/>
		<path class="st3" d="M194,151.4c-3.8-2.1-7.2-4.9-9.9-8.3c-2.4-3-4.4-6.7-5.8-10.3c-1.3-3.5-2.3-7.2-2.8-11c0-0.2-0.1-0.4-0.1-0.7
			c0-0.1,0-0.2,0-0.3c0-0.1-0.1-0.4,0-0.2c-0.1-0.4-0.1-0.9-0.2-1.3c-0.1-0.8-0.2-1.7-0.2-2.6c-0.1-1.6-0.2-3.1-0.2-4.7
			c0-2.4,0.1-4.8,0.3-7.1c0.1-0.7,0.1-1.4,0.2-2c0-0.1,0-0.2,0-0.3c0,0.3,0,0.2,0,0c0-0.1,0-0.1,0-0.2c0.1-0.8-0.4-1.1-0.8-1.7
			c-0.4-0.5-0.7-1-0.9-1.6c-0.5-1-0.8-2.1-1-3.3c-0.3-1.9-0.3-3.9,0-5.8c0-0.2,0,0,0-0.1c0-0.1,0-0.2,0-0.3c0-0.2,0-0.3,0.1-0.5
			c0-0.2,0.1-0.5,0.1-0.7c0.1-0.3,0.1-0.6,0.1-0.9c-0.2-0.8-0.4-1.6-0.5-2.4c-0.7-3.3-1.5-6.6-2.2-9.9c-0.3-1.2-0.5-2.4-0.8-3.6
			c0-0.2-0.1-0.4-0.1-0.6c-0.1-0.8,0.4-1.6,1.2-1.9c0.9-0.2,1.8,0.4,2,1.3c0.2,1,1.8,1,2,0c0.2-0.7,0.7-1.3,1.4-1.4
			c0.8-0.1,1.4,0.4,1.7,1.1c0.4,0.9,1.6,0.5,1.9-0.2c0.3-0.7,1-1.2,1.8-1.1c0.8,0.1,1.2,0.8,1.3,1.5c0.1,0.4,0.6,0.8,1,0.8
			c0.5,0,0.8-0.3,1-0.8c0.3-0.8,1.3-1.2,2.1-0.9c0.6,0.2,0.9,0.7,1,1.2c0.2,0.7,0.3,1.4,0.5,2.1c0.6,2.7,1.2,5.4,1.8,8.1
			c0.2,0.7,0.3,1.4,0.5,2.1c0.2,0.8,1.2,1,1.7,0.5c0.7-0.8,1.4-1.5,2.1-2.3c0.3-0.3,0.5-0.6,0.8-0.9c0.6-0.4,1.2-0.3,1.6,0.1
			c0.2,0.2,0.4,0.5,0.5,0.7c0.1,0.3,0.2,0.6,0.1,0.9c-0.2,0.8-0.7,1.5-1.2,2.2c-0.5,0.7-1.1,1.5-1.6,2.2c-0.5,0.8-0.8,1.6-0.9,2.5
			c-0.8,4.2,0,8.5,0.3,12.8c0.4,4.3,1,8.6,2.6,12.7c1.6,4.2,4.2,7.8,7.4,11c1.6,1.6,3.5,3.1,5.6,4c1.8,0.8,3.8,1.2,5.8,1.2
			c3.8-0.1,7.7-1.5,10.7-3.8c1.6-1.2,2.9-2.5,4-4.1c0.5-0.8,0.9-1.7,1.4-2.6c0.7-1.1,1.1-2.4,1.5-3.6c0.1-0.2,0.2-0.4,0.2-0.6
			c0-0.2,0,0,0-0.1l-0.4,0l0,0c-0.4-0.3,0.1-0.3-0.2-0.2c0,0-0.4,0.1-0.5,0.1c-0.9,0.2-1.8,0.1-2.7,0c-1.8-0.1-3.5-1.1-4.4-2.6
			c-0.8-1.4-1.1-3.1-1.2-4.7c0-0.9,0-1.7,0-2.6c0-0.8,0.2-1.7,0.2-2.6c0-0.6-0.4-1.1-1-1.3c-0.2-0.1-0.5-0.2-0.7-0.4
			c-0.1,0-0.1-0.1-0.2-0.1l-0.1-0.1c-0.2-0.2-0.2-0.1,0,0.1c0,0.2-0.1,0.4-0.1,0.5c0.1-0.2,0.3-0.4,0.5-0.5c0.2-0.2,0.5-0.4,0.7-0.7
			c0.4-0.5,0.9-1,1.2-1.6c0.7-1,1.3-2.1,1.9-3.3c1.1-2.2,2.2-4.4,4-6.1c1.8-1.7,4.2-2.8,6.6-3.1c2.5-0.3,5,0.1,7.3,1
			c2,0.7,4.2,1.9,5.3,3.8c0,0.1,0.1,0.1,0.1,0.2c0.1,0.2-0.1-0.2,0,0c0,0.1,0.1,0.2,0.1,0.3c0,0.1,0.1,0.3,0.1,0.4
			c0,0.1,0,0.1,0,0.2c0.1,0.3,0-0.1,0,0.1c0.1,0.6,0.1,1.2,0,1.8c0,0.8-0.1,1.4-0.2,2c-0.1,0.8-0.3,1.6-0.4,2.4
			c-0.3,1.7-0.7,3.3-1,5c-0.3,1.6-0.6,3.1-0.6,4.7c0,1.3,0.1,2.6,0.7,3.8c0.6,1.1,1.8,1.7,3.1,1.8c0.9,0.1,1.8-0.2,2.7,0.2
			c1.1,0.4,1.9,1.3,2.7,2.2c6,7.3,6.3,17.6,4.5,26.5c-1.9,9.5-5.8,18.5-10.1,27.1c-0.5,0.9-0.9,1.8-1.4,2.7
			c-0.6,1.2,1.2,2.2,1.8,1.1c4.6-8.9,8.9-18.2,11.2-28c2.3-9.6,2.6-20.5-3.1-29c-1.5-2.2-3.5-4.6-6.4-4.9c-0.5,0-1,0-1.5,0.1
			c-0.2,0-0.3,0-0.5,0c-0.1,0-0.1,0-0.2,0c0.3,0,0,0-0.1,0c-0.1,0-0.2-0.1-0.4-0.1c-0.2-0.1,0.2,0.1,0,0c-0.1,0-0.1-0.1-0.2-0.1
			c-0.1,0-0.1-0.1-0.1-0.1c-0.2-0.1,0.2,0.2,0,0c-0.1-0.1-0.2-0.2-0.3-0.3c0.2,0.2,0,0-0.1-0.1c-0.1-0.1-0.1-0.2-0.2-0.3
			c-0.1-0.1,0.1,0.3,0,0c0-0.1,0-0.1-0.1-0.2c0-0.1-0.1-0.3-0.1-0.5c0-0.1-0.1-0.3-0.1-0.4c0.1,0.3,0-0.2,0-0.2c0-0.4,0-0.7,0-1.1
			c0-0.8,0.1-1.5,0.2-2.3c0,0.2,0-0.1,0-0.1c0-0.1,0-0.2,0-0.3c0-0.2,0.1-0.4,0.1-0.6c0.1-0.4,0.2-0.9,0.2-1.3
			c0.6-3.3,1.6-6.7,1.7-10.1c0-1.4-0.1-2.8-0.9-4c-1.5-2.1-3.8-3.4-6.2-4.3c-5.2-1.9-11.2-1.5-15.5,2.2c-2.1,1.8-3.4,4.2-4.6,6.6
			c-0.6,1.2-1.2,2.3-1.9,3.4c-0.3,0.5-0.7,1-1.1,1.4c-0.5,0.5-1.1,0.9-1.5,1.5c-0.5,0.8-0.1,1.6,0.5,2.1c0.3,0.2,0.6,0.5,0.9,0.6
			c0.2,0.1,0.6,0.2,0.7,0.3l-0.3-0.5c0.1,0.3-0.1,0.8-0.1,1.1c0,0.4-0.1,0.9-0.1,1.3c0,0.9-0.1,1.8,0,2.7c0.1,1.8,0.4,3.7,1.3,5.3
			c1,1.8,2.7,3.1,4.7,3.6c1.1,0.3,2.2,0.3,3.3,0.3c1,0,2.3-0.1,3.1-0.8c1-0.9,0.9-2.5-0.4-3.1c-0.6-0.3-1.3-0.2-1.8,0.2
			c-0.5,0.4-0.7,1-0.9,1.6c-0.2,0.6-0.4,1.2-0.6,1.8c-0.2,0.6-0.5,1.1-0.8,1.6c-0.5,0.9-0.9,1.8-1.5,2.6c-2.1,3.1-5.6,5.2-9.2,6.2
			c-1.8,0.5-3.6,0.7-5.5,0.5c-2.1-0.3-4-1.2-5.7-2.4c-1.8-1.3-3.4-3.1-4.9-4.8c-1.4-1.7-2.6-3.6-3.6-5.6c-1.9-3.9-2.7-8.1-3.1-12.4
			c-0.2-2.1-0.4-4.3-0.6-6.5c-0.2-2.2-0.4-4.4-0.1-6.6c0.1-0.5,0.2-0.9,0.3-1.4c0.1-0.5,0.2-0.6,0.4-1.1c0.5-0.8,1.1-1.5,1.6-2.3
			c1.2-1.6,2.1-3.5,1.2-5.4c-0.9-1.9-3.3-2.7-5.1-1.4c-0.9,0.7-1.7,1.7-2.4,2.5c-0.3,0.3-0.5,0.6-0.8,0.8c0.6,0.2,1.2,0.3,1.7,0.5
			c-0.5-2.1-1-4.3-1.5-6.4c-0.3-1.4-0.7-2.9-1-4.3c-0.2-0.8-0.3-1.6-0.6-2.4c-0.6-1.3-1.9-2.2-3.3-2.2c-1.6,0-2.9,1.1-3.5,2.5h2
			c-0.3-1.5-1.5-2.8-3.1-3c-1.8-0.3-3.5,0.8-4.1,2.6c0.6-0.1,1.3-0.2,1.9-0.2c-0.6-1.4-2.2-2.3-3.8-2.1c-1.6,0.2-2.8,1.3-3.2,2.9h2
			c-0.4-1.6-1.8-2.8-3.4-2.9c-1.7-0.1-3.3,1.1-3.7,2.8c-0.3,1.2,0.1,2.5,0.4,3.7c0.9,3.8,1.7,7.7,2.6,11.5c0.2,1.1,0.5,2.2,0.7,3.3
			v-0.6c-0.3,1.2-0.4,2.4-0.5,3.6c-0.2,2.4,0,5,0.8,7.3c0.5,1.6,1.3,3,2.4,4.2c-0.1-0.3-0.2-0.7-0.3-1c-0.2,1.3-0.3,2.7-0.4,4
			c-0.2,3.2-0.3,6.3-0.1,9.5c0.2,4.3,0.8,8.6,1.9,12.7c1.2,4.6,3,9.1,5.6,13.1c2.8,4.4,6.6,8.2,11,11c0.6,0.4,1.2,0.7,1.7,1
			C194.1,153.9,195.2,152.1,194,151.4z"/>
		<path class="st3" d="M230.5,128.7c-1.7,4.5-6.4,6.3-10.5,7.8c-4.2,1.5-8.6,3.2-11.2,7c-3.7,5.5-0.9,12.7-4.3,18.4
			c-3.3,5.6-10,7.9-16.1,8.7c-13.5,1.7-26.7-4.2-35.8-14.1c-9.2-10-14.3-23.1-17-36.2c-1.8-8.5-2.6-17.2-3.4-25.9
			c-0.4-4.5-0.7-9-1.1-13.5c-0.2-2.3-0.4-4.5-0.6-6.8c-0.1-0.8-0.2-1.7,0.1-2.5c0.1-0.4,1.3-1.7,1.7-0.8c0.1,0.4,0.5,0.8,1,0.8
			c4.7-0.6,10.3-2,14.1,1.6c2.8,2.7,4.1,6.9,2.6,10.6c-0.3,0.9,0.8,1.6,1.5,1.2c2.4-1.3,4.8-2.7,7.1-4l-1.5-1.2
			c-6.2,23-1.2,48.9,13.7,67.6c3.6,4.5,7.8,8.5,12.7,11.6c5.1,3.3,10.9,5.4,16.8,6.7c6.1,1.3,12.3,1.9,18.5,2.5
			c3.4,0.3,6.7,0.7,10.1,1.2c2.7,0.4,5.5,0.9,8,2c2.4,1.1,4.5,2.9,5.2,5.5c0.7,2.6-0.2,5.3-1.6,7.6c-3.3,5.4-8.9,9-13.9,12.5
			c-10.9,7.7-22.3,14.6-33.7,21.5c-21.2,12.9-42.5,26.2-59.9,44.1c-8.1,8.3-15.3,17.6-20.7,27.8c-1.4,2.6-2.7,5.3-3.8,8
			c-1.2,2.8-2.3,5.6-4,8.1c-1.6,2.3-4,4.2-6.8,4.8c-2.5,0.5-5-0.3-6.1-2.7c-0.9-1.7-0.9-4.2,0.9-5.4l-1.3-1.6
			c-5.3,4.2-12.6,2.7-18.1-0.2c-3-1.6-5.8-3.7-8.5-5.8c-2.5-1.9-5.4-4.1-6.6-7.2c-1-2.7-0.7-6.1,2-7.6c2.6-1.4,5.8-1,8.6-1.4
			c5.6-0.9,10.1-4.6,13.7-8.8c3.8-4.5,6.9-9.5,10.3-14.3c3.6-5,7.4-9.9,11.4-14.6c8.1-9.5,17.1-18.3,26.8-26.2
			c19.2-15.6,42-27.7,66.6-31.6c8.9-1.4,19.3-1.8,27.2,3.3c3.8,2.5,6.4,6.3,7.3,10.7c1.1,5.2-0.1,10.6,0.7,15.8
			c0.8,5.2,4.4,9.4,10.1,9.1c3.2-0.2,6.2-1.5,8.9-3c3-1.7,5.9-3.6,8.6-5.6c5.5-4,10.5-8.5,15.1-13.4c3.9-4.1,8.6-9.2,14.5-10.1
			c1.4-0.2,3-0.2,4.4,0.3c0.6,0.2,1.5,0.6,1.8,1.3c0.3,0.7,0,1.7-0.8,1.6l1,1.3c0.7-3.5,7.6-0.5,9.4,0.2c4.1,1.6,8.1,3.9,11.6,6.7
			c1.7,1.4,3.4,2.9,4.9,4.5c1.4,1.5,3.4,4,2.1,6.2c-0.9,1.6-2.9,2.1-4.5,2.6c-2.1,0.6-4.1,1.3-6.1,2.1c-8,3.2-15.2,8.2-22,13.5
			c-6,4.7-11.6,9.9-17.8,14.3c-8.9,6.3-19.1,11-29.7,13.5c-9.5,2.3-20.3,3-29.4-1.1c-10-4.4-15.4-13.9-17.3-24.3
			c-0.3-1.7-0.5-3.4-0.7-5.1c-0.1-1.3-2.2-1.3-2.1,0c1.1,11.7,5.5,23.6,16.2,29.7c9.3,5.4,20.8,5.4,31.1,3.4
			c11.5-2.3,22.6-7.2,32.2-13.8c6.6-4.5,12.4-10,18.7-14.9c7.5-5.9,15.5-11.4,24.5-14.4c3.3-1.1,8.2-1.8,9.2-5.8
			c1.1-4.3-3.5-8.2-6.3-10.6c-3.5-3.1-7.5-5.6-11.7-7.5c-3.3-1.5-7.6-3.6-11.3-2.6c-1.5,0.4-2.6,1.4-2.9,2.9c-0.1,0.7,0.3,1.3,1,1.3
			c2.8,0.2,3.8-3.4,2.3-5.3c-1.8-2.2-5.2-2.4-7.8-2.1c-6.2,0.8-11.1,5.8-15.2,10.1c-5,5.2-10.2,10.1-16,14.2c-3,2.1-6.1,4.3-9.5,5.9
			c-3.1,1.5-7,2.8-10.2,1.1c-5.2-2.7-4.3-10-4.3-14.9c0.1-5.1-0.4-10.3-3.4-14.6c-5.5-7.9-16.2-9.9-25.2-9.6
			c-5.8,0.2-11.6,1.3-17.2,2.6c-6.4,1.5-12.6,3.5-18.7,6c-12.1,5-23.5,11.6-34,19.4c-10.6,7.9-20.4,16.8-29.2,26.6
			c-4.4,4.8-8.6,9.9-12.5,15.1c-3.9,5.1-7.3,10.5-11.1,15.6c-3.5,4.7-7.9,9.6-13.9,10.9c-3,0.7-6.2,0.2-9.1,1.4
			c-2.7,1-4.4,3.3-4.6,6.1c-0.7,6.8,5.8,11.1,10.6,14.6c5.4,4,11.6,7.6,18.6,7c3-0.3,5.8-1.3,8.1-3.1c0.9-0.7-0.3-2.3-1.3-1.6
			c-3.6,2.5-2.9,8,0.3,10.6c4.3,3.5,10.7,0.6,13.7-3.2c1.9-2.3,3.2-5.1,4.4-7.9c1.2-2.8,2.4-5.6,3.8-8.3c2.8-5.4,6-10.5,9.6-15.3
			c15.1-20.3,36.1-35.3,57.3-48.7c11.7-7.4,23.7-14.4,35.3-21.9c5.8-3.8,11.6-7.7,17.2-11.8c4.5-3.3,9.3-7.4,11-13
			c1.7-5.3-1.1-10.2-6-12.5c-5.4-2.5-11.8-2.8-17.7-3.4c-13-1.3-26.3-2.4-37.3-10.1c-10.1-7.1-17.3-18.2-21.6-29.7
			c-4.3-11.7-5.8-24.5-4.1-36.9c0.4-3.1,1.1-6.2,1.9-9.2c0.2-0.9-0.7-1.6-1.5-1.2c-2.4,1.3-4.8,2.7-7.1,4l1.5,1.2
			c1.6-4.3,0.2-9.2-2.9-12.4c-4.4-4.4-10.3-3.1-15.9-2.4l1,0.8c-0.9-2.6-4.4-2.1-5.5,0.2c-0.7,1.5-0.4,3.4-0.3,5
			c0.2,2.2,0.4,4.4,0.5,6.6c0.7,8.5,1.3,17.1,2.3,25.5c1.9,15.1,5.4,30.4,14,43.3c8,11.8,20,20.6,34.5,21.9
			c6.7,0.6,14.3-0.2,20.2-3.8c2.7-1.7,5.1-4,6.6-6.8c1.6-3.2,1.6-6.6,1.8-10.1c0.2-3.3,0.7-6.5,3.2-8.9c1.8-1.7,4.1-2.8,6.3-3.7
			c4.4-1.7,9.6-3,12.6-7c0.8-1,1.3-2.1,1.8-3.2C233,128,231,127.5,230.5,128.7z"/>
		<path class="st3" d="M143.1,71.8c0.6,2.6,1.2,5.3,1.8,8c0.1,0.4,0.2,0.8,0.3,1.2c0.1,0.6,0.8,0.9,1.3,0.7c0.6-0.2,0.8-0.7,0.7-1.3
			c-0.2-1.1-0.5-2.2-0.7-3.2c-0.4-1.6-0.7-3.2-1.1-4.8c-0.1-0.4-0.2-0.7-0.3-1.1c-0.1-0.6-0.8-0.9-1.3-0.7
			C143.3,70.7,143,71.3,143.1,71.8z"/>
		<path class="st3" d="M138,71.4c0.6,2.6,1.2,5.3,1.8,8c0.1,0.4,0.2,0.8,0.3,1.2c0.1,0.6,0.8,0.9,1.3,0.7c0.6-0.2,0.8-0.7,0.7-1.3
			c-0.2-1.1-0.5-2.2-0.7-3.2c-0.4-1.6-0.7-3.2-1.1-4.8c-0.1-0.4-0.2-0.7-0.3-1.1c-0.1-0.6-0.8-0.9-1.3-0.7
			C138.2,70.3,137.9,70.9,138,71.4z"/>
		<path class="st3" d="M133,72c0.6,2.6,1.2,5.3,1.8,8c0.1,0.4,0.2,0.8,0.3,1.2c0.1,0.6,0.8,0.9,1.3,0.7c0.6-0.2,0.8-0.7,0.7-1.3
			c-0.2-1.1-0.5-2.2-0.7-3.2c-0.4-1.6-0.7-3.2-1.1-4.8c-0.1-0.4-0.2-0.7-0.3-1.1c-0.1-0.6-0.8-0.9-1.3-0.7
			C133.1,70.9,132.8,71.5,133,72z"/>
		<path class="st3" d="M182.4,70.1c0.6,2.6,1.2,5.3,1.8,8c0.1,0.4,0.2,0.8,0.3,1.2c0.1,0.6,0.8,0.9,1.3,0.7c0.6-0.2,0.8-0.7,0.7-1.3
			c-0.2-1.1-0.5-2.2-0.7-3.2c-0.4-1.6-0.7-3.2-1.1-4.8c-0.1-0.4-0.2-0.7-0.3-1.1c-0.1-0.6-0.8-0.9-1.3-0.7
			C182.5,69,182.2,69.6,182.4,70.1z"/>
		<path class="st3" d="M177.2,69.8c0.6,2.6,1.2,5.3,1.8,8c0.1,0.4,0.2,0.8,0.3,1.2c0.1,0.6,0.8,0.9,1.3,0.7c0.6-0.2,0.8-0.7,0.7-1.3
			c-0.2-1.1-0.5-2.2-0.7-3.2c-0.4-1.6-0.7-3.2-1.1-4.8c-0.1-0.4-0.2-0.7-0.3-1.1c-0.1-0.6-0.8-0.9-1.3-0.7
			C177.4,68.6,177.1,69.2,177.2,69.8z"/>
		<path class="st3" d="M172.2,70.3c0.6,2.6,1.2,5.3,1.8,8c0.1,0.4,0.2,0.8,0.3,1.2c0.1,0.6,0.8,0.9,1.3,0.7c0.6-0.2,0.8-0.7,0.7-1.3
			c-0.2-1.1-0.5-2.2-0.7-3.2c-0.4-1.6-0.7-3.2-1.1-4.8c-0.1-0.4-0.2-0.7-0.3-1.1c-0.1-0.6-0.8-0.9-1.3-0.7
			C172.4,69.2,172.1,69.8,172.2,70.3z"/>
		<path class="st3" d="M180.2,87.5c2.8-2.9,6.8-4.2,10.7-3.7c0.6,0.1,1-0.5,1-1c0-0.6-0.5-1-1-1c-4.4-0.6-9.1,1.1-12.2,4.3
			C177.8,87,179.3,88.5,180.2,87.5z"/>
		<path class="st3" d="M268.6,103.3c-2.3-1.6-4.4-3.6-6-6c-2.3-3.6-3.5-7.9-5.7-11.6c-2.9-4.8-7.6-6.5-12.9-7
			c-4.7-0.4-9.3,1.5-13.5,3.6c-3,1.6-4.7,5.2-1.6,7.8c1.8,1.5,4.8,1.3,6.5-0.3c-0.6-0.2-1.3,0.2-1.6,0.7c-0.3,0.5-0.3,1.2-0.2,1.8
			c0.2,1.1,0.9,2,1.7,2.7c1,0.8,1.8,0.7,2.9,0.9c2.2,0.3,1.4,5.2,1.4,6.9c0-2,0.8-3.9,2.4-5.2c0.9-0.8,2.1-1.3,3.3-1
			c1.4,0.3,2.4,1.7,2.4,3.1c0.1,1.4-0.6,2.8-1.5,3.9c-1,1.2-1.3,2.6-1.1,4.1c1.5,10.4,9.7,19.6,19.2,23.5c9.2,3.8,19.8,3.5,29.2,0.3
			c5-1.6,9.8-4.2,13.6-7.9c2.9-2.9,5.2-6.2,5.5-10.5c0.1-1.5-0.4-3-1.7-3.8c-1.2-0.8-3.2-0.4-3.7,1c1.5-1.6,2-4.1,1.2-6.2
			c-0.8-2.1-2.8-3.7-5-3.9c-2.7-0.3-5.3,1.2-7.5,2.8c-0.4,1.4,1.6,2.5,2.9,1.8c1.3-0.7,1.7-2.3,1.7-3.8c-0.1-2.4-1.1-4.9-3.1-6.3
			c-2-1.4-4.9-1.5-6.8,0.1c-0.7,0.6-1.2,1.4-1.7,2.1C283.2,105.6,279,110.4,268.6,103.3z"/>
		<path class="st3" d="M269.2,102.4c-1.9-1.3-3.7-3-5.1-4.9c-1.5-2.1-2.5-4.4-3.5-6.7c-1-2.3-1.9-4.7-3.4-6.7
			c-1.3-1.7-2.9-3.2-4.8-4.2c-1.8-1-3.9-1.6-5.9-1.9c-2.5-0.4-5-0.5-7.6,0.1c-2.7,0.6-5.2,1.6-7.6,2.8c-1,0.5-2.1,1-2.9,1.9
			c-0.8,0.7-1.4,1.6-1.7,2.6c-0.8,2.2,0.2,4.4,2,5.7c1.8,1.3,4.3,1.4,6.3,0.4c0.5-0.3,1-0.6,1.3-1c0.6-0.5,0.3-1.5-0.5-1.7
			c-0.9-0.2-1.9,0.1-2.5,0.8c-0.7,0.8-0.8,1.8-0.7,2.7c0.2,1.6,1.4,3.2,2.8,4c0.8,0.4,1.5,0.5,2.4,0.6c0.1,0,0.2,0,0.3,0
			c0.1,0,0.2,0.1,0.1,0c0,0,0.1,0,0.1,0.1c0.1,0.2-0.1-0.2,0,0c0,0.1,0.2,0.3,0.1,0.1c0.1,0.1,0.1,0.2,0.2,0.3c0,0,0.1,0.2,0,0
			c-0.1-0.2,0,0.1,0,0.1c0.1,0.2,0.1,0.5,0.2,0.7c0,0.1,0,0.1,0,0.2c0,0,0-0.2,0,0c0,0.1,0,0.2,0,0.4c0,0.3,0,0.6,0,0.9
			c0,1.1-0.1,2.2-0.1,3.3h2.1c0-1.7,0.8-3.6,2.3-4.6c0.7-0.5,1.6-0.8,2.4-0.5c0.6,0.2,1.1,0.9,1.2,1.6c0.2,0.8,0,1.7-0.4,2.5
			c-0.5,0.9-1.3,1.6-1.7,2.5c-0.9,2-0.5,4.1,0,6.1c1.8,7.5,6.8,14,13,18.4c7,4.9,15.7,6.8,24.2,6.2c4.5-0.3,8.9-1.2,13.1-2.7
			c4.1-1.5,8-3.5,11.3-6.3c3-2.6,5.8-5.9,6.9-9.8c0.6-1.9,0.8-4.1-0.1-6c-0.9-1.7-2.9-2.7-4.8-2c-1,0.3-1.6,1-2,1.9
			c-0.4,1,1.1,1.8,1.7,1c2-2.2,2.5-5.6,1-8.3c-1.5-2.6-4.4-4-7.4-3.6c-1.5,0.2-3,0.9-4.3,1.7c-0.3,0.2-0.7,0.4-1,0.6
			c-0.3,0.2-0.8,0.5-1.1,0.8c-0.6,0.6-0.4,1.6-0.1,2.2c0.5,1.1,2,1.7,3.2,1.6c1.5-0.2,2.5-1.4,3-2.8c0.9-2.7-0.1-5.9-1.8-8.1
			c-1.8-2.2-5-3.2-7.7-2.3c-1.5,0.5-2.6,1.6-3.5,2.9c-0.8,1.1-1.5,2.2-2.3,3.3c-1.2,1.7-2.6,3.4-4.3,4.8c-0.1,0.1,0.1-0.1-0.1,0.1
			c-0.1,0.1-0.2,0.1-0.3,0.2c-0.2,0.1-0.4,0.3-0.6,0.4c-0.2,0.1-0.4,0.2-0.6,0.3c-0.1,0.1-0.2,0.1-0.3,0.1c0,0-0.1,0.1,0,0
			c0.1-0.1-0.1,0-0.1,0c-0.4,0.2-0.9,0.3-1.3,0.4c-0.1,0-0.2,0-0.3,0.1c-0.2,0,0.2,0,0,0c-0.1,0-0.1,0-0.2,0c-0.2,0-0.5,0-0.7,0
			c-0.2,0-0.5,0-0.7,0c-0.1,0-0.2,0-0.4,0c0,0-0.2,0,0,0c-0.1,0-0.1,0-0.2,0c-0.5-0.1-1.1-0.2-1.6-0.4c-1.2-0.4-2.3-0.9-3.4-1.6
			C270.5,103.2,269.8,102.8,269.2,102.4c-0.5-0.3-1.2-0.1-1.4,0.4c-0.3,0.5-0.1,1.1,0.4,1.4c2.8,1.9,6,3.7,9.5,3.6
			c2.8-0.1,5.1-1.6,7.1-3.5c1.1-1.1,2.1-2.4,3-3.6c0.5-0.7,1-1.4,1.5-2.2c0.5-0.8,1-1.6,1.6-2.3c1.1-1.3,2.7-1.7,4.2-1.4
			c1.7,0.4,3,1.5,3.7,3c0.4,0.8,0.7,1.8,0.8,2.7c0,0.5,0.1,1,0,1.5c0,0.2-0.2,0.9-0.3,1.1c-0.2,0.4-0.4,0.6-0.7,0.8
			c-0.2,0.1-0.4,0.2-0.6,0.1c-0.1,0-0.1,0-0.2-0.1c-0.1,0-0.1,0,0,0c-0.1,0-0.1-0.1-0.2-0.1c-0.1,0-0.1-0.1-0.2-0.1
			c-0.1-0.1-0.1-0.1,0,0c0,0-0.1-0.1-0.1-0.1c0,0-0.1-0.2,0,0c0,0-0.1-0.1-0.1-0.2c0,0.1,0,0.1,0,0c0-0.1,0-0.3,0,0
			c0-0.1,0-0.1,0-0.2c0,0.1,0,0.1,0,0c-0.2,0.2-0.3,0.4-0.5,0.6c1.1-0.8,2.3-1.6,3.6-2.1c1.2-0.5,2.6-0.7,3.8-0.5
			c2.2,0.5,3.9,2.5,3.9,4.7c0,1.3-0.4,2.6-1.3,3.6c0.6,0.3,1.2,0.7,1.7,1c-0.1,0.2,0.1-0.1,0.1-0.1c-0.1,0.1,0,0,0.1-0.1
			c0.1-0.1,0.1-0.1,0.2-0.2c-0.2,0.1,0.1-0.1,0.1-0.1c0.2-0.1,0.5-0.2,0.8-0.2c0.6,0,1.1,0.2,1.5,0.7c0.5,0.7,0.7,1.4,0.7,2.2
			c0,0.9-0.2,1.8-0.4,2.7c-1,3.6-3.8,6.7-6.6,9c-3.1,2.6-6.9,4.5-10.7,5.8c-4.1,1.4-8.3,2.3-12.6,2.5c-8.1,0.4-16.3-1.5-22.9-6.2
			c-5.8-4.2-10.3-10.4-11.9-17.5c-0.4-1.7-0.7-3.4,0.5-4.9c1.4-1.6,2.3-3.8,1.6-6c-0.8-2.1-2.8-3.3-5-2.8c-2.1,0.5-3.6,2.3-4.4,4.3
			c-0.4,0.9-0.5,1.9-0.5,2.9c0,1.3,2.1,1.3,2.1,0c0-1.9,0.4-3.9-0.1-5.8c-0.3-1-0.9-1.9-1.9-2.2c-0.7-0.2-1.3-0.1-1.8-0.3
			c-0.6-0.1-1.1-0.5-1.5-1c-0.4-0.5-0.7-1.1-0.8-1.8c0-0.3,0-0.7,0.2-0.9c0,0,0.2-0.1,0.1-0.1c0.1,0,0.2-0.1,0.2-0.1
			c-0.1,0-0.2,0,0,0c-0.2-0.6-0.3-1.2-0.5-1.7c-1.2,1.1-3.1,1.4-4.5,0.6c-0.4-0.2-0.7-0.5-1.1-0.8c-0.2-0.2-0.5-0.7-0.6-0.9
			c-0.3-0.8-0.2-1.3,0.1-2.1c0-0.1,0.1-0.2,0.2-0.4c0.1-0.2,0.2-0.3,0.3-0.5c0.1-0.1,0.2-0.2,0.3-0.4c0.2-0.2,0.4-0.4,0.6-0.6
			c0.3-0.2,0.6-0.4,1-0.6c0.6-0.3,1.2-0.6,1.8-0.9c2.2-1.1,4.5-2,6.9-2.4c2.2-0.4,4.4-0.3,6.5,0c1,0.2,1.9,0.4,2.8,0.7
			c0.9,0.3,1.6,0.6,2.5,1.1c1.6,0.9,3,2.1,4.1,3.6c1.3,1.9,2.2,4.1,3.2,6.2c1,2.4,2.1,4.9,3.7,7.1c1.6,2.2,3.5,4,5.8,5.5
			c0.5,0.3,1.2,0.1,1.4-0.4C269.8,103.3,269.6,102.7,269.2,102.4z"/>
		<path class="st3" d="M299.5,216.8c-0.3,0-0.5,0-0.7-0.3c-0.2-0.3-0.2-0.5-0.1-0.9c0.3-0.8,1.2-1.4,2.1-1.5c0.3-0.1,0.8,0,1.1,0.1
			c0.1,0.1,0.3,0.2,0.4,0.3c-0.1-0.1,0,0.1,0.1,0.1c0,0.1,0.1,0.3,0.1,0.1c0,0.1,0.1,0.2,0.1,0.3c0,0.1,0,0.1,0,0c0,0,0,0.1,0,0.1
			c0,0,0,0.4,0,0.1c0,0.1,0,0.2-0.1,0.3c0,0.2,0.1-0.1,0,0.1c0,0-0.2,0.2,0,0.1c0,0.1-0.2,0.2-0.1,0.1c0,0-0.1,0.1-0.2,0.1
			c0.1,0,0.1,0,0,0c0.4,0.3,0.9,0.7,1.3,1c0-1.6,1.2-3.1,2.8-3.5c0.7-0.2,1.6,0,2.2,0.3c0.8,0.4,1.3,0.9,1.7,1.7
			c0.3,0.5,1,0.6,1.4,0.4c0.5-0.3,0.6-0.9,0.4-1.4c-1.1-2.3-3.9-3.5-6.3-2.9c-2.5,0.6-4.3,3-4.3,5.5c0,0.7,0.7,1.2,1.3,1
			c1.2-0.4,1.9-1.5,1.9-2.7c0-1.3-0.7-2.4-1.9-2.9c-2.5-1.1-6,0.8-6.2,3.7c-0.1,1.6,1.3,3.2,3,3c0.6-0.1,1-0.4,1-1
			C300.5,217.3,300.1,216.7,299.5,216.8z"/>
		<path class="st3" d="M72.5,283c1.3,2,3.9,3,6.2,2.3c2.4-0.7,3.8-3.1,3.6-5.5c-0.1-1.4-0.7-2.7-1.7-3.6c-0.6-0.5-1.2-0.3-1.6,0.2
			c-0.8,1-0.6,2.6,0.1,3.6c0.9,1.2,2.3,1.7,3.8,1.4c1.4-0.4,2.6-1.5,3.3-2.8c0.7-1.5,0.9-3.1,1.1-4.8c0-0.6-0.5-1-1-1
			c-0.6,0-1,0.5-1,1c-0.2,1.9-0.4,4.5-2.4,5.4c-0.3,0.2-0.8,0.2-1.1,0.2c0,0-0.3-0.1-0.2-0.1c0.1,0-0.2-0.1-0.2-0.1
			c0,0-0.1-0.1-0.1-0.1c0.1,0,0.1,0.1,0,0c-0.1-0.1-0.2-0.1-0.2-0.2c-0.1-0.1-0.1-0.2-0.3-0.4c0-0.1,0-0.1,0,0c0,0,0-0.1-0.1-0.1
			c0,0-0.1-0.3-0.1-0.2c0,0.1,0-0.2,0-0.2c0,0,0-0.1,0-0.1c0,0.1,0,0.1,0,0c0,0,0-0.1,0-0.1c0,0.1,0,0.1,0,0
			c0.1-0.1,0.1-0.2,0.2-0.3l-1.6,0.2c0.1,0.1,0.2,0.2,0.3,0.3c0.1,0.1,0.1,0.1,0.2,0.2c0.1,0.1,0.2,0.2,0.2,0.4c0,0,0.2,0.4,0.1,0.2
			c0.2,0.6,0.3,0.9,0.3,1.4c0,1-0.3,1.9-1.1,2.6c-0.6,0.5-1.7,0.8-2.5,0.6c-0.6-0.1-0.9-0.2-1.4-0.5c-0.4-0.3-0.7-0.6-1-1
			C73.6,280.9,71.8,281.9,72.5,283z"/>
		<path class="st3" d="M228.3,95.1c0.3,0,0.5,0,0.8,0l-0.2,0c0.3,0,0.5,0.1,0.8,0.2c0.1,0,0.2,0.1,0.4,0.1c0.1,0.1-0.1,0,0,0
			c0,0,0.1,0,0.1,0c0.1,0,0.1,0.1,0.2,0.1c0.3,0.2,0.8,0.1,1-0.2c0.2-0.3,0.1-0.8-0.2-1c-0.9-0.4-1.8-0.7-2.8-0.6
			c-0.4,0-0.7,0.3-0.7,0.7C227.6,94.8,227.9,95.2,228.3,95.1z"/>
		<path class="st3" d="M228.3,98c0,0,0.1,0,0.1,0L228.3,98c0.4-0.1,0.8-0.1,1.3,0l-0.2,0c0,0,0.1,0,0.1,0c0.1,0,0.2,0,0.3,0
			c0.1,0,0.2,0,0.3-0.1c0.1-0.1,0.3-0.3,0.3-0.4c0-0.2,0-0.4-0.1-0.5c-0.1-0.1-0.2-0.3-0.4-0.3c-0.3,0-0.6-0.1-1-0.1
			c-0.3,0-0.6,0-1,0.1c-0.2,0-0.3,0.2-0.4,0.3c-0.1,0.1-0.1,0.4-0.1,0.5c0.1,0.2,0.2,0.3,0.3,0.4L228,98
			C228.1,98.1,228.2,98.1,228.3,98z"/>
		<path class="st3" d="M226.9,107.3c0.6,0,1.2-0.1,1.8-0.3c0.3-0.1,0.6-0.2,0.8-0.3c0.1-0.1,0.3-0.1,0.4-0.2c0.1,0,0.1,0,0.2-0.1
			l0.1,0c0.1,0,0.1,0,0,0c-0.1,0-0.2-0.1-0.3-0.2c-0.1-0.1,0,0,0,0c0,0,0,0.1,0,0.2c0-0.2,0,0,0,0c0,0.1,0,0.2,0,0.4c0,0.1,0,0,0,0
			c0,0,0,0.1,0,0.1c0,0.1,0,0.1,0,0.2c0,0.1,0,0.1-0.1,0.2c0,0.1,0.1-0.1,0,0c0,0.1-0.1,0.2-0.2,0.3c0,0.1-0.1,0.1,0,0
			c0,0-0.1,0.1-0.1,0.1c-0.1,0.1-0.2,0.2-0.3,0.3c-0.3,0.2-0.3,0.8,0,1c0.3,0.3,0.7,0.2,1,0c0.5-0.4,0.9-1,1-1.6
			c0.2-0.6,0.2-1.5-0.3-2c-0.6-0.7-1.5-0.2-2.2,0.1c-0.3,0.1-0.7,0.2-1,0.3c-0.2,0-0.3,0.1-0.5,0.1c0.1,0-0.1,0-0.2,0
			c-0.1,0-0.2,0-0.3,0c-0.4,0-0.7,0.3-0.7,0.7C226.3,107,226.5,107.3,226.9,107.3z"/>
		<path class="st3" d="M228.8,107.1c0.1,0,0.1,0.1,0.2,0.1L228.8,107.1c0.3,0.2,0.4,0.4,0.6,0.6l-0.1-0.1c0.1,0.1,0.2,0.3,0.3,0.4
			c0.1,0.2,0.4,0.3,0.6,0.3c0.1,0,0.2,0,0.4-0.1c0.1-0.1,0.2-0.1,0.2-0.2c0.1-0.2,0.3-0.5,0.3-0.7c0.1-0.2,0.1-0.5,0.1-0.8
			c0-0.2-0.1-0.4-0.2-0.5c-0.1-0.1-0.3-0.2-0.5-0.2c-0.2,0-0.4,0.1-0.5,0.2c-0.1,0.1-0.2,0.3-0.2,0.5c0,0.1,0,0.2,0,0.4l0-0.2
			c0,0.2-0.1,0.3-0.1,0.4l0.1-0.2c0,0.1-0.1,0.2-0.2,0.3h1.2c-0.3-0.5-0.7-1-1.2-1.3c-0.1-0.1-0.4-0.1-0.5-0.1
			c-0.2,0-0.3,0.2-0.4,0.3c-0.1,0.2-0.1,0.4-0.1,0.5C228.6,106.9,228.7,107,228.8,107.1z"/>
		<path class="st2" d="M3,52.7c7.6,3.5,15.3,6.9,22.9,10.4c7.6,3.4,15.2,6.9,22.8,10.3c7.6,3.5,15.3,6.9,22.9,10.3
			c7.6,3.4,15.3,6.9,22.9,10.3c7.6,3.4,15.2,6.8,22.8,10.2c1,0.4,1.9,0.9,2.9,1.3c0.5,0.2,1.1,0.1,1.4-0.4c0.3-0.4,0.1-1.2-0.4-1.4
			c-7.7-3.4-15.3-6.9-23-10.3c-7.6-3.4-15.2-6.8-22.8-10.3c-7.6-3.4-15.3-6.9-22.9-10.3C45,69.4,37.3,66,29.7,62.5
			c-7.6-3.4-15.2-6.9-22.8-10.3c-1-0.4-1.9-0.9-2.9-1.3c-0.5-0.2-1.1-0.1-1.4,0.4C2.3,51.7,2.4,52.4,3,52.7z"/>
		<path class="st2" d="M19,74.7c6.2,4.4,12.4,8.8,18.6,13.2c6.2,4.4,12.4,8.8,18.6,13.2c3.5,2.5,7,4.9,10.5,7.4
			c0.5,0.3,1.2,0.1,1.4-0.4c0.3-0.5,0.1-1.1-0.4-1.4c-6.2-4.4-12.4-8.8-18.6-13.2c-6.2-4.4-12.4-8.8-18.6-13.2
			c-3.5-2.5-7-4.9-10.5-7.4c-0.5-0.3-1.2-0.1-1.4,0.4C18.3,73.8,18.5,74.4,19,74.7z"/>
		<path class="st2" d="M243.2,20.3c1.3-0.9,2.6-1.9,3.9-2.8c0.2-0.2,0.4-0.3,0.5-0.6c0.1-0.2,0-0.6-0.1-0.8c-0.3-0.4-1-0.7-1.4-0.4
			c-1.3,0.9-2.6,1.9-3.9,2.8c-0.2,0.2-0.4,0.3-0.5,0.6c-0.1,0.2,0,0.6,0.1,0.8C242,20.4,242.7,20.7,243.2,20.3z"/>
		<path class="st2" d="M248.8,34c1.1,0,2.2,0,3.4,0c0.5,0,1.1-0.5,1-1c0-0.6-0.5-1-1-1c-1.1,0-2.2,0-3.4,0c-0.5,0-1.1,0.5-1,1
			C247.8,33.5,248.3,34,248.8,34z"/>
		<path class="st2" d="M232.1,4c-0.7,2.4-1.5,4.9-2.2,7.3c-0.2,0.5,0.2,1.1,0.7,1.3c0.6,0.2,1.1-0.2,1.3-0.7
			c0.7-2.4,1.5-4.9,2.2-7.3c0.2-0.5-0.2-1.1-0.7-1.3C232.8,3.1,232.2,3.4,232.1,4z"/>
	</g>
</g>
</svg>
